<?xml version="1.0" encoding="UTF-8" standalone="no"?>
<svg
   xmlns:dc="http://purl.org/dc/elements/1.1/"
   xmlns:cc="http://creativecommons.org/ns#"
   xmlns:rdf="http://www.w3.org/1999/02/22-rdf-syntax-ns#"
   xmlns:svg="http://www.w3.org/2000/svg"
   xmlns="http://www.w3.org/2000/svg"
   xmlns:sodipodi="http://sodipodi.sourceforge.net/DTD/sodipodi-0.dtd"
   xmlns:inkscape="http://www.inkscape.org/namespaces/inkscape"
   id="Layer_1"
   enable-background="new 0 0 511.394 511.394"
   height="512"
   viewBox="0 0 511.394 511.394"
   width="512"
   version="1.1"
   sodipodi:docname="adm.svg"
   inkscape:version="0.92.4 5da689c313, 2019-01-14">
  <metadata
     id="metadata13">
    <rdf:RDF>
      <cc:Work
         rdf:about="">
        <dc:format>image/svg+xml</dc:format>
        <dc:type
           rdf:resource="http://purl.org/dc/dcmitype/StillImage" />
      </cc:Work>
    </rdf:RDF>
  </metadata>
  <defs
     id="defs11" />
  <sodipodi:namedview
     pagecolor="#ffffff"
     bordercolor="#666666"
     borderopacity="1"
     objecttolerance="10"
     gridtolerance="10"
     guidetolerance="10"
     inkscape:pageopacity="0"
     inkscape:pageshadow="2"
     inkscape:window-width="888"
     inkscape:window-height="480"
     id="namedview9"
     showgrid="false"
     inkscape:zoom="0.4609375"
     inkscape:cx="256"
     inkscape:cy="256"
     inkscape:window-x="293"
     inkscape:window-y="164"
     inkscape:window-maximized="0"
     inkscape:current-layer="Layer_1" />
  <circle
     cx="255.659"
     cy="335.689"
     r="21.333"
     id="circle2"
     style="fill:#dbe2e3" />
  <path
     d="m351.659 304.022h-5.727c-1.206-3.356-2.438-6.426-4.047-9.774l4.047-4.048c8.201-8.201 8.202-21.497.001-29.698l-15.085-15.086c-3.938-3.938-9.28-6.151-14.85-6.151-9.723 0-14.383 5.685-18.898 10.199-2.939-1.411-6.367-2.847-9.773-4.045.1 0 0 .453 0-5.728 0-11.598-9.404-21-21.002-21h-21.333c-11.598 0-21 9.402-21 21v5.727c-3.403 1.197-6.889 2.661-9.775 4.047-5.274-5.274-9.469-10.199-18.898-10.199-5.57 0-10.912 2.213-14.85 6.151l-15.085 15.086c-8.201 8.201-8.2 21.497.001 29.698l4.047 4.048c-1.694 3.525-2.94 6.692-4.047 9.774h-5.727c-11.598 0-21 9.402-21 21v21.334c0 11.598 9.402 21 21 21 5.995 0 5.705-.062 5.741.039 1.21 3.434 2.65 6.857 4.033 9.737l-4.048 4.048c-8.201 8.201-8.201 21.498 0 29.699l15.085 15.085c8.201 8.201 21.497 8.201 29.698 0l4.048-4.049c3.145 1.51 6.669 2.955 9.776 4.048v5.728c0 11.598 9.402 21 21 21h21.333c11.598 0 21.002-9.402 21.002-21v-5.729c.277 0 5.892-2.183 9.773-4.046l4.048 4.049c8.201 8.201 21.497 8.201 29.698 0l15.085-15.085c8.201-8.201 8.201-21.498 0-29.699l-4.048-4.048c1.299-2.705 2.818-6.281 4.047-9.775h5.727c11.598 0 21-9.402 21-21v-21.334c.003-11.601-9.399-21.003-20.997-21.003zm-75.247 81.156c-35.362 14.871-74.42-11.322-74.42-49.489 0-38.19 39.077-64.347 74.417-49.489 43.854 18.363 43.674 80.68.003 98.978z"
     id="path4"
     style="fill:#93a7ac" />
  <path
     d="m360.596 101.909c-80.288-79.631-217.204-44.095-248.244 64.895-33.33-5.861-65.794 6.8-85.109 27.423-59.766 63.814-14.127 162.463 68.415 162.463 11.598 0 21-9.402 21-21s-9.402-21-21-21c-29.594 0-53.67-24.076-53.67-53.67 0-39.19 41.067-65.421 76.707-48.461 15.758 7.472 16.181 16.667 29.76 16.667 18.54 0 28.118-22.581 14.849-35.85-3.733-3.733-7.71-7.075-11.865-10.061 16.481-71.366 97.997-104.371 159.516-67.221-20.135 10.11-37.809 25.102-51.138 44.03-9.881 14.034.403 33.093 17.152 33.093 6.601 0 13.1-3.104 17.188-8.911 16.821-23.889 43.051-38.135 70.086-40.55 80.447-7.357 133.247 82.083 89.272 148.834-10.308 11.814-25.464 20.126-40.764 22.311-11.481 1.639-19.46 12.275-17.821 23.757 1.628 11.405 12.197 19.47 23.757 17.821 25.591-3.653 50.886-17.733 67.665-37.664.499-.593.965-1.214 1.396-1.858 64.091-94.994-10.043-225.463-127.152-215.048z"
     id="path6"
     style="fill:#00ccff" />
</svg>
