<?xml version="1.0" encoding="UTF-8" standalone="no"?>
<!-- Created with Inkscape (http://www.inkscape.org/) -->

<svg
   xmlns:dc="http://purl.org/dc/elements/1.1/"
   xmlns:cc="http://creativecommons.org/ns#"
   xmlns:rdf="http://www.w3.org/1999/02/22-rdf-syntax-ns#"
   xmlns:svg="http://www.w3.org/2000/svg"
   xmlns="http://www.w3.org/2000/svg"
   xmlns:sodipodi="http://sodipodi.sourceforge.net/DTD/sodipodi-0.dtd"
   xmlns:inkscape="http://www.inkscape.org/namespaces/inkscape"
   width="400"
   height="400"
   viewBox="0 0 105.83333 105.83333"
   version="1.1"
   id="svg8"
   inkscape:version="0.92.4 5da689c313, 2019-01-14"
   sodipodi:docname="favicon.svg"
   inkscape:export-filename="/home/emerson/Clientes/m&amp;m/memservicos.png"
   inkscape:export-xdpi="100"
   inkscape:export-ydpi="100">
  <defs
     id="defs2" />
  <sodipodi:namedview
     id="base"
     pagecolor="#ffffff"
     bordercolor="#666666"
     borderopacity="1.0"
     inkscape:pageopacity="0.0"
     inkscape:pageshadow="2"
     inkscape:zoom="1.1516129"
     inkscape:cx="57.436971"
     inkscape:cy="168.57143"
     inkscape:document-units="mm"
     inkscape:current-layer="layer2"
     showgrid="false"
     inkscape:window-width="1920"
     inkscape:window-height="1017"
     inkscape:window-x="0"
     inkscape:window-y="27"
     inkscape:window-maximized="1"
     showguides="true"
     inkscape:guide-bbox="true"
     units="px" />
  <metadata
     id="metadata5">
    <rdf:RDF>
      <cc:Work
         rdf:about="">
        <dc:format>image/svg+xml</dc:format>
        <dc:type
           rdf:resource="http://purl.org/dc/dcmitype/StillImage" />
        <dc:title />
      </cc:Work>
    </rdf:RDF>
  </metadata>
  <g
     inkscape:label="Camada 1"
     inkscape:groupmode="layer"
     id="layer1"
     style="display:inline"
     transform="translate(0,-191.16667)" />
  <g
     inkscape:groupmode="layer"
     id="layer2"
     inkscape:label="Camada 2"
     transform="translate(0,-191.16667)">
    <path
       sodipodi:nodetypes="cccccc"
       inkscape:connector-curvature="0"
       id="path4614"
       d="m 100.75986,255.19167 c -1.421011,-13.43265 -33.439575,-11.50634 -58.435867,0.0653 l -14.231881,25.6784 H 3.4200322 l -3.1809909,3.1034 C 49.696065,214.46726 125.49955,225.81748 100.75986,255.19167 Z"
       style="opacity:1;vector-effect:none;fill:#333333;fill-opacity:1;stroke:none;stroke-width:0.43447679px;stroke-linecap:butt;stroke-linejoin:miter;stroke-miterlimit:4;stroke-dasharray:none;stroke-dashoffset:0;stroke-opacity:1"
       inkscape:export-xdpi="100"
       inkscape:export-ydpi="100" />
    <path
       style="opacity:1;vector-effect:none;fill:#0066ff;fill-opacity:1;stroke:#ffffff;stroke-width:0.52916667;stroke-linecap:butt;stroke-linejoin:miter;stroke-miterlimit:4;stroke-dasharray:none;stroke-dashoffset:0;stroke-opacity:1"
       d="m 51.989696,204.1275 25.839582,0.15957 2.635442,15.35099 c -5.106617,-1.36543 -10.198563,-2.76607 -16.017682,-2.4215 19.566029,4.34759 24.216265,8.97139 28.308268,13.60553 -2.869051,-0.49085 -5.686346,-0.83995 -8.45158,-1.05961 -0.379839,-2.0178 -4.68806,-5.23293 -9.272194,-5.70411 -0.38907,2.24146 -0.187043,2.73703 2.527145,5.4179 C 42.953301,229.29328 17.076676,249.0197 0.58885493,262.20256 3.3883032,253.59976 10.109011,246.01359 18.472549,238.85333 14.084017,237.9282 11.26167,238.23709 7.4896746,239.10414 15.29179,231.96255 18.627487,230.47477 29.51133,228.2047 c -3.693486,-1.71043 -8.947833,-2.6585 -13.846489,-2.76022 12.798997,-4.37656 21.148495,-4.38701 27.381191,-3.95128 -6.308019,-4.34005 -9.723043,-5.54602 -13.6707,-7.32901 5.020461,-0.12762 10.139327,-0.18145 15.975966,0.30307 z"
       id="rect4599"
       inkscape:connector-curvature="0"
       sodipodi:nodetypes="ccccccccccccccccc"
       inkscape:export-xdpi="100"
       inkscape:export-ydpi="100" />
    <path
       style="opacity:1;vector-effect:none;fill:#333333;fill-opacity:1;stroke:#ffffff;stroke-width:0.52916667;stroke-linecap:butt;stroke-linejoin:miter;stroke-miterlimit:4;stroke-dasharray:none;stroke-dashoffset:0;stroke-opacity:1"
       d="m 100.75986,255.19167 c -1.421011,-13.43265 -33.439575,-11.50634 -58.435867,0.0653 l -14.231881,25.6784 H 3.4200322 l -3.1809909,3.1034 C 49.696065,214.46726 125.49955,225.81748 100.75986,255.19167 Z"
       id="rect4602"
       inkscape:connector-curvature="0"
       sodipodi:nodetypes="cccccc"
       inkscape:export-xdpi="100"
       inkscape:export-ydpi="100" />
  </g>
</svg>
