<svg enable-background="new 0 0 15.642 15.642" viewBox="0 0 15.642 15.642" xmlns="http://www.w3.org/2000/svg"><path d="m1.4921875-.00585938a1.50015 1.50015 0 0 0 -1.04492188 2.57617188l5.25390628 5.2539063-5.25390628 5.2558592a1.50015 1.50015 0 1 0 2.12109378 2.121094l5.2558594-5.2558595 5.2539062 5.2558595a1.50015 1.50015 0 1 0 2.121094-2.121094l-5.2539065-5.2558592 5.2539065-5.2539063a1.50015 1.50015 0 0 0 -1.089844-2.57617188 1.50015 1.50015 0 0 0 -1.03125.453125l-5.2558594 5.25585938-5.2539062-5.25390625a1.50015 1.50015 0 0 0 -1.0761719-.45507813z"/></svg>