<?xml version="1.0" encoding="UTF-8" standalone="no"?>
<svg
   xmlns:dc="http://purl.org/dc/elements/1.1/"
   xmlns:cc="http://creativecommons.org/ns#"
   xmlns:rdf="http://www.w3.org/1999/02/22-rdf-syntax-ns#"
   xmlns:svg="http://www.w3.org/2000/svg"
   xmlns="http://www.w3.org/2000/svg"
   xmlns:sodipodi="http://sodipodi.sourceforge.net/DTD/sodipodi-0.dtd"
   xmlns:inkscape="http://www.inkscape.org/namespaces/inkscape"
   viewBox="0 0 32.000001 32.000001"
   version="1.1"
   id="svg7"
   sodipodi:docname="error.svg"
   inkscape:version="0.92.4 5da689c313, 2019-01-14"
   width="32"
   height="32">
  <metadata
     id="metadata13">
    <rdf:RDF>
      <cc:Work
         rdf:about="">
        <dc:format>image/svg+xml</dc:format>
        <dc:type
           rdf:resource="http://purl.org/dc/dcmitype/StillImage" />
        <dc:title />
      </cc:Work>
    </rdf:RDF>
  </metadata>
  <defs
     id="defs11" />
  <sodipodi:namedview
     pagecolor="#ffffff"
     bordercolor="#666666"
     borderopacity="1"
     objecttolerance="10"
     gridtolerance="10"
     guidetolerance="10"
     inkscape:pageopacity="0"
     inkscape:pageshadow="2"
     inkscape:window-width="1920"
     inkscape:window-height="1017"
     id="namedview9"
     showgrid="false"
     inkscape:zoom="20.834166"
     inkscape:cx="-3.5311429"
     inkscape:cy="16.697269"
     inkscape:window-x="0"
     inkscape:window-y="27"
     inkscape:window-maximized="1"
     inkscape:current-layer="svg7" />
  <path
     style="opacity:1;vector-effect:none;fill:#000000;fill-opacity:1;stroke:none;stroke-width:0.05745926;stroke-linecap:butt;stroke-linejoin:miter;stroke-miterlimit:4;stroke-dasharray:none;stroke-dashoffset:0;stroke-opacity:1"
     d="m 6.2196618,4.0009412 c -0.566643,0 -1.1323876,0.2179674 -1.5665787,0.6521911 -0.8683824,0.8684474 -0.8683824,2.2667413 0,3.1351887 l 8.2101669,8.212578 -8.2119635,8.212577 c -0.8683823,0.868448 -0.8683823,2.266741 0,3.135189 0.8683824,0.868447 2.2683682,0.868447 3.1367505,0 L 16,19.136087 l 8.211962,8.212578 c 0.868383,0.868447 2.268369,0.868447 3.136752,0 0.868382,-0.868448 0.868382,-2.266741 0,-3.135189 l -8.21376,-8.212577 8.211963,-8.212578 c 0.868382,-0.8684474 0.868382,-2.2685379 0,-3.1369853 -0.868383,-0.8684474 -2.266572,-0.8684474 -3.134955,0 L 16,12.863914 7.788037,4.6531323 C 7.3538459,4.2189086 6.7863048,4.0009412 6.2196618,4.0009412 Z"
     id="rect2000"
     inkscape:connector-curvature="0" />
</svg>
