<?xml version="1.0" encoding="UTF-8" standalone="no"?>
<svg
   xmlns:dc="http://purl.org/dc/elements/1.1/"
   xmlns:cc="http://creativecommons.org/ns#"
   xmlns:rdf="http://www.w3.org/1999/02/22-rdf-syntax-ns#"
   xmlns:svg="http://www.w3.org/2000/svg"
   xmlns="http://www.w3.org/2000/svg"
   xmlns:sodipodi="http://sodipodi.sourceforge.net/DTD/sodipodi-0.dtd"
   xmlns:inkscape="http://www.inkscape.org/namespaces/inkscape"
   enable-background="new 0 0 32 32"
   viewBox="0 0 32 32"
   version="1.1"
   id="svg11"
   sodipodi:docname="info.svg"
   inkscape:version="0.92.4 5da689c313, 2019-01-14">
  <metadata
     id="metadata17">
    <rdf:RDF>
      <cc:Work
         rdf:about="">
        <dc:format>image/svg+xml</dc:format>
        <dc:type
           rdf:resource="http://purl.org/dc/dcmitype/StillImage" />
        <dc:title />
      </cc:Work>
    </rdf:RDF>
  </metadata>
  <defs
     id="defs15">
	
	
</defs>
  <sodipodi:namedview
     pagecolor="#ffffff"
     bordercolor="#666666"
     borderopacity="1"
     objecttolerance="10"
     gridtolerance="10"
     guidetolerance="10"
     inkscape:pageopacity="0"
     inkscape:pageshadow="2"
     inkscape:window-width="1920"
     inkscape:window-height="1017"
     id="namedview13"
     showgrid="true"
     inkscape:zoom="10.429825"
     inkscape:cx="42.405819"
     inkscape:cy="11.24825"
     inkscape:window-x="0"
     inkscape:window-y="27"
     inkscape:window-maximized="1"
     inkscape:current-layer="svg11">
    <inkscape:grid
       type="xygrid"
       id="grid860"
       dotted="true" />
  </sodipodi:namedview>
  <path
     id="path956"
     style="vector-effect:none;fill:#000000;fill-opacity:1;stroke-width:0.05643363;stroke-linecap:butt;stroke-linejoin:miter;stroke-miterlimit:4;stroke-dasharray:none;stroke-dashoffset:0;stroke-opacity:1"
     d="M 20.2698,4.9452006 C 19.952159,4.6200784 19.545708,4.4552277 19.061862,4.4552277 c -0.602389,0 -1.12706,0.2380532 -1.559245,0.707581 -0.425284,0.4617884 -0.640957,1.0284465 -0.640957,1.6841731 0,0.518093 0.158853,0.9474401 0.472108,1.2760451 0.317447,0.3335711 0.718416,0.5026785 1.19162,0.5026785 0.577751,0 1.099585,-0.2514038 1.550925,-0.7472458 C 20.519785,7.3913245 20.744681,6.8186038 20.744681,6.1762278 20.744745,5.6825786 20.58499,5.2684525 20.2698,4.9452006 Z m 0.06237,18.2447034 c -0.08945,-0.131055 -0.261078,-0.177686 -0.404387,-0.109772 -1.585431,0.750535 -3.384857,1.544025 -3.738035,1.613357 -0.0089,-0.0079 -0.02302,-0.02244 -0.04153,-0.04753 -0.04786,-0.06482 -0.07114,-0.149501 -0.07114,-0.25895 0,-0.896811 0.676881,-3.624974 2.011746,-8.10832 1.125513,-3.766928 1.255665,-4.546873 1.255665,-4.805823 0,-0.399744 -0.153048,-0.737507 -0.442762,-0.97685 -0.275203,-0.22696 -0.659726,-0.341956 -1.142798,-0.341956 -0.80355,0 -1.734866,0.305064 -2.847221,0.932671 -1.077915,0.608387 -2.280048,1.638832 -3.572798,3.062701 -0.101193,0.111513 -0.11177,0.278234 -0.02548,0.401679 0.08642,0.123509 0.246695,0.170526 0.38607,0.11377 0.453856,-0.185231 2.734742,-1.119579 3.067217,-1.328415 0.272235,-0.170656 0.507902,-0.257273 0.700486,-0.257273 0.0069,0 0.01284,2.58e-4 0.0178,6.45e-4 0.0023,0.01277 0.0045,0.03225 0.0045,0.06017 0,0.196518 -0.04044,0.429154 -0.119703,0.690296 -1.943639,6.297413 -2.888435,10.157925 -2.888435,11.802304 0,0.580332 0.161304,1.047538 0.479331,1.388461 0.324091,0.347825 0.761242,0.524156 1.299328,0.524156 0.57343,0 1.271337,-0.239537 2.133514,-0.732283 0.834315,-0.476751 2.107716,-1.525514 3.893147,-3.206527 0.11564,-0.108804 0.134924,-0.285457 0.04547,-0.416512 z" />
  <g
     id="g960"
     transform="translate(99.906,-50.799)">
</g>
  <g
     id="g962"
     transform="translate(99.906,-50.799)">
</g>
  <g
     id="g964"
     transform="translate(99.906,-50.799)">
</g>
  <g
     id="g966"
     transform="translate(99.906,-50.799)">
</g>
  <g
     id="g968"
     transform="translate(99.906,-50.799)">
</g>
  <g
     id="g970"
     transform="translate(99.906,-50.799)">
</g>
  <g
     id="g972"
     transform="translate(99.906,-50.799)">
</g>
  <g
     id="g974"
     transform="translate(99.906,-50.799)">
</g>
  <g
     id="g976"
     transform="translate(99.906,-50.799)">
</g>
  <g
     id="g978"
     transform="translate(99.906,-50.799)">
</g>
  <g
     id="g980"
     transform="translate(99.906,-50.799)">
</g>
  <g
     id="g982"
     transform="translate(99.906,-50.799)">
</g>
  <g
     id="g984"
     transform="translate(99.906,-50.799)">
</g>
  <g
     id="g986"
     transform="translate(99.906,-50.799)">
</g>
  <g
     id="g988"
     transform="translate(99.906,-50.799)">
</g>
</svg>
