<?xml version="1.0" encoding="UTF-8" standalone="no"?>
<svg
   xmlns:dc="http://purl.org/dc/elements/1.1/"
   xmlns:cc="http://creativecommons.org/ns#"
   xmlns:rdf="http://www.w3.org/1999/02/22-rdf-syntax-ns#"
   xmlns:svg="http://www.w3.org/2000/svg"
   xmlns="http://www.w3.org/2000/svg"
   xmlns:sodipodi="http://sodipodi.sourceforge.net/DTD/sodipodi-0.dtd"
   xmlns:inkscape="http://www.inkscape.org/namespaces/inkscape"
   enable-background="new 0 0 32 32"
   viewBox="0 0 32 32"
   version="1.1"
   id="svg11"
   sodipodi:docname="question.svg"
   inkscape:version="0.92.4 5da689c313, 2019-01-14">
  <metadata
     id="metadata17">
    <rdf:RDF>
      <cc:Work
         rdf:about="">
        <dc:format>image/svg+xml</dc:format>
        <dc:type
           rdf:resource="http://purl.org/dc/dcmitype/StillImage" />
        <dc:title />
      </cc:Work>
    </rdf:RDF>
  </metadata>
  <defs
     id="defs15" />
  <sodipodi:namedview
     pagecolor="#ffffff"
     bordercolor="#666666"
     borderopacity="1"
     objecttolerance="10"
     gridtolerance="10"
     guidetolerance="10"
     inkscape:pageopacity="0"
     inkscape:pageshadow="2"
     inkscape:window-width="1920"
     inkscape:window-height="1017"
     id="namedview13"
     showgrid="true"
     inkscape:zoom="7.375"
     inkscape:cx="27.680533"
     inkscape:cy="-8.8878275"
     inkscape:window-x="0"
     inkscape:window-y="27"
     inkscape:window-maximized="1"
     inkscape:current-layer="svg11">
    <inkscape:grid
       type="xygrid"
       id="grid860"
       dotted="true" />
  </sodipodi:namedview>
  <g
     id="g960"
     transform="translate(99.906,-50.799)" />
  <g
     id="g962"
     transform="translate(99.906,-50.799)" />
  <g
     id="g964"
     transform="translate(99.906,-50.799)" />
  <g
     id="g966"
     transform="translate(99.906,-50.799)" />
  <g
     id="g968"
     transform="translate(99.906,-50.799)" />
  <g
     id="g970"
     transform="translate(99.906,-50.799)" />
  <g
     id="g972"
     transform="translate(99.906,-50.799)" />
  <g
     id="g974"
     transform="translate(99.906,-50.799)" />
  <g
     id="g976"
     transform="translate(99.906,-50.799)" />
  <g
     id="g978"
     transform="translate(99.906,-50.799)" />
  <g
     id="g980"
     transform="translate(99.906,-50.799)" />
  <g
     id="g982"
     transform="translate(99.906,-50.799)" />
  <g
     id="g984"
     transform="translate(99.906,-50.799)" />
  <g
     id="g986"
     transform="translate(99.906,-50.799)" />
  <g
     id="g988"
     transform="translate(99.906,-50.799)" />
  <path
     inkscape:connector-curvature="0"
     style="fill:#000000;stroke-width:0.06449597"
     d="m 8.9143211,11.195861 c 0,-0.897467 0.2881017,-1.8068659 0.8644342,-2.7280029 0.5761387,-0.921137 1.4171617,-1.684 2.5224867,-2.2887178 1.10539,-0.6045244 2.394979,-0.9069479 3.868767,-0.9069479 1.369757,0 2.579179,0.2528903 3.627877,0.7581548 1.048698,0.5055224 1.858633,1.1928601 2.430387,2.0619486 0.571495,0.8693464 0.857339,1.8139601 0.857339,2.8342922 0,0.803109 -0.16298,1.507087 -0.488941,2.111547 -0.32596,0.604718 -0.71345,1.126687 -1.162081,1.565907 -0.448825,0.439349 -1.254181,1.178671 -2.416198,2.217901 -0.321252,0.292942 -0.578848,0.550476 -0.772334,0.772408 -0.193745,0.222061 -0.337893,0.42516 -0.43225,0.609297 -0.09455,0.184266 -0.167882,0.368468 -0.219672,0.552734 -0.05205,0.184137 -0.129958,0.507909 -0.233796,0.970735 -0.179556,0.982666 -0.741764,1.47387 -1.686366,1.47387 -0.491327,0 -0.904744,-0.160531 -1.239992,-0.481852 -0.335442,-0.321127 -0.503066,-0.798271 -0.503066,-1.431303 0,-0.793628 0.122671,-1.480965 0.368464,-2.061949 0.245599,-0.581112 0.571495,-1.091278 0.977817,-1.530498 0.406064,-0.43935 0.954148,-0.961254 1.643863,-1.565972 0.604517,-0.528999 1.041604,-0.928232 1.310873,-1.197504 0.269269,-0.269272 0.495971,-0.569051 0.680235,-0.899918 0.184199,-0.330608 0.276363,-0.68953 0.276363,-1.077024 0,-0.755769 -0.2812,-1.3934441 -0.843215,-1.9131558 -0.562208,-0.5194537 -1.287396,-0.7794385 -2.175307,-0.7794385 -1.03941,0 -1.80465,0.2621777 -2.295784,0.7865331 -0.491328,0.5243554 -0.906937,1.2966992 -1.247087,2.3170322 -0.321252,1.067737 -0.930671,1.60138 -1.828127,1.60138 -0.529251,0 -0.9756247,-0.186459 -1.3391863,-0.559764 C 9.0961341,12.034378 8.9143211,11.630502 8.9143211,11.195861 Z m 6.9156029,15.532013 c -0.576397,0 -1.079462,-0.186717 -1.509261,-0.559828 -0.429992,-0.373047 -0.644827,-0.895016 -0.644827,-1.565907 0,-0.595237 0.207676,-1.095858 0.623544,-1.502185 0.415609,-0.406134 0.925769,-0.609362 1.53048,-0.609362 0.595229,0 1.095844,0.203228 1.502166,0.609362 0.406064,0.406327 0.609354,0.906948 0.609354,1.502185 0,0.66141 -0.212577,1.181057 -0.637732,1.558877 -0.425155,0.377819 -0.916353,0.566858 -1.473724,0.566858 z"
     id="path965" />
  <g
     id="g967"
     transform="matrix(0.06449558,0,0,0.06449636,0,-1.914958e-4)">
</g>
  <g
     id="g969"
     transform="matrix(0.06449558,0,0,0.06449636,0,-1.914958e-4)">
</g>
  <g
     id="g971"
     transform="matrix(0.06449558,0,0,0.06449636,0,-1.914958e-4)">
</g>
  <g
     id="g973"
     transform="matrix(0.06449558,0,0,0.06449636,0,-1.914958e-4)">
</g>
  <g
     id="g975"
     transform="matrix(0.06449558,0,0,0.06449636,0,-1.914958e-4)">
</g>
  <g
     id="g977"
     transform="matrix(0.06449558,0,0,0.06449636,0,-1.914958e-4)">
</g>
  <g
     id="g979"
     transform="matrix(0.06449558,0,0,0.06449636,0,-1.914958e-4)">
</g>
  <g
     id="g981"
     transform="matrix(0.06449558,0,0,0.06449636,0,-1.914958e-4)">
</g>
  <g
     id="g983"
     transform="matrix(0.06449558,0,0,0.06449636,0,-1.914958e-4)">
</g>
  <g
     id="g985"
     transform="matrix(0.06449558,0,0,0.06449636,0,-1.914958e-4)">
</g>
  <g
     id="g987"
     transform="matrix(0.06449558,0,0,0.06449636,0,-1.914958e-4)">
</g>
  <g
     id="g989"
     transform="matrix(0.06449558,0,0,0.06449636,0,-1.914958e-4)">
</g>
  <g
     id="g991"
     transform="matrix(0.06449558,0,0,0.06449636,0,-1.914958e-4)">
</g>
  <g
     id="g993"
     transform="matrix(0.06449558,0,0,0.06449636,0,-1.914958e-4)">
</g>
  <g
     id="g995"
     transform="matrix(0.06449558,0,0,0.06449636,0,-1.914958e-4)">
</g>
</svg>
