<?xml version="1.0" encoding="UTF-8" standalone="no"?>
<svg
   enable-background="new 0 0 424.98 424.98"
   height="424.98"
   viewBox="0 0 424.98 424.98"
   width="424.98"
   version="1.1"
   id="svg50"
   sodipodi:docname="acumulators.svg"
   inkscape:version="1.1 (c4e8f9ed74, 2021-05-24)"
   xmlns:inkscape="http://www.inkscape.org/namespaces/inkscape"
   xmlns:sodipodi="http://sodipodi.sourceforge.net/DTD/sodipodi-0.dtd"
   xmlns="http://www.w3.org/2000/svg"
   xmlns:svg="http://www.w3.org/2000/svg"
   xmlns:rdf="http://www.w3.org/1999/02/22-rdf-syntax-ns#"
   xmlns:cc="http://creativecommons.org/ns#"
   xmlns:dc="http://purl.org/dc/elements/1.1/">
  <metadata
     id="metadata56">
    <rdf:RDF>
      <cc:Work
         rdf:about="">
        <dc:format>image/svg+xml</dc:format>
        <dc:type
           rdf:resource="http://purl.org/dc/dcmitype/StillImage" />
      </cc:Work>
    </rdf:RDF>
  </metadata>
  <defs
     id="defs54">
	

		
		
		
		
		
		
	</defs>
  <sodipodi:namedview
     pagecolor="#ffffff"
     bordercolor="#666666"
     borderopacity="1"
     objecttolerance="10"
     gridtolerance="10"
     guidetolerance="10"
     inkscape:pageopacity="0"
     inkscape:pageshadow="2"
     inkscape:window-width="1920"
     inkscape:window-height="995"
     id="namedview52"
     showgrid="false"
     inkscape:zoom="0.78534141"
     inkscape:cx="29.923292"
     inkscape:cy="166.16977"
     inkscape:window-x="0"
     inkscape:window-y="0"
     inkscape:window-maximized="1"
     inkscape:current-layer="layer2"
     inkscape:pagecheckerboard="0"
     borderlayer="true" />
  <g
     inkscape:groupmode="layer"
     id="layer2"
     inkscape:label="Desenho">
    <path
       style="fill:#030104;stroke-width:22.6013"
       d="M 50.739838,283.4283 H 6.1475438 C 2.7573542,283.4283 0,286.23086 0,289.62105 v 129.21142 c 0,3.39019 2.7573542,6.14755 6.1475438,6.14755 H 50.739838 c 3.390189,0 6.147543,-2.75736 6.147543,-6.14755 V 289.62105 c 0.0226,-3.39019 -2.734752,-6.19275 -6.147543,-6.19275 z"
       id="path831" />
    <path
       style="fill:#030104;stroke-width:22.6013"
       d="M 418.21379,283.4283 H 373.6215 c -3.39019,0 -6.12495,2.80256 -6.12495,6.19275 v 129.21142 c 0,3.39019 2.73476,6.14755 6.12495,6.14755 h 44.59229 c 3.43539,0 6.17014,-2.75736 6.17014,-6.14755 V 289.62105 c 0,-3.39019 -2.73475,-6.19275 -6.17014,-6.19275 z"
       id="path833" />
    <path
       id="path835"
       style="fill:#030104;stroke-width:22.6013"
       d="M 88.914062 209.56641 C 85.523872 209.56641 82.744141 212.32549 82.744141 215.73828 L 82.744141 418.78711 C 82.744141 422.1773 85.523872 424.93555 88.914062 424.93555 L 133.50586 424.93555 C 136.91865 424.93555 139.67578 422.1773 139.67578 418.78711 L 139.67578 224.30273 C 139.42133 224.0544 139.15638 223.8224 138.9043 223.57031 C 134.562 219.22802 130.7853 214.52628 127.55469 209.56641 L 88.914062 209.56641 z " />
    <path
       style="fill:#030104;stroke-width:22.6013"
       d="m 322.54264,209.56737 h -44.5923 c -3.39018,0 -6.12494,2.75736 -6.12494,6.17015 v 203.04975 c 0,3.39019 2.73476,6.14755 6.12494,6.14755 h 44.5923 c 3.43539,0 6.17014,-2.75736 6.17014,-6.14755 V 215.73752 c 0.0226,-3.4354 -2.71215,-6.17015 -6.17014,-6.17015 z"
       id="path837" />
    <path
       style="fill:#030104;stroke-width:22.6013"
       d="m 226.23865,254.54389 h -44.61489 c -3.39019,0 -6.14755,2.77995 -6.14755,6.14754 v 158.07324 c 0,3.39019 2.75736,6.14754 6.14755,6.14754 h 44.61489 c 3.43539,0 6.17015,-2.75735 6.17015,-6.14754 V 260.69143 c 0,-3.36759 -2.73476,-6.14754 -6.17015,-6.14754 z"
       id="path839" />
    <path
       id="path841"
       style="fill:#030104;stroke-width:22.6013"
       d="M 111.2207 91.814453 C 98.089369 91.814453 87.466797 102.43703 87.466797 115.56836 C 87.466797 119.13936 88.325285 122.48399 89.726562 125.53516 L 41.925781 159.93555 C 38.106167 157.2686 33.472559 155.70898 28.455078 155.70898 C 15.323744 155.70898 4.7011719 166.35415 4.7011719 179.46289 C 4.7011719 192.59422 15.323744 203.2168 28.455078 203.2168 C 41.586413 203.2168 52.208984 192.59422 52.208984 179.46289 C 52.208984 177.18016 51.780156 175.03245 51.169922 172.95312 L 101.14062 136.99414 C 104.21439 138.44062 107.6045 139.30078 111.2207 139.30078 C 113.09415 139.30078 114.90501 139.06422 116.64453 138.65039 C 119.79985 127.19414 125.32417 116.27273 133.23242 106.67383 C 129.70957 97.96435 121.19603 91.814453 111.2207 91.814453 z M 305.5918 108.22266 C 292.95769 108.22266 282.7185 118.12288 281.97266 130.57617 L 281.49219 130.7168 C 283.40776 135.70552 284.85977 140.82441 285.82812 146.02734 L 286.42578 145.85352 C 290.74262 151.77505 297.68136 155.68555 305.5918 155.68555 C 310.83529 155.68555 315.60449 153.94569 319.53711 151.05273 L 372.98828 187.30469 C 372.53625 189.18059 372.15234 191.14753 372.15234 193.18164 C 372.15234 206.31298 382.79752 216.95703 395.90625 216.95703 C 409.01498 216.95703 419.70508 206.31298 419.70508 193.18164 C 419.70508 180.05031 409.01498 169.42773 395.90625 169.42773 C 390.66276 169.42773 385.89356 171.1687 381.96094 174.03906 L 328.55469 137.85352 C 329.00672 135.95501 329.3457 134.01068 329.3457 131.97656 C 329.3457 118.84523 318.74574 108.22266 305.5918 108.22266 z M 156.40234 129.01367 C 153.10941 133.37659 150.54588 138.08762 148.72266 143.01367 L 175.92773 158.75977 C 175.65651 160.16105 175.47656 161.60821 175.47656 163.05469 C 175.47656 176.16342 186.12174 186.80859 199.23047 186.80859 C 211.86458 186.80859 222.10293 176.90837 222.82617 164.45508 L 255.0918 155.01758 C 254.41203 149.77323 252.96913 144.61847 250.76367 139.69531 L 218.39648 149.1543 C 214.07964 143.21017 207.11831 139.32227 199.23047 139.32227 C 193.37674 139.32227 188.11064 141.49289 183.97461 144.99609 L 156.40234 129.01367 z " />
    <path
       fill="none"
       stroke="#000000"
       stroke-width="16.7273"
       stroke-linecap="round"
       d="m 250.22168,111.32275 a 71.090951,71.090951 0 1 0 0.9293,0.9293 l 78.98994,-78.989947 m -54.36367,42.282855 51.11115,-51.111137 12.08081,12.080815 -51.11115,51.111138"
       id="path822" />
    <g
       id="g847"
       transform="matrix(22.601264,0,0,22.601264,0,46.205435)">
</g>
    <g
       id="g849"
       transform="matrix(22.601264,0,0,22.601264,0,46.205435)">
</g>
    <g
       id="g851"
       transform="matrix(22.601264,0,0,22.601264,0,46.205435)">
</g>
    <g
       id="g853"
       transform="matrix(22.601264,0,0,22.601264,0,46.205435)">
</g>
    <g
       id="g855"
       transform="matrix(22.601264,0,0,22.601264,0,46.205435)">
</g>
    <g
       id="g857"
       transform="matrix(22.601264,0,0,22.601264,0,46.205435)">
</g>
    <g
       id="g859"
       transform="matrix(22.601264,0,0,22.601264,0,46.205435)">
</g>
    <g
       id="g861"
       transform="matrix(22.601264,0,0,22.601264,0,46.205435)">
</g>
    <g
       id="g863"
       transform="matrix(22.601264,0,0,22.601264,0,46.205435)">
</g>
    <g
       id="g865"
       transform="matrix(22.601264,0,0,22.601264,0,46.205435)">
</g>
    <g
       id="g867"
       transform="matrix(22.601264,0,0,22.601264,0,46.205435)">
</g>
    <g
       id="g869"
       transform="matrix(22.601264,0,0,22.601264,0,46.205435)">
</g>
    <g
       id="g871"
       transform="matrix(22.601264,0,0,22.601264,0,46.205435)">
</g>
    <g
       id="g873"
       transform="matrix(22.601264,0,0,22.601264,0,46.205435)">
</g>
    <g
       id="g875"
       transform="matrix(22.601264,0,0,22.601264,0,46.205435)">
</g>
  </g>
</svg>
