<?xml version="1.0" encoding="UTF-8" standalone="no"?>
<svg
   xmlns:dc="http://purl.org/dc/elements/1.1/"
   xmlns:cc="http://creativecommons.org/ns#"
   xmlns:rdf="http://www.w3.org/1999/02/22-rdf-syntax-ns#"
   xmlns:svg="http://www.w3.org/2000/svg"
   xmlns="http://www.w3.org/2000/svg"
   xmlns:sodipodi="http://sodipodi.sourceforge.net/DTD/sodipodi-0.dtd"
   xmlns:inkscape="http://www.inkscape.org/namespaces/inkscape"
   enable-background="new 0 0 424.98 424.98"
   height="424.98"
   viewBox="0 0 424.98 424.98"
   width="424.98"
   version="1.1"
   id="svg50"
   sodipodi:docname="banks.svg"
   inkscape:version="0.92.4 5da689c313, 2019-01-14">
  <metadata
     id="metadata56">
    <rdf:RDF>
      <cc:Work
         rdf:about="">
        <dc:format>image/svg+xml</dc:format>
        <dc:type
           rdf:resource="http://purl.org/dc/dcmitype/StillImage" />
      </cc:Work>
    </rdf:RDF>
  </metadata>
  <defs
     id="defs54" />
  <sodipodi:namedview
     pagecolor="#ffffff"
     bordercolor="#666666"
     borderopacity="1"
     objecttolerance="10"
     gridtolerance="10"
     guidetolerance="10"
     inkscape:pageopacity="0"
     inkscape:pageshadow="2"
     inkscape:window-width="1920"
     inkscape:window-height="1017"
     id="namedview52"
     showgrid="false"
     inkscape:zoom="0.78534141"
     inkscape:cx="409.6527"
     inkscape:cy="176.07906"
     inkscape:window-x="0"
     inkscape:window-y="27"
     inkscape:window-maximized="1"
     inkscape:current-layer="svg50" />
  <path
     d="m 424.9761,99.164208 v 14.165742 a 7.0828698,7.0828698 0 0 1 -7.08286,7.08287 h -21.24861 v 10.6243 c 0,5.86727 -4.75703,10.6243 -10.62431,10.6243 H 38.959698 c -5.867271,0 -10.624304,-4.75703 -10.624304,-10.6243 v -10.6243 H 7.0867853 A 7.0828698,7.0828698 0 0 1 0.00391549,113.32995 V 99.164208 A 7.0828698,7.0828698 0 0 1 4.3784729,92.619637 L 209.7817,14.708069 a 7.0793283,7.0793283 0 0 1 5.41663,0 l 205.40322,77.911568 a 7.0828698,7.0828698 0 0 1 4.37455,6.544571 z M 403.7275,368.31325 H 21.252525 c -11.7354301,0 -21.24860951,9.51319 -21.24860951,21.24862 v 14.16573 a 7.0828698,7.0828698 0 0 0 7.08286981,7.08288 H 417.89324 a 7.0828698,7.0828698 0 0 0 7.08286,-7.08288 v -14.16573 c 0,-11.73543 -9.51317,-21.24862 -21.2486,-21.24862 z M 70.832613,155.82717 V 325.81604 H 38.959698 c -5.867271,0 -10.624304,4.75703 -10.624304,10.62431 v 17.70717 H 396.64463 v -17.70717 c 0,-5.86728 -4.75703,-10.62431 -10.62431,-10.62431 H 354.14741 V 155.82717 H 297.48445 V 325.81604 H 240.82149 V 155.82717 H 184.15853 V 325.81604 H 127.49558 V 155.82717 Z"
     class=""
     id="path48"
     inkscape:connector-curvature="0"
     style="fill:#000000;stroke-width:0.88535869" />
</svg>
