<?xml version="1.0" encoding="UTF-8" standalone="no"?>
<svg
   enable-background="new 0 0 424.98 424.98"
   height="424.98"
   viewBox="0 0 424.98 424.98"
   width="424.98"
   version="1.1"
   id="svg856"
   sodipodi:docname="features.svg"
   inkscape:version="1.1 (c4e8f9ed74, 2021-05-24)"
   xmlns:inkscape="http://www.inkscape.org/namespaces/inkscape"
   xmlns:sodipodi="http://sodipodi.sourceforge.net/DTD/sodipodi-0.dtd"
   xmlns="http://www.w3.org/2000/svg"
   xmlns:svg="http://www.w3.org/2000/svg"
   xmlns:rdf="http://www.w3.org/1999/02/22-rdf-syntax-ns#"
   xmlns:cc="http://creativecommons.org/ns#"
   xmlns:dc="http://purl.org/dc/elements/1.1/">
  <metadata
     id="metadata862">
    <rdf:RDF>
      <cc:Work
         rdf:about="">
        <dc:format>image/svg+xml</dc:format>
        <dc:type
           rdf:resource="http://purl.org/dc/dcmitype/StillImage" />
      </cc:Work>
    </rdf:RDF>
  </metadata>
  <defs
     id="defs860" />
  <sodipodi:namedview
     pagecolor="#ffffff"
     bordercolor="#666666"
     borderopacity="1"
     objecttolerance="10"
     gridtolerance="10"
     guidetolerance="10"
     inkscape:pageopacity="0"
     inkscape:pageshadow="2"
     inkscape:window-width="1683"
     inkscape:window-height="920"
     id="namedview858"
     showgrid="false"
     showguides="true"
     inkscape:guide-bbox="true"
     inkscape:zoom="0.78534141"
     inkscape:cx="434.20606"
     inkscape:cy="323.42622"
     inkscape:window-x="26"
     inkscape:window-y="23"
     inkscape:window-maximized="0"
     inkscape:current-layer="svg856"
     inkscape:pagecheckerboard="0" />
  <path
     d="m 26.879229,409.87244 c -0.911888,7.8754 5.222635,14.75601 13.180936,14.75601 l 26.776361,0.0829 c 6.714817,0 12.351946,-4.89104 13.263834,-11.52296 0.580293,-4.06204 1.492182,-9.20178 2.818565,-15.00471 H 341.81238 c 1.32638,5.72003 2.40407,10.94267 2.90147,15.00471 0.91189,6.63192 6.54901,11.60586 13.26383,11.52296 l 26.77636,-0.0829 c 7.9583,0 14.17573,-6.88061 13.18094,-14.75601 -3.81335,-31.41871 -21.22213,-106.93966 -98.56687,-172.18115 -14.59021,10.27948 -30.75551,20.06155 -48.49589,29.34624 5.13974,3.81335 9.45048,7.7925 14.09283,11.77165 H 159.18597 c 17.65748,-15.00471 38.96251,-29.51204 65.24148,-42.61006 C 367.09657,165.3205 393.29264,54.81618 398.10077,15.107577 399.01267,7.2321755 392.87814,0.35156164 384.91984,0.35156164 l -26.85926,-0.0828992 c -6.71482,0 -12.35194,4.89103876 -13.26383,11.52295556 -0.5803,4.06205 -1.49219,9.201786 -2.81857,15.004713 H 83.001824 C 81.675441,20.993404 80.763552,15.936566 80.18326,11.791618 79.271371,5.1597014 73.634241,0.1857637 66.919425,0.26866262 l -26.776362,0.0828992 c -7.9583,0 -14.175722,6.88061388 -13.263834,14.75601518 C 31.189976,50.671231 52.826605,142.68909 159.43467,212.49001 52.909504,282.29093 31.189976,374.30879 26.879229,409.87244 Z M 212.49,182.31478 C 191.68237,170.95763 174.02488,158.77149 159.18597,146.17084 H 265.71113 C 250.95512,158.77149 233.29764,171.04053 212.49,182.31478 Z M 321.17054,79.851667 c -4.80814,8.621492 -10.61106,17.491681 -17.40878,26.527673 H 121.30114 C 114.42053,97.343348 108.61761,88.473159 103.89236,79.851667 Z M 103.80946,345.12835 c 4.80815,-8.6215 10.61107,-17.49168 17.40878,-26.52767 h 181.88033 c 6.88061,9.03599 12.76644,17.90617 17.57457,26.52767 z"
     id="path822"
     style="stroke-width:0.828989" />
</svg>
