<?xml version="1.0" encoding="UTF-8" standalone="no"?>
<svg
   xmlns:dc="http://purl.org/dc/elements/1.1/"
   xmlns:cc="http://creativecommons.org/ns#"
   xmlns:rdf="http://www.w3.org/1999/02/22-rdf-syntax-ns#"
   xmlns:svg="http://www.w3.org/2000/svg"
   xmlns="http://www.w3.org/2000/svg"
   xmlns:sodipodi="http://sodipodi.sourceforge.net/DTD/sodipodi-0.dtd"
   xmlns:inkscape="http://www.inkscape.org/namespaces/inkscape"
   enable-background="new 0 0 424.98 424.98"
   height="495"
   viewBox="0 0 494.99999 494.99999"
   width="495"
   version="1.1"
   id="svg856"
   sodipodi:docname="fieldtypes.svg"
   inkscape:version="1.0.2 (e86c870879, 2021-01-15)">
  <metadata
     id="metadata862">
    <rdf:RDF>
      <cc:Work
         rdf:about="">
        <dc:format>image/svg+xml</dc:format>
        <dc:type
           rdf:resource="http://purl.org/dc/dcmitype/StillImage" />
        <dc:title></dc:title>
      </cc:Work>
    </rdf:RDF>
  </metadata>
  <defs
     id="defs860" />
  <sodipodi:namedview
     pagecolor="#ffffff"
     bordercolor="#666666"
     borderopacity="1"
     objecttolerance="10"
     gridtolerance="10"
     guidetolerance="10"
     inkscape:pageopacity="0"
     inkscape:pageshadow="2"
     inkscape:window-width="1920"
     inkscape:window-height="1015"
     id="namedview858"
     showgrid="false"
     showguides="true"
     inkscape:guide-bbox="true"
     inkscape:zoom="0.55532024"
     inkscape:cx="-294.84938"
     inkscape:cy="208.59668"
     inkscape:window-x="0"
     inkscape:window-y="0"
     inkscape:window-maximized="1"
     inkscape:current-layer="svg856"
     inkscape:document-rotation="0" />
  <path
     d="M 30.937499,448.59375 C 30.937499,474.21386 51.723631,495 77.343748,495 H 417.65625 c 25.62012,0 46.40625,-20.78614 46.40625,-46.40625 V 185.625 H 30.937499 Z m 61.874999,-185.625 c 0,-8.50781 6.960937,-15.46875 15.468752,-15.46875 h 278.4375 c 8.50781,0 15.46875,6.96094 15.46875,15.46875 v 61.875 c 0,8.50781 -6.96094,15.46875 -15.46875,15.46875 h -278.4375 c -8.507815,0 -15.468752,-6.96094 -15.468752,-15.46875 z M 417.65625,61.874999 H 371.25 V 15.468749 C 371.25,6.9609365 364.28906,-1.5e-6 355.78125,-1.5e-6 h -30.9375 c -8.50781,0 -15.46875,6.960938 -15.46875,15.4687505 v 46.40625 H 185.625 V 15.468749 C 185.625,6.9609365 178.66406,-1.5e-6 170.15625,-1.5e-6 h -30.9375 c -8.50781,0 -15.46875,6.960938 -15.46875,15.4687505 v 46.40625 H 77.343748 c -25.620117,0 -46.406249,20.786133 -46.406249,46.406251 V 154.6875 H 464.0625 v -46.40625 c 0,-25.620118 -20.78613,-46.406251 -46.40625,-46.406251 z"
     id="path895"
     style="stroke-width:0.966797" />
</svg>
