<?xml version="1.0" encoding="UTF-8" standalone="no"?>
<!-- Created with Inkscape (http://www.inkscape.org/) -->

<svg
   xmlns:dc="http://purl.org/dc/elements/1.1/"
   xmlns:cc="http://creativecommons.org/ns#"
   xmlns:rdf="http://www.w3.org/1999/02/22-rdf-syntax-ns#"
   xmlns:svg="http://www.w3.org/2000/svg"
   xmlns="http://www.w3.org/2000/svg"
   xmlns:sodipodi="http://sodipodi.sourceforge.net/DTD/sodipodi-0.dtd"
   xmlns:inkscape="http://www.inkscape.org/namespaces/inkscape"
   width="400"
   height="400"
   viewBox="0 0 105.83333 105.83333"
   version="1.1"
   id="svg8"
   inkscape:version="0.92.4 5da689c313, 2019-01-14"
   sodipodi:docname="holidays.svg">
  <defs
     id="defs2" />
  <sodipodi:namedview
     id="base"
     pagecolor="#ffffff"
     bordercolor="#666666"
     borderopacity="1.0"
     inkscape:pageopacity="0.0"
     inkscape:pageshadow="2"
     inkscape:zoom="1.4"
     inkscape:cx="319.23751"
     inkscape:cy="294.80589"
     inkscape:document-units="mm"
     inkscape:current-layer="layer1"
     showgrid="true"
     units="px"
     showguides="true"
     inkscape:guide-bbox="true"
     inkscape:window-width="1920"
     inkscape:window-height="1017"
     inkscape:window-x="0"
     inkscape:window-y="27"
     inkscape:window-maximized="1">
    <sodipodi:guide
       position="11.90625,2.6458332"
       orientation="0,1"
       id="guide4789"
       inkscape:locked="false" />
    <sodipodi:guide
       position="22.489583,10.31875"
       orientation="0,1"
       id="guide5464"
       inkscape:locked="false" />
    <sodipodi:guide
       position="11.377083,6.6145831"
       orientation="0,1"
       id="guide5466"
       inkscape:locked="false" />
    <sodipodi:guide
       position="48.418748,35.189582"
       orientation="0,1"
       id="guide5476"
       inkscape:locked="false" />
    <sodipodi:guide
       position="11.90625,17.462499"
       orientation="0,1"
       id="guide5493"
       inkscape:locked="false" />
  </sodipodi:namedview>
  <metadata
     id="metadata5">
    <rdf:RDF>
      <cc:Work
         rdf:about="">
        <dc:format>image/svg+xml</dc:format>
        <dc:type
           rdf:resource="http://purl.org/dc/dcmitype/StillImage" />
        <dc:title></dc:title>
      </cc:Work>
    </rdf:RDF>
  </metadata>
  <g
     inkscape:label="Fundo"
     inkscape:groupmode="layer"
     id="layer1"
     transform="translate(0,-191.16667)"
     style="display:inline" />
  <g
     inkscape:groupmode="layer"
     id="layer2"
     inkscape:label="Desenho"
     style="display:inline;opacity:1">
    <path
       style="color:#000000;font-style:normal;font-variant:normal;font-weight:normal;font-stretch:normal;font-size:medium;line-height:normal;font-family:sans-serif;font-variant-ligatures:normal;font-variant-position:normal;font-variant-caps:normal;font-variant-numeric:normal;font-variant-alternates:normal;font-feature-settings:normal;text-indent:0;text-align:start;text-decoration:none;text-decoration-line:none;text-decoration-style:solid;text-decoration-color:#000000;letter-spacing:normal;word-spacing:normal;text-transform:none;writing-mode:lr-tb;direction:ltr;text-orientation:mixed;dominant-baseline:auto;baseline-shift:baseline;text-anchor:start;white-space:normal;shape-padding:0;clip-rule:nonzero;display:inline;overflow:visible;visibility:visible;opacity:1;isolation:auto;mix-blend-mode:normal;color-interpolation:sRGB;color-interpolation-filters:linearRGB;solid-color:#000000;solid-opacity:1;vector-effect:none;fill:#000000;fill-opacity:1;fill-rule:nonzero;stroke:none;stroke-width:10;stroke-linecap:round;stroke-linejoin:round;stroke-miterlimit:4;stroke-dasharray:none;stroke-dashoffset:0;stroke-opacity:1;color-rendering:auto;image-rendering:auto;shape-rendering:auto;text-rendering:auto;enable-background:accumulate"
       d="m 235.07812,10.947266 c -53.25776,-0.01916 -105.50169,23.423947 -132.39648,69.529296 -2.21049,3.789691 1.18249,8.387147 5.45508,7.390626 13.50536,-3.151117 26.46141,-5.894686 40.2539,-2.886719 11.34962,2.475208 23.63,8.830463 37.54586,22.966971 C 190,112 194,109 195.14673,106.18338 c 12.46619,-31.592945 25.81402,-55.575637 38.98413,-72.181427 7.73691,-9.755233 15.40822,-16.992218 23.01562,-21.697265 -3.79433,-0.465306 -7.6,-0.813747 -11.41015,-1.039063 -3.55233,-0.21007 -7.10769,-0.317082 -10.65821,-0.318359 z m 40.9043,5.167968 c -0.96277,0.01637 -1.95903,0.115646 -2.99219,0.302735 -2.75507,0.498902 -5.76633,1.621662 -9.07226,3.490234 -6.61187,3.737144 -14.14666,10.463195 -21.95508,20.308594 -12.0507,15.194364 -24.72639,38.087036 -36.72526,68.210273 -2.17536,4.55928 2.17009,8.63339 6.58259,6.91086 18.17494,-6.07276 32.7939,-5.34638 45.57236,-0.77938 11.34984,4.05641 21.36876,11.35999 30.6567,20.24871 2.00504,2.46376 7.89639,3.55216 9.14391,-2.96879 4.95523,-30.74453 5.99006,-55.758124 3.85564,-74.311166 -1.47259,-12.800248 -4.37736,-22.634674 -8.0625,-29.351563 -3.37894,-6.158781 -7.2163,-9.594056 -11.33985,-11.113281 -0.97765,-0.263158 -1.95789,-0.517743 -2.93945,-0.763672 -0.87689,-0.13533 -1.78396,-0.199583 -2.72461,-0.183594 z m 26.08789,7.84375 c 4.40155,8.268001 7.37649,19.058753 8.91407,32.423828 2.33604,20.30563 1.32946,46.601888 -3.97529,78.885068 -1.20254,4.83358 2.69262,7.98155 6.78248,6.50757 33.94768,-10.16347 58.43928,0.78727 77.44866,22.51557 3.18989,3.63731 9.17129,1.07649 8.74024,-3.74219 C 393.60756,90.021884 352.45073,44.605954 302.07031,23.958984 Z"
       id="path5515"
       transform="scale(0.26458333)"
       inkscape:connector-curvature="0"
       sodipodi:nodetypes="sccsccscsscsssccsccssccccccccccc" />
    <path
       style="color:#000000;font-style:normal;font-variant:normal;font-weight:normal;font-stretch:normal;font-size:medium;line-height:normal;font-family:sans-serif;font-variant-ligatures:normal;font-variant-position:normal;font-variant-caps:normal;font-variant-numeric:normal;font-variant-alternates:normal;font-feature-settings:normal;text-indent:0;text-align:start;text-decoration:none;text-decoration-line:none;text-decoration-style:solid;text-decoration-color:#000000;letter-spacing:normal;word-spacing:normal;text-transform:none;writing-mode:lr-tb;direction:ltr;text-orientation:mixed;dominant-baseline:auto;baseline-shift:baseline;text-anchor:start;white-space:normal;shape-padding:0;clip-rule:nonzero;display:inline;overflow:visible;visibility:visible;opacity:1;isolation:auto;mix-blend-mode:normal;color-interpolation:sRGB;color-interpolation-filters:linearRGB;solid-color:#000000;solid-opacity:1;vector-effect:none;fill:#000000;fill-opacity:1;fill-rule:nonzero;stroke:none;stroke-width:7.4083333;stroke-linecap:butt;stroke-linejoin:round;stroke-miterlimit:4;stroke-dasharray:none;stroke-dashoffset:0;stroke-opacity:1;color-rendering:auto;image-rendering:auto;shape-rendering:auto;text-rendering:auto;enable-background:accumulate"
       d="m 0,91.80989 v 7.40821 h 1.3222656 c -1.39788357,0 -0.3336758,-0.01073 0.3847656,0.29101 0.7184415,0.30175 1.6875001,0.75182 2.6796876,1.21484 0.9921874,0.46303 2.008155,0.93925 2.9433593,1.33204 3.4302899,1.25175 6.1865469,1.28625 9.1484379,0.004 0.937136,-0.39349 1.954332,-0.87014 2.947265,-1.33398 0.992934,-0.46385 1.963044,-0.91453 2.681641,-1.2168 1.440495,-0.555043 1.969661,-0.555043 3.412109,-0.0019 0.718442,0.30174 1.6875,0.75182 2.679688,1.21484 0.992187,0.46302 2.008155,0.93925 2.943359,1.33203 3.435897,1.25521 6.188493,1.28377 9.152344,0 0.935204,-0.39278 1.951172,-0.86901 2.943359,-1.33203 0.992188,-0.46302 1.961246,-0.9131 2.679688,-1.21484 1.177864,-0.553143 1.971614,-0.553143 3.414062,0 0.718434,0.30178 1.6875,0.75372 2.679688,1.21679 0.992187,0.46308 2.008148,0.9392 2.943359,1.33204 3.43459,1.25163 6.189839,1.28293 9.152344,0 0.935204,-0.39279 1.951172,-0.86901 2.943359,-1.33204 0.992188,-0.46302 1.961246,-0.91309 2.679688,-1.21484 1.177864,-0.555093 1.971614,-0.555093 3.414062,0 0.718442,0.30175 1.6875,0.75182 2.679688,1.21484 0.992187,0.46303 2.008155,0.93925 2.943359,1.33204 3.434567,1.25159 6.189876,1.28291 9.152344,0 0.935204,-0.39279 1.951172,-0.86901 2.943359,-1.33204 0.992188,-0.46302 1.961246,-0.91309 2.679688,-1.21484 0.648698,-0.29051 0.913281,-0.29051 1.707031,-0.29101 v -7.40821 c -1.6694,-0.201348 -3.376655,0.349592 -4.576172,0.86914 -0.935204,0.39279 -1.951172,0.86706 -2.943359,1.33008 -0.992188,0.46302 -1.961246,0.9131 -2.679688,1.21484 -1.372186,0.46865 -2.083087,0.527321 -3.414062,0 -0.718442,-0.30174 -1.6875,-0.75182 -2.679688,-1.21484 -0.992187,-0.46302 -2.008155,-0.93729 -2.943359,-1.33008 -2.662423,-1.211957 -6.139553,-1.265097 -9.152344,0 -0.935204,0.39279 -1.951172,0.86706 -2.943359,1.33008 -0.992188,0.46302 -1.961246,0.9131 -2.679688,1.21484 -1.37217,0.468669 -2.083387,0.527251 -3.414062,0 -0.718434,-0.30177 -1.6875,-0.75176 -2.679688,-1.21484 -0.992187,-0.46308 -2.008148,-0.93919 -2.943359,-1.33203 -2.659233,-1.208959 -6.143668,-1.26295 -9.152344,0 -0.935204,0.39279 -1.951172,0.86901 -2.943359,1.33203 -0.992188,0.46302 -1.961246,0.9131 -2.679688,1.21484 -1.372186,0.46865 -2.083087,0.527321 -3.414062,0 -0.718442,-0.30174 -1.6875,-0.75182 -2.679688,-1.21484 -0.992187,-0.46302 -2.008155,-0.93924 -2.943359,-1.33203 -2.123643,-0.914114 -3.253255,-0.866753 -4.568275,-0.86719 -1.330814,4.37e-4 -3.384108,0.347799 -4.586022,0.86914 -0.935269,0.39341 -1.951037,0.87043 -2.943359,1.33399 -0.992322,0.46356 -1.961197,0.91316 -2.679688,1.21484 -1.355687,0.461707 -2.053293,0.534718 -3.412109,-0.0039 C 9.4807773,94.92221 8.5117187,94.47213 7.5195312,94.00911 6.5273438,93.54609 5.5113762,93.07182 4.5761719,92.67903 2.4502982,91.762243 2.2243244,91.80989 0,91.80989 Z"
       id="path5461"
       inkscape:connector-curvature="0"
       sodipodi:nodetypes="ccccccccccsccsccccccccccccccccsccsccsccsccsccscccsccscc" />
    <path
       style="opacity:1;vector-effect:none;fill:#000000;fill-opacity:0.96956524;stroke:none;stroke-width:27.83283234;stroke-linecap:round;stroke-linejoin:round;stroke-miterlimit:4;stroke-dasharray:none;stroke-dashoffset:0;stroke-opacity:0.55707762"
       d="m 184.46484,267 c -64.6869,0.0354 -125.030845,21.88479 -160.660152,58.17188 1.53665,0.70739 3.081622,1.42493 4.615234,2.14062 3.75,1.75 7.413536,3.45117 10.128906,4.5918 5.451173,2.0957 8.451173,2.09571 12.896484,0.0156 2.715557,-1.14023 6.376445,-2.83976 10.126954,-4.5918 3.750508,-1.75203 7.590125,-3.55606 11.125,-5.04296 12.984862,-4.73783 23.396529,-4.85669 34.597654,-0.006 3.53463,1.48454 7.375,3.2832 11.125,5.0332 3.75,1.75 7.41354,3.45134 10.12891,4.5918 5.45117,2.09573 7.45117,2.09573 12.90234,0 2.71537,-1.14046 6.37891,-2.8418 10.12891,-4.5918 3.75,-1.75 7.59037,-3.54866 11.125,-5.0332 12.98037,-4.73027 23.39473,-4.8488 34.58984,0 3.53466,1.48474 7.375,3.28299 11.125,5.0332 3.75,1.75022 7.41357,3.45121 10.12891,4.5918 5.45117,2.09587 7.45117,2.09587 12.90234,0 2.71537,-1.14046 6.37891,-2.8418 10.12891,-4.5918 3.75,-1.75 7.59037,-3.54866 11.125,-5.0332 12.98058,-4.73045 23.39416,-4.84847 34.58984,0 3.53463,1.48454 7.375,3.2832 11.125,5.0332 3.75,1.75 7.41354,3.45134 10.12891,4.5918 4.45117,2.09587 6.45117,2.09587 12.90234,0 2.71537,-1.14046 6.37891,-2.8418 10.12891,-4.5918 3.59956,-1.6798 7.27567,-3.39699 10.6914,-4.8457 C 306.29997,287.76886 247.3868,267.0617 184.46484,267 Z"
       transform="scale(0.26458333)"
       id="path5489"
       inkscape:connector-curvature="0"
       sodipodi:nodetypes="ccccccccsccscccccsccsccccc" />
    <path
       id="path5497"
       style="opacity:1;vector-effect:none;fill:#000000;fill-opacity:0.96956524;stroke:none;stroke-width:0.26458332;stroke-linecap:round;stroke-linejoin:round;stroke-miterlimit:4;stroke-dasharray:none;stroke-dashoffset:0;stroke-opacity:0.55707762"
       d="m 25.53632,44.91235 a 7.9375,7.9375 0 0 1 -7.9375,7.9375 7.9375,7.9375 0 0 1 -7.9375003,-7.9375 7.9375,7.9375 0 0 1 7.9375003,-7.9375 7.9375,7.9375 0 0 1 7.9375,7.9375 z m -11.833195,-14.691647 -2.976563,6.972656 -6.9531245,1.88086 3.4296875,6.371093 -2.8925781,6.777344 7.2597651,1.335938 3.472657,6.447265 5.466797,-4.804687 7.146484,1.314453 -0.332031,-7.302734 5.429687,-4.771485 -5.845703,-4.363281 -0.326172,-7.175781 -6.816406,1.84375 z"
       inkscape:connector-curvature="0" />
    <rect
       style="opacity:1;vector-effect:none;fill:#000000;fill-opacity:0.96956524;stroke:none;stroke-width:0.26458332;stroke-linecap:round;stroke-linejoin:round;stroke-miterlimit:4;stroke-dasharray:none;stroke-dashoffset:0;stroke-opacity:0.55707762"
       id="rect5505"
       width="4.4979115"
       height="42.333332"
       x="70.203941"
       y="15.045053"
       transform="rotate(15)" />
  </g>
</svg>
