<?xml version="1.0" encoding="UTF-8" standalone="no"?>
<svg
   enable-background="new 0 0 424.98 424.98"
   height="424.98"
   viewBox="0 0 424.98 424.98"
   width="424.98"
   version="1.1"
   id="svg50"
   sodipodi:docname="indicators.svg"
   inkscape:version="1.1 (c4e8f9ed74, 2021-05-24)"
   xmlns:inkscape="http://www.inkscape.org/namespaces/inkscape"
   xmlns:sodipodi="http://sodipodi.sourceforge.net/DTD/sodipodi-0.dtd"
   xmlns="http://www.w3.org/2000/svg"
   xmlns:svg="http://www.w3.org/2000/svg"
   xmlns:rdf="http://www.w3.org/1999/02/22-rdf-syntax-ns#"
   xmlns:cc="http://creativecommons.org/ns#"
   xmlns:dc="http://purl.org/dc/elements/1.1/">
  <metadata
     id="metadata56">
    <rdf:RDF>
      <cc:Work
         rdf:about="">
        <dc:format>image/svg+xml</dc:format>
        <dc:type
           rdf:resource="http://purl.org/dc/dcmitype/StillImage" />
      </cc:Work>
    </rdf:RDF>
  </metadata>
  <defs
     id="defs54" />
  <sodipodi:namedview
     pagecolor="#ffffff"
     bordercolor="#666666"
     borderopacity="1"
     objecttolerance="10"
     gridtolerance="10"
     guidetolerance="10"
     inkscape:pageopacity="0"
     inkscape:pageshadow="2"
     inkscape:window-width="1678"
     inkscape:window-height="845"
     id="namedview52"
     showgrid="false"
     inkscape:zoom="1.1106405"
     inkscape:cx="305.22929"
     inkscape:cy="369.15637"
     inkscape:window-x="12"
     inkscape:window-y="10"
     inkscape:window-maximized="0"
     inkscape:current-layer="svg50"
     inkscape:pagecheckerboard="0" />
  <path
     d="M 411.01004,318.36737 H 53.673983 V 66.908663 c 0,-7.312154 -5.922514,-13.234668 -13.234668,-13.234668 H 13.969977 c -7.3121542,0 -13.23466834,5.922514 -13.23466834,13.234668 V 344.83668 c 0,14.61604 11.85330034,26.46934 26.46933734,26.46934 H 411.01004 c 7.31215,0 13.23467,-5.92252 13.23467,-13.23467 v -26.46934 c 0,-7.31213 -5.92252,-13.23464 -13.23467,-13.23464 z M 384.5407,80.143332 h -97.65531 c -17.68483,0 -26.54378,21.382258 -14.03702,33.889028 l 26.8002,26.8002 -60.68922,60.6975 -60.68923,-60.68923 c -10.33959,-10.33958 -27.09798,-10.33958 -37.4293,0 l -56.818088,56.81809 c -5.169792,5.16979 -5.169792,13.54899 0,18.71878 l 18.710508,18.71051 c 5.1698,5.1698 13.549,5.1698 18.71879,0 l 38.09931,-38.10757 60.68922,60.68923 c 10.33959,10.33958 27.09799,10.33958 37.4293,0 l 79.40801,-79.40801 26.8002,26.8002 c 12.50677,12.50676 33.88903,3.64781 33.88903,-14.03702 V 93.378 c 0.008,-7.312154 -5.91424,-13.234668 -13.2264,-13.234668 z"
     id="path2"
     style="stroke-width:0.827167" />
</svg>
