<?xml version="1.0" encoding="UTF-8" standalone="no"?>
<svg
   xmlns:dc="http://purl.org/dc/elements/1.1/"
   xmlns:cc="http://creativecommons.org/ns#"
   xmlns:rdf="http://www.w3.org/1999/02/22-rdf-syntax-ns#"
   xmlns:svg="http://www.w3.org/2000/svg"
   xmlns="http://www.w3.org/2000/svg"
   xmlns:sodipodi="http://sodipodi.sourceforge.net/DTD/sodipodi-0.dtd"
   xmlns:inkscape="http://www.inkscape.org/namespaces/inkscape"
   height="400"
   viewBox="0 0 105.83333 105.83333"
   width="400"
   version="1.1"
   id="svg34"
   sodipodi:docname="mobileoperators.svg"
   inkscape:version="0.92.4 5da689c313, 2019-01-14">
  <metadata
     id="metadata40">
    <rdf:RDF>
      <cc:Work
         rdf:about="">
        <dc:format>image/svg+xml</dc:format>
        <dc:type
           rdf:resource="http://purl.org/dc/dcmitype/StillImage" />
      </cc:Work>
    </rdf:RDF>
  </metadata>
  <defs
     id="defs38" />
  <sodipodi:namedview
     pagecolor="#ffffff"
     bordercolor="#666666"
     borderopacity="1"
     objecttolerance="10"
     gridtolerance="10"
     guidetolerance="10"
     inkscape:pageopacity="0"
     inkscape:pageshadow="2"
     inkscape:window-width="1920"
     inkscape:window-height="1017"
     id="namedview36"
     showgrid="false"
     inkscape:zoom="0.59"
     inkscape:cx="229.09866"
     inkscape:cy="117.09529"
     inkscape:window-x="0"
     inkscape:window-y="27"
     inkscape:window-maximized="1"
     inkscape:current-layer="svg34" />
  <path
     d="m 24.949516,42.338099 h 5.575376 c 1.819889,0 3.076126,-1.790136 2.456273,-3.500932 -0.814901,-2.244696 -1.247972,-4.624933 -1.247972,-7.0779 0,-2.452967 0.433071,-4.833204 1.247972,-7.077901 0.621507,-1.710795 -0.636384,-3.500933 -2.456273,-3.500933 h -5.575376 c -1.158712,0 -2.22486,0.742172 -2.547184,1.856255 -0.80829,2.806697 -1.244666,5.727446 -1.244666,8.722579 0,2.995132 0.436376,5.915881 1.246318,8.720926 0.320672,1.114083 1.38682,1.857906 2.545532,1.857906 z M 14.86326,14.459569 c 0.93226,-1.755425 -0.322324,-3.857968 -2.307507,-3.857968 H 6.715906 c -1.036395,0 -2.0066723,0.593406 -2.4364375,1.53889 C 1.5537661,18.129102 0,24.759055 0,31.759267 0,35.8503 0.5157181,43.053824 4.4117039,51.406144 c 0.433071,0.930606 1.3917777,1.510789 2.4149492,1.510789 h 5.7588519 c 1.986837,0 3.241421,-2.105849 2.305855,-3.862928 -8.2283482,-15.42526 -2.762067,-29.447172 -0.0281,-34.594436 z m 86.63733,-2.322384 c -0.42976,-0.94383 -1.39838,-1.535584 -2.434778,-1.535584 h -5.854723 c -1.980225,0 -3.249685,2.092625 -2.317426,3.843092 3.019926,5.66794 8.003549,19.73944 0.04629,34.584519 -0.945483,1.765342 0.297529,3.887721 2.299243,3.887721 h 5.823317 c 1.036397,0 2.005017,-0.591753 2.434777,-1.535584 2.73232,-5.988611 4.29103,-12.620217 4.29103,-19.622082 0,-7.001865 -1.55707,-13.633471 -4.28773,-19.622082 z m -20.661777,9.043248 h -5.575376 c -1.81989,0 -3.076126,1.790138 -2.456272,3.500933 0.814901,2.244697 1.247972,4.624934 1.247972,7.077901 0,2.452967 -0.433071,4.833204 -1.247972,7.0779 -0.621507,1.710796 0.636382,3.500932 2.456272,3.500932 h 5.575376 c 1.160365,0 2.224861,-0.74217 2.547185,-1.857906 0.809942,-2.805045 1.244666,-5.725794 1.244666,-8.720926 0,-2.995133 -0.436378,-5.915882 -1.246319,-8.720926 -0.320671,-1.115736 -1.386819,-1.857908 -2.545532,-1.857908 z M 61.61509,37.729696 c 1.165325,-1.700878 1.851296,-3.753833 1.851296,-5.970429 0,-5.843152 -4.732375,-10.578834 -10.572222,-10.578834 -5.838193,0 -10.57222,4.735682 -10.57222,10.578834 0,2.216596 0.685971,4.269551 1.851296,5.970429 L 22.602338,89.534571 c -0.562001,1.347149 0.07603,2.895956 1.423184,3.457956 l 4.877833,2.034773 c 1.347148,0.562 2.895956,-0.07603 3.456304,-1.423184 l 8.130824,-19.529517 h 24.80571 l 8.132478,19.529517 c 0.562001,1.348802 2.109155,1.985184 3.456304,1.423184 l 4.877833,-2.034773 c 1.347148,-0.562 1.983531,-2.110807 1.423184,-3.457956 z m -16.717861,25.766069 7.996935,-19.20554 7.996937,19.20554 z"
     class=""
     id="path32"
     inkscape:connector-curvature="0"
     style="fill:#000000;stroke-width:0.16529426" />
</svg>
