<?xml version="1.0" encoding="UTF-8" standalone="no"?>
<svg
   viewBox="0 0 576 512"
   version="1.1"
   id="svg1"
   sodipodi:docname="monitors.svg"
   inkscape:version="1.4 (e7c3feb100, 2024-10-09)"
   xml:space="preserve"
   xmlns:inkscape="http://www.inkscape.org/namespaces/inkscape"
   xmlns:sodipodi="http://sodipodi.sourceforge.net/DTD/sodipodi-0.dtd"
   xmlns="http://www.w3.org/2000/svg"
   xmlns:svg="http://www.w3.org/2000/svg"><defs
     id="defs1" /><sodipodi:namedview
     id="namedview1"
     pagecolor="#ffffff"
     bordercolor="#000000"
     borderopacity="0.25"
     inkscape:showpageshadow="2"
     inkscape:pageopacity="0.0"
     inkscape:pagecheckerboard="0"
     inkscape:deskcolor="#d1d1d1"
     inkscape:zoom="0.067327063"
     inkscape:cx="-2562.1198"
     inkscape:cy="-89.11721"
     inkscape:window-width="1920"
     inkscape:window-height="1008"
     inkscape:window-x="0"
     inkscape:window-y="0"
     inkscape:window-maximized="1"
     inkscape:current-layer="svg1" /><path
     d="M528 0H48C21.5 0 0 21.5 0 48v320c0 26.5 21.5 48 48 48h192l-16 48h-72c-13.3 0-24 10.7-24 24s10.7 24 24 24h272c13.3 0 24-10.7 24-24s-10.7-24-24-24h-72l-16-48h192c26.5 0 48-21.5 48-48V48c0-26.5-21.5-48-48-48zm-16 352H64V64h448v288z"
     id="path1" /><path
     d="m 395.4521,284.41859 c -46.24497,-67.04149 -54.82889,-73.922 -54.82889,-98.56075 0,-33.74975 27.35938,-61.10913 61.10913,-61.10913 33.74974,0 61.10913,27.35938 61.10913,61.10913 0,24.63875 -8.58392,31.51926 -54.82889,98.56075 -3.03477,4.38394 -9.52603,4.38362 -12.56048,0 z m 6.28024,-73.09862 c 14.06242,0 25.46214,-11.39971 25.46214,-25.46213 0,-14.06242 -11.39972,-25.46214 -25.46214,-25.46214 -14.06242,0 -25.46214,11.39972 -25.46214,25.46214 0,14.06242 11.39972,25.46213 25.46214,25.46213 z"
     id="path1-6"
     style="stroke-width:0.318277" /><path
     d="M 86.288154,252.37803 H 210.25102 a 6.0578024,6.0578024 0 0 0 6.06252,-6.06252 V 228.1988 a 6.0578024,6.0578024 0 0 0 -6.06252,-6.06253 H 86.288154 a 6.0578024,6.0578024 0 0 0 -6.062528,6.06253 v 18.11671 a 6.0578024,6.0578024 0 0 0 6.062528,6.06252 z m 0,-120.96703 H 210.25102 a 6.0578024,6.0578024 0 0 0 6.06252,-6.06253 v -18.1167 a 6.0578024,6.0578024 0 0 0 -6.06252,-6.06253 H 86.288154 a 6.0578024,6.0578024 0 0 0 -6.062528,6.06253 v 18.1167 a 6.0578024,6.0578024 0 0 0 6.062528,6.06253 z M 284.3575,161.65276 H 87.786066 a 7.5604398,7.5604398 0 0 0 -7.56044,7.56044 v 15.12088 a 7.5604398,7.5604398 0 0 0 7.56044,7.56044 H 284.3575 a 7.5604398,7.5604398 0 0 0 7.56044,-7.56044 V 169.2132 a 7.5604398,7.5604398 0 0 0 -7.56044,-7.56044 z m 0,120.96703 H 87.786066 a 7.5604398,7.5604398 0 0 0 -7.56044,7.56044 v 15.12088 a 7.5604398,7.5604398 0 0 0 7.56044,7.56044 H 284.3575 a 7.5604398,7.5604398 0 0 0 7.56044,-7.56044 v -15.12088 a 7.5604398,7.5604398 0 0 0 -7.56044,-7.56044 z"
     id="path1-2"
     style="stroke-width:0.472527" /></svg>
