<?xml version="1.0" encoding="UTF-8" standalone="no"?>
<!-- Generator: Adobe Illustrator 16.0.0, SVG Export Plug-In . SVG Version: 6.00 Build 0)  -->

<svg
   xmlns:dc="http://purl.org/dc/elements/1.1/"
   xmlns:cc="http://creativecommons.org/ns#"
   xmlns:rdf="http://www.w3.org/1999/02/22-rdf-syntax-ns#"
   xmlns:svg="http://www.w3.org/2000/svg"
   xmlns="http://www.w3.org/2000/svg"
   xmlns:sodipodi="http://sodipodi.sourceforge.net/DTD/sodipodi-0.dtd"
   xmlns:inkscape="http://www.inkscape.org/namespaces/inkscape"
   version="1.1"
   id="Capa_1"
   x="0px"
   y="0px"
   width="424.98px"
   height="424.98px"
   viewBox="0 0 424.98 424.98"
   style="enable-background:new 0 0 424.98 424.98;"
   xml:space="preserve"
   sodipodi:docname="permissions.svg"
   inkscape:export-filename="/home/emerson/www/grupomm/public/images/adm/icons/permissions.png"
   inkscape:export-xdpi="96"
   inkscape:export-ydpi="96"
   inkscape:version="0.92.2 2405546, 2018-03-11"><metadata
   id="metadata69"><rdf:RDF><cc:Work
       rdf:about=""><dc:format>image/svg+xml</dc:format><dc:type
         rdf:resource="http://purl.org/dc/dcmitype/StillImage" /><dc:title /></cc:Work></rdf:RDF></metadata><defs
   id="defs67"><style
     type="text/css"
     id="style6">
    .fil0 {fill:black}
  </style><style
     type="text/css"
     id="style6-3">
    .fil0 {fill:black}
  </style></defs><sodipodi:namedview
   pagecolor="#ffffff"
   bordercolor="#666666"
   borderopacity="1"
   objecttolerance="10"
   gridtolerance="10"
   guidetolerance="10"
   inkscape:pageopacity="0"
   inkscape:pageshadow="2"
   inkscape:window-width="1366"
   inkscape:window-height="704"
   id="namedview65"
   showgrid="true"
   inkscape:zoom="0.55532024"
   inkscape:cx="-156.18167"
   inkscape:cy="267.20334"
   inkscape:window-x="0"
   inkscape:window-y="27"
   inkscape:window-maximized="1"
   inkscape:current-layer="layer2"><inkscape:grid
     type="xygrid"
     id="grid3808"
     dotted="true" /></sodipodi:namedview>

<g
   id="g34">
</g>
<g
   id="g36">
</g>
<g
   id="g38">
</g>
<g
   id="g40">
</g>
<g
   id="g42">
</g>
<g
   id="g44">
</g>
<g
   id="g46">
</g>
<g
   id="g48">
</g>
<g
   id="g50">
</g>
<g
   id="g52">
</g>
<g
   id="g54">
</g>
<g
   id="g56">
</g>
<g
   id="g58">
</g>
<g
   id="g60">
</g>
<g
   id="g62">
</g>
<g
   inkscape:groupmode="layer"
   id="layer1"
   inkscape:label="Fundo"
   style="display:inline" /><g
   inkscape:groupmode="layer"
   id="layer2"
   inkscape:label="Desenho"
   style="display:inline;opacity:1"><g
     style="clip-rule:evenodd;fill-rule:evenodd;image-rendering:optimizeQuality;shape-rendering:geometricPrecision;text-rendering:geometricPrecision"
     id="g151"
     transform="matrix(35.441442,0,0,35.441396,61.863877,17.562327)"><g
       id="Layer_x0020_1-6">
  <path
   d="M 4.25,1.3382 0.4955,2.4662 C 0.58759,5.2588 1.2884,8.6655 4.25,9.6618 7.2442,8.694 7.8774,5.2291 8.0045,2.4662 Z"
   style="fill:#000000"
   sodipodi:nodetypes="ccccc"
   id="path10"
   inkscape:connector-curvature="0" />
 </g></g><g
     style="clip-rule:evenodd;fill-rule:evenodd;image-rendering:optimizeQuality;shape-rendering:geometricPrecision;text-rendering:geometricPrecision"
     id="g85"
     transform="matrix(51.059638,0,0,51.059638,-4.513456,-68.347992)"><g
       id="Layer_x0020_1">
  
 </g></g><g
     transform="matrix(42.649815,0,0,42.649815,31.228292,-22.083977)"
     id="g91"
     style="clip-rule:evenodd;fill:#ffffff;fill-rule:evenodd;image-rendering:optimizeQuality;shape-rendering:geometricPrecision;text-rendering:geometricPrecision"><g
       id="g89"
       style="fill:#ffffff">
  <path
   id="path87"
   style="fill:#000000"
   d="M 4.25,1.3382 0.4955,2.4662 C 0.58759,5.2588 1.2884,8.6655 4.25,9.6618 7.2442,8.694 7.8774,5.2291 8.0045,2.4662 Z m 0,-0.82087085 -4.49482398,1.35042255 C -0.13457539,5.2110052 0.70442251,9.2894489 4.25,10.482202 7.8346057,9.3235686 8.592662,5.1754489 8.744824,1.8677517 Z" />
 </g></g><g
     aria-label="✔"
     style="font-style:normal;font-weight:normal;font-size:241.94406128px;line-height:1.25;font-family:sans-serif;letter-spacing:0px;word-spacing:0px;fill:#ffffff;fill-opacity:1;stroke:none;stroke-width:6.04860163"
     id="text155"
     transform="translate(-4.0796345,15.371175)"><path
       d="m 168.84239,190.14876 q 4.60734,0 6.97007,7.56075 4.72547,14.17641 6.7338,14.17641 1.53577,0 3.18969,-2.36273 33.19643,-48.79048 61.43111,-69.46441 11.93181,-8.74212 23.27294,-8.74212 15.00336,0 18.07492,0.9451 1.2995,0.35441 1.2995,2.95341 0,2.12647 -2.71714,5.31616 -75.96193,87.18492 -90.49275,113.41128 -4.96174,8.97839 -22.91853,8.97839 -5.90684,0 -12.40436,-3.07156 -2.71714,-1.41764 -9.45094,-18.07492 -8.50584,-21.02834 -8.50584,-36.85866 0,-5.7887 8.26957,-9.56908 11.34113,-5.19802 17.01169,-5.19802 z"
       style="fill:#ffffff;stroke-width:6.04860163"
       id="path157"
       inkscape:connector-curvature="0" /></g></g></svg>