<?xml version="1.0" encoding="UTF-8" standalone="no"?>
<svg
   xmlns:dc="http://purl.org/dc/elements/1.1/"
   xmlns:cc="http://creativecommons.org/ns#"
   xmlns:rdf="http://www.w3.org/1999/02/22-rdf-syntax-ns#"
   xmlns:svg="http://www.w3.org/2000/svg"
   xmlns="http://www.w3.org/2000/svg"
   xmlns:sodipodi="http://sodipodi.sourceforge.net/DTD/sodipodi-0.dtd"
   xmlns:inkscape="http://www.inkscape.org/namespaces/inkscape"
   width="400"
   height="400"
   viewBox="0 0 105.83333 105.83333"
   version="1.1"
   id="svg8"
   inkscape:version="1.0.2 (e86c870879, 2021-01-15)"
   sodipodi:docname="systemactions.svg">
  <defs
     id="defs2" />
  <sodipodi:namedview
     id="base"
     pagecolor="#ffffff"
     bordercolor="#666666"
     borderopacity="1.0"
     inkscape:pageopacity="0.0"
     inkscape:pageshadow="2"
     inkscape:zoom="0.24748737"
     inkscape:cx="461.66948"
     inkscape:cy="393.40804"
     inkscape:document-units="mm"
     inkscape:current-layer="layer2"
     showgrid="true"
     units="px"
     showguides="true"
     inkscape:guide-bbox="true"
     inkscape:window-width="1920"
     inkscape:window-height="1015"
     inkscape:window-x="0"
     inkscape:window-y="0"
     inkscape:window-maximized="1"
     borderlayer="true"
     inkscape:document-rotation="0">
    <inkscape:grid
       type="xygrid"
       id="grid5555"
       dotted="true" />
  </sodipodi:namedview>
  <metadata
     id="metadata5">
    <rdf:RDF>
      <cc:Work
         rdf:about="">
        <dc:format>image/svg+xml</dc:format>
        <dc:type
           rdf:resource="http://purl.org/dc/dcmitype/StillImage" />
        <dc:title></dc:title>
      </cc:Work>
    </rdf:RDF>
  </metadata>
  <g
     inkscape:groupmode="layer"
     id="layer2"
     inkscape:label="Desenho"
     style="display:inline;opacity:1">
    <path
       cx="53.011158"
       cy="36.285713"
       r="21.166664"
       id="path5657"
       style="opacity:1;vector-effect:none;fill:none;fill-opacity:1;stroke:#ff0000;stroke-width:4.76249981;stroke-linecap:round;stroke-linejoin:round;stroke-miterlimit:4;stroke-dasharray:none;stroke-dashoffset:0;stroke-opacity:0.55707762"
       d=""
       inkscape:connector-curvature="0" />
    <path
       d="M 100.54167,63.499998 H 89.958331 v 10.583338 h 3.70417 c 0.87643,0 1.5875,0.595313 1.5875,1.322913 v 2.645837 c 0,0.7276 -0.71107,1.322913 -1.5875,1.322913 H 12.170836 c -0.876433,0 -1.587501,-0.595313 -1.587501,-1.322913 v -2.645837 c 0,-0.7276 0.711068,-1.322913 1.587501,-1.322913 h 3.704166 V 63.499998 H 5.2916692 c -2.926953,0 -5.2916670333333,2.364719 -5.2916670333333,5.291669 v 15.875001 c 0,2.92695 2.3647140333333,5.291667 5.2916670333333,5.291667 H 100.54167 c 2.92695,0 5.29166,-2.364717 5.29166,-5.291667 V 68.791667 c 0,-2.92695 -2.36471,-5.291669 -5.29166,-5.291669 z M 84.666671,74.083336 V 21.216275 c 0,-2.960026 -2.39779,-5.341276 -5.34127,-5.341276 H 26.524482 c -2.960026,0 -5.357813,2.397786 -5.357813,5.341276 V 74.083336 Z M 34.925003,43.986979 39.1418,39.803255 c 0.694531,-0.694532 1.819011,-0.694532 2.513542,0.01654 l 6.829557,6.879166 15.742712,-15.610417 c 0.69453,-0.694531 1.81901,-0.694531 2.51354,0.01654 l 4.18372,4.216798 c 0.69453,0.694531 0.69453,1.81901 -0.0166,2.513542 l -21.21621,21.034368 c -0.694531,0.694531 -1.819011,0.694531 -2.513542,-0.01654 L 34.925003,46.50052 c -0.711068,-0.694531 -0.694531,-1.81901 0,-2.513541 z"
       id="path2"
       style="stroke-width:0.165364" />
  </g>
</svg>
