<?xml version="1.0" encoding="UTF-8" standalone="no"?>
<svg
   xmlns:dc="http://purl.org/dc/elements/1.1/"
   xmlns:cc="http://creativecommons.org/ns#"
   xmlns:rdf="http://www.w3.org/1999/02/22-rdf-syntax-ns#"
   xmlns:svg="http://www.w3.org/2000/svg"
   xmlns="http://www.w3.org/2000/svg"
   xmlns:sodipodi="http://sodipodi.sourceforge.net/DTD/sodipodi-0.dtd"
   xmlns:inkscape="http://www.inkscape.org/namespaces/inkscape"
   version="1.0"
   width="1280.000000pt"
   height="1275.000000pt"
   viewBox="0 0 1280.000000 1275.000000"
   preserveAspectRatio="xMidYMid meet"
   id="svg52"
   sodipodi:docname="unknown.svg"
   inkscape:version="0.92.4 5da689c313, 2019-01-14"
   inkscape:export-filename="/home/emerson/Imagens/unknown.png"
   inkscape:export-xdpi="11.802353"
   inkscape:export-ydpi="11.802353">
  <defs
     id="defs56" />
  <sodipodi:namedview
     pagecolor="#ffffff"
     bordercolor="#666666"
     borderopacity="1"
     objecttolerance="10"
     gridtolerance="10"
     guidetolerance="10"
     inkscape:pageopacity="0"
     inkscape:pageshadow="2"
     inkscape:window-width="1920"
     inkscape:window-height="1017"
     id="namedview54"
     showgrid="false"
     inkscape:zoom="0.13882353"
     inkscape:cx="-865.40311"
     inkscape:cy="850"
     inkscape:window-x="0"
     inkscape:window-y="27"
     inkscape:window-maximized="1"
     inkscape:current-layer="svg52" />
  <metadata
     id="metadata2">
Created by potrace 1.15, written by Peter Selinger 2001-2017
<rdf:RDF>
  <cc:Work
     rdf:about="">
    <dc:format>image/svg+xml</dc:format>
    <dc:type
       rdf:resource="http://purl.org/dc/dcmitype/StillImage" />
    <dc:title />
  </cc:Work>
</rdf:RDF>
</metadata>
  <path
     style="fill:#183647;stroke:none;stroke-width:0.1;fill-opacity:1"
     inkscape:connector-curvature="0"
     id="path4"
     d="m 600.5,10.1 c -83.7,5.3 -163.9,26.7 -239,63.9 -92.4,45.7 -166.8,107.9 -229.2,191.5 -6.2,8.2 -11.2,15.3 -11,15.7 0.2,0.7 118.8,69.6 120.6,70.1 0.5,0.1 4.2,-4.1 8.2,-9.4 77.7,-101.7 194.1,-170.1 319.9,-187.8 26.6,-3.7 39.1,-4.6 70,-4.6 30.9,0 43.4,0.9 70,4.6 125.7,17.7 241.1,85.4 319.6,187.4 4.2,5.5 8,9.9 8.5,9.8 1.8,-0.5 120.4,-69.4 120.6,-70.1 0.4,-1 -22.8,-31.8 -35,-46.3 C 1077.7,180 1024,134.4 961,96.7 939,83.6 897,62.9 873.5,53.6 809.1,28.3 746.1,14.3 677,10 658.1,8.9 619.7,8.9 600.5,10.1 Z" />
  <path
     style="fill:#234963;stroke:none;stroke-width:0.1;fill-opacity:1"
     inkscape:connector-curvature="0"
     id="path6"
     d="m 609,220.1 c -24.4,1.8 -52.9,6.7 -76.9,13 -11.1,3 -34.4,10.4 -36.8,11.7 -0.6,0.4 9.1,0.8 21.5,0.8 28.1,0.2 59.4,2.9 78.4,7 2.4,0.5 3.9,-0.6 12.4,-8.8 5.3,-5.1 12.8,-12.8 16.6,-17.1 l 7,-7.7 -5.3,0.1 c -3,0.1 -10.6,0.6 -16.9,1 z" />
  <path
     style="fill:#234963;stroke:none;stroke-width:0.1;fill-opacity:1"
     inkscape:connector-curvature="0"
     id="path8"
     d="M 660.4,227.7 C 657,232 649,241.2 642.7,248.1 l -11.6,12.6 6.7,1.8 c 12.3,3.3 38.5,12.5 53.2,18.7 38,16.1 80,41.2 107.8,64.6 l 5.2,4.4 2,-2.4 c 10.9,-12.7 42.6,-57.6 47.9,-67.5 1,-2.1 0.5,-2.5 -9.1,-7.9 C 794,243.9 733.1,225.4 674,220.5 l -7.5,-0.6 z" />
  <path
     style="fill:#234963;stroke:none;stroke-width:0.1;fill-opacity:1"
     inkscape:connector-curvature="0"
     id="path10"
     d="m 438,270.8 c -23.3,12.7 -43.6,26.4 -64.5,43.5 -13.8,11.3 -38.5,34.3 -38.5,35.9 0,0.8 6,0.9 20.3,0.4 30.5,-1.1 26.8,0.6 38.7,-16.9 14.9,-22.2 26.7,-36.8 47.9,-59.6 5.1,-5.6 9.2,-10.1 9,-10.1 -0.2,0 -6,3.1 -12.9,6.8 z" />
  <path
     style="fill:#234963;stroke:none;stroke-width:0.1;fill-opacity:1"
     inkscape:connector-curvature="0"
     id="path12"
     d="m 497,273.8 c 0,1.9 15.3,36.2 16.2,36.2 3.8,0 54.7,-30.8 54.8,-33.1 0,-1.2 -23.3,-3 -46.7,-3.6 -16.6,-0.4 -24.3,-0.3 -24.3,0.5 z" />
  <path
     style="fill:#234963;stroke:none;stroke-width:0.1;fill-opacity:1"
     inkscape:connector-curvature="0"
     id="path14"
     d="m 597,290.1 c -15.7,12.8 -38.4,27.6 -60.1,39.4 -6.8,3.7 -12.5,6.9 -12.7,7 -0.3,0.3 73.7,171.5 74.5,172.5 0.8,0.9 34.3,-16.7 50.3,-26.3 49.4,-29.6 81,-54.8 127.3,-101.5 l 9.9,-9.9 -8.9,-7 C 737.8,332.7 688.4,306.9 639.5,292 c -12.1,-3.7 -32.4,-9.1 -33.5,-8.9 -0.3,0 -4.3,3.2 -9,7 z" />
  <path
     style="fill:#234963;stroke:none;stroke-width:0.1;fill-opacity:1"
     inkscape:connector-curvature="0"
     id="path16"
     d="m 457.8,297.8 c -15.6,17 -35.8,42 -35.8,44.2 0,2 45.6,-11.6 60.2,-17.9 l 4.8,-2 -3,-6.8 c -9.9,-23.1 -12.9,-29.8 -13.7,-30 -0.4,-0.2 -6.1,5.4 -12.5,12.5 z" />
  <path
     style="fill:#234963;stroke:none;stroke-width:0.1;fill-opacity:1"
     inkscape:connector-curvature="0"
     id="path18"
     d="m 874.5,300.2 c -9.9,16.3 -30.1,44.8 -43.6,61.4 l -5.8,7.1 8.6,8.4 c 43.6,42.9 82,102.9 103,160.8 1.8,5.2 3.7,10 4.1,10.7 1.6,2.9 44.4,-45.9 69.3,-79.1 4.2,-5.5 7.9,-10.6 8.3,-11.3 0.8,-1.3 -8.7,-20 -18,-35.3 -28.7,-47.5 -64.9,-87.5 -108.6,-120 -6.6,-4.9 -12.3,-8.9 -12.7,-8.9 -0.5,0 -2.5,2.8 -4.6,6.2 z" />
  <path
     style="fill:#234963;stroke:none;stroke-width:0.1;fill-opacity:1"
     inkscape:connector-curvature="0"
     id="path20"
     d="m 484.5,353.2 c -22.8,8.7 -52.2,16.4 -80.6,21.2 -3.4,0.6 -3.8,1.2 -11.1,14.9 -25.6,47.9 -42.1,102.6 -47.3,157.5 -0.8,8.5 -1.5,16.9 -1.5,18.5 v 2.9 l 13.8,-0.6 c 56.9,-2.8 97.1,-8.9 145.1,-22.2 22.4,-6.2 66.9,-21.8 69.4,-24.3 0.7,-0.7 -72.5,-170.8 -74.1,-172.2 -0.4,-0.3 -6.5,1.6 -13.7,4.3 z" />
  <path
     style="fill:#234963;stroke:none;stroke-width:0.1;fill-opacity:1"
     inkscape:connector-curvature="0"
     id="path22"
     d="m 302.9,388.2 c -33.6,45.5 -57.8,96.4 -70.8,149.3 -1.6,6.6 -3.3,13.6 -3.6,15.6 l -0.7,3.7 8.9,1.6 c 20.3,3.6 47.5,6.9 68.1,8.2 9.2,0.6 11.2,0.4 11.2,-0.7 0,-4.8 2.4,-27.7 4.1,-40.4 6.3,-46.4 21.3,-95.4 41.5,-135.7 L 367,379 h -22.3 c -12.3,0 -25.1,-0.3 -28.3,-0.6 l -5.9,-0.6 z" />
  <path
     style="fill:#234963;stroke:none;stroke-width:0.1;fill-opacity:1"
     inkscape:connector-curvature="0"
     id="path24"
     d="M 793.2,404 C 747,452.4 690.3,494.3 626.8,527 l -16.6,8.5 39.9,92 c 21.9,50.6 40.5,93.5 41.4,95.3 l 1.5,3.2 23.7,-11.9 c 73.8,-37.2 135.8,-80.2 195,-135.1 l 7.2,-6.7 -3.9,-11.4 C 898.1,510.2 871.2,462.3 837.5,422.4 829,412.3 808.1,390 807.2,390 c -0.4,0 -6.7,6.3 -14,14 z" />
  <path
     style="fill:#183647;stroke:none;stroke-width:0.1;fill-opacity:1"
     inkscape:connector-curvature="0"
     id="path26"
     d="M 50.6,414.5 C 29.1,470.7 16.4,527.6 10.8,592 c -2.7,31.4 -1.4,86.3 2.8,122.5 17,146.2 88.6,286.7 196.6,386.2 100.2,92.4 219.4,147.7 354.6,164.8 l 5.2,0.7 -0.2,-70.8 -0.3,-70.7 -14,-2.4 c -82.8,-14 -162.3,-50.9 -230,-106.7 -14.4,-11.8 -49.8,-47.1 -61.4,-61.1 -66.2,-80 -103.6,-170.7 -113.2,-274.5 -1.6,-17.3 -1.6,-63.5 0,-81 3.5,-38.2 11,-75.7 22,-109.9 2.2,-6.9 3.8,-12.8 3.5,-13.2 -0.2,-0.4 -2.3,-1.8 -4.7,-3.1 -7.5,-4.3 -111.1,-64 -114.3,-65.9 L 54.3,405 Z" />
  <path
     style="fill:#183647;stroke:none;stroke-width:0.1;fill-opacity:1"
     inkscape:connector-curvature="0"
     id="path28"
     d="m 1165.2,440 c -33.2,19.1 -60.8,35.2 -61.3,35.7 -0.6,0.6 -0.1,3.2 1.1,6.9 11,31.4 19.8,73.1 23.6,111.5 2,20.1 2.3,66.5 0.5,85.9 -10.8,116.8 -57.9,219.5 -138.6,301.9 -72.6,74.1 -166.2,123.5 -266,140.4 l -14,2.4 -0.3,70.7 -0.2,70.8 5.2,-0.7 c 113.2,-14.3 215.9,-55.8 304.8,-123.1 133.5,-101.1 220.7,-248.5 244.4,-413.4 4.7,-32.2 6,-51.7 6,-89.5 0,-55.4 -4.9,-97.3 -17.4,-149 -6.2,-25.7 -18.7,-65.2 -25.7,-81.2 l -1.8,-4.1 z" />
  <path
     style="fill:#234963;stroke:none;stroke-width:0.1;fill-opacity:1"
     inkscape:connector-curvature="0"
     id="path30"
     d="m 1016.4,506.7 c -19,23.7 -34,40.8 -52,59.3 l -14.2,14.5 2.8,12.2 c 7,30.5 10,55.4 10.7,88.8 0.6,28 -0.4,47.1 -3.8,71.5 -1.7,12.5 -7.4,41.5 -9.5,48.9 -0.6,2.1 0.4,1.6 7.2,-3.4 23.7,-17.4 48.9,-37.9 73.9,-60.1 22.2,-19.7 21.3,-18.6 23.1,-28.5 9.8,-56.5 7.3,-118.7 -7.2,-174.7 -3.9,-15.2 -13,-43.3 -14.8,-45.8 -1,-1.3 -3.6,1.5 -16.2,17.3 z" />
  <path
     style="fill:#234963;stroke:none;stroke-width:0.1;fill-opacity:1"
     inkscape:connector-curvature="0"
     id="path32"
     d="m 570.5,552.1 c -27.9,11.5 -70.2,24.1 -104,30.9 -35.4,7.2 -62.8,10.3 -109.7,12.6 l -12.8,0.6 v 7.8 c 0,10.7 2.6,35.3 5.5,52.8 6.3,37 18.4,74.7 35.5,110.8 6.3,13.3 16.5,32 18,32.9 1.3,0.8 20.9,-1 45,-4.1 69.1,-8.8 133.4,-25.4 200.5,-51.6 9.9,-3.9 18.1,-7.2 18.3,-7.4 0.8,-0.6 -82.3,-190.4 -83.3,-190.3 -0.5,0.1 -6.4,2.3 -13,5 z" />
  <path
     style="fill:#234963;stroke:none;stroke-width:0.1;fill-opacity:1"
     inkscape:connector-curvature="0"
     id="path34"
     d="m 222.6,587.6 c -2.9,15 -4,66.4 -1.7,88.9 3.7,37.8 11.8,73.6 24.1,107.3 4.2,11.4 5.7,14.3 7.4,14.7 1.2,0.3 10,1.2 19.6,2.1 17,1.5 99,3.3 99,2.1 0,-0.3 -4,-8.7 -9,-18.8 -25.5,-51.8 -40.1,-104.4 -45,-162.4 -0.5,-6.6 -1,-15.3 -1,-19.3 V 595 h -4.7 c -13.5,0 -43.4,-3.4 -84.4,-9.7 -3.4,-0.5 -3.7,-0.3 -4.3,2.3 z" />
  <path
     style="fill:#234963;stroke:none;stroke-width:0.1;fill-opacity:1"
     inkscape:connector-curvature="0"
     id="path36"
     d="m 912,616.2 c -43.3,38.7 -97.4,76.8 -152.5,107.3 -12.5,6.9 -51,26.5 -54.3,27.6 -0.9,0.3 9.3,24.7 32.4,77.9 18.5,42.6 33.8,77.7 34,77.9 0.6,0.6 5.7,-1.7 27.9,-12.5 34.8,-17 73.8,-39 104.4,-58.8 l 9.7,-6.3 3.2,-10.4 c 12.9,-42.3 18,-74 18.9,-117.2 0.7,-34.9 -1.5,-62.9 -7.2,-90 -0.8,-4 -1.5,-7.3 -1.5,-7.5 0,-1.1 -3.3,1.6 -15,12 z" />
  <path
     style="fill:#234963;stroke:none;stroke-width:0.1;fill-opacity:1"
     inkscape:connector-curvature="0"
     id="path38"
     d="m 668,767.1 c -69.4,29 -150.2,49.7 -229.4,58.8 -9.2,1.1 -17,2.2 -17.3,2.4 -0.3,0.3 3,5.2 7.3,10.8 39.7,52.4 90.6,94.1 150.8,123.5 l 15.4,7.6 11.9,-3.2 c 39.7,-10.5 84.6,-25.6 124.3,-41.8 9.8,-4 14.4,-6.4 14.2,-7.3 -0.5,-2.5 -66.7,-154.9 -67.2,-154.8 -0.3,0 -4.8,1.8 -10,4 z" />
  <path
     style="fill:#234963;stroke:none;stroke-width:0.1;fill-opacity:1"
     inkscape:connector-curvature="0"
     id="path40"
     d="m 1030.8,776.2 c -20.5,17.7 -53.4,43 -80,61.6 l -14.6,10.2 -5.3,13.3 c -20.4,50.9 -54.3,103.1 -92.8,142.9 -5.7,6 -10,10.8 -9.6,10.8 1.1,0 14.4,-7.3 29,-16.1 55.4,-33 104,-80.8 138.7,-136.4 10.2,-16.2 24.3,-43.4 31.9,-61.5 5,-12.1 12.1,-32 11.4,-32 -0.2,0 -4.1,3.2 -8.7,7.2 z" />
  <path
     style="fill:#234963;stroke:none;stroke-width:0.1;fill-opacity:1"
     inkscape:connector-curvature="0"
     id="path42"
     d="m 266,831.9 c 1.2,2.4 5.5,10.1 9.6,17.3 32.8,57.1 79.1,106 134.7,142.2 l 11.7,7.7 16.2,-1.6 c 33.7,-3.3 66.3,-8 100.6,-14.6 6.7,-1.3 12.2,-2.6 12.2,-2.9 0,-0.3 -5.1,-3.4 -11.2,-6.9 -34.1,-19.4 -65.6,-43.6 -94.8,-73 -20.2,-20.3 -35.2,-38.4 -51.2,-61.5 l -5.5,-7.9 -38.9,0.2 c -34.9,0.1 -56.3,-0.5 -78.2,-2.5 l -7.4,-0.7 z" />
  <path
     style="fill:#234963;stroke:none;stroke-width:0.1;fill-opacity:1"
     inkscape:connector-curvature="0"
     id="path44"
     d="m 885,880.2 c -18.5,11.1 -45.9,25.8 -72.3,38.9 -15.3,7.6 -28.3,13.9 -28.8,14.1 -0.8,0.3 21.4,53.2 24.9,59.5 0.7,1.2 3.2,-1 11.5,-9.9 24.1,-25.8 43.7,-52.2 59.9,-80.8 7.7,-13.5 14.1,-26.1 13.6,-26.6 -0.2,-0.2 -4.2,2 -8.8,4.8 z" />
  <path
     style="fill:#234963;stroke:none;stroke-width:0.1;fill-opacity:1"
     inkscape:connector-curvature="0"
     id="path46"
     d="m 745,949.7 c -26.9,11.4 -97.4,36.3 -102.7,36.3 -3.8,0 0.8,1.9 11.7,4.8 35.9,9.8 77.2,15.2 115.3,15.2 11.8,0 13.8,-0.2 13.5,-1.5 -0.8,-4 -25.4,-59.5 -26.3,-59.4 -0.5,0.1 -5.7,2.1 -11.5,4.6 z" />
  <path
     style="fill:#234963;stroke:none;stroke-width:0.1;fill-opacity:1"
     inkscape:connector-curvature="0"
     id="path48"
     d="m 581.5,1002.2 c -29.8,6.9 -72.3,14.7 -100.3,18.4 -7.3,0.9 -12.9,2 -12.5,2.4 2.4,2.2 35.7,14.6 51.2,19.1 42.3,12.3 76.6,17.2 120.6,17.2 34.4,0 60.2,-2.7 91.9,-9.9 12.7,-2.8 38.3,-10.2 47.6,-13.7 l 6.5,-2.4 -29.5,-0.6 c -33.7,-0.6 -52.6,-2.6 -82.6,-8.7 -22.7,-4.7 -52,-13.3 -72.5,-21.3 l -8.4,-3.3 z" />
</svg>
