<?xml version="1.0" encoding="UTF-8" standalone="no"?>
<svg
   xmlns:dc="http://purl.org/dc/elements/1.1/"
   xmlns:cc="http://creativecommons.org/ns#"
   xmlns:rdf="http://www.w3.org/1999/02/22-rdf-syntax-ns#"
   xmlns:svg="http://www.w3.org/2000/svg"
   xmlns="http://www.w3.org/2000/svg"
   xmlns:sodipodi="http://sodipodi.sourceforge.net/DTD/sodipodi-0.dtd"
   xmlns:inkscape="http://www.inkscape.org/namespaces/inkscape"
   viewBox="0 0 400 512"
   version="1.1"
   id="svg4"
   sodipodi:docname="users.svg"
   width="400"
   height="512"
   inkscape:version="0.92.4 5da689c313, 2019-01-14">
  <metadata
     id="metadata10">
    <rdf:RDF>
      <cc:Work
         rdf:about="">
        <dc:format>image/svg+xml</dc:format>
        <dc:type
           rdf:resource="http://purl.org/dc/dcmitype/StillImage" />
        <dc:title></dc:title>
      </cc:Work>
    </rdf:RDF>
  </metadata>
  <defs
     id="defs8" />
  <sodipodi:namedview
     pagecolor="#ffffff"
     bordercolor="#666666"
     borderopacity="1"
     objecttolerance="10"
     gridtolerance="10"
     guidetolerance="10"
     inkscape:pageopacity="0"
     inkscape:pageshadow="2"
     inkscape:window-width="960"
     inkscape:window-height="1017"
     id="namedview6"
     showgrid="false"
     inkscape:zoom="0.4609375"
     inkscape:cx="320"
     inkscape:cy="256"
     inkscape:window-x="0"
     inkscape:window-y="27"
     inkscape:window-maximized="0"
     inkscape:current-layer="svg4" />
  <path
     d="m 381.60273,309.28687 c 1.62518,-8.81343 1.62518,-17.81438 0,-26.62781 l 16.1267,-9.31348 c 1.8752,-1.06261 2.68779,-3.25034 2.06272,-5.31306 -4.18794,-13.50142 -11.3762,-25.75272 -20.75219,-35.87878 -1.43765,-1.56267 -3.75039,-1.93771 -5.62559,-0.8751 l -16.1267,9.31349 c -6.81322,-5.81312 -14.62654,-10.31359 -23.06493,-13.31391 v -18.62696 c 0,-2.12523 -1.50016,-4.00042 -3.56288,-4.43797 -13.93897,-3.12533 -28.12796,-3.00032 -41.37936,0 -2.06272,0.43755 -3.56287,2.31274 -3.56287,4.43797 v 18.62696 c -8.43839,3.00032 -16.25172,7.50079 -23.06494,13.31391 l -16.1267,-9.31349 c -1.81269,-1.06261 -4.18794,-0.68757 -5.62559,0.8751 -9.37599,10.12606 -16.56425,22.37736 -20.75219,35.87878 -0.62506,2.06272 0.25003,4.25045 2.06272,5.31306 l 16.1267,9.31348 c -1.62517,8.81343 -1.62517,17.81438 0,26.62781 l -16.1267,9.31348 c -1.8752,1.06261 -2.68778,3.25034 -2.06272,5.31306 4.18794,13.50142 11.3762,25.69021 20.75219,35.87878 1.43765,1.56267 3.7504,1.93771 5.62559,0.87509 l 16.1267,-9.31348 c 6.81322,5.81312 14.62655,10.31359 23.06494,13.31391 v 18.62696 c 0,2.12522 1.50015,4.00042 3.56287,4.43797 13.93897,3.12533 28.12797,3.00031 41.37936,0 2.06272,-0.43755 3.56288,-2.31275 3.56288,-4.43797 v -18.62696 c 8.43839,-3.00032 16.25171,-7.50079 23.06493,-13.31391 l 16.1267,9.31348 c 1.81269,1.06262 4.18794,0.68758 5.62559,-0.87509 9.37599,-10.12607 16.56425,-22.37736 20.75219,-35.87878 0.62507,-2.06272 -0.25002,-4.25045 -2.06272,-5.31306 z m -71.57004,17.00179 c -16.75177,0 -30.3157,-13.62644 -30.3157,-30.3157 0,-16.68926 13.62644,-30.31569 30.3157,-30.31569 16.68926,0 30.3157,13.62643 30.3157,30.31569 0,16.68926 -13.56393,30.3157 -30.3157,30.3157 z M 60.006328,235.96664 c 22.06483,0 40.004222,-17.93939 40.004222,-40.00422 0,-22.06483 -17.939392,-40.00422 -40.004222,-40.00422 -22.06483,0 -40.00422,17.93939 -40.00422,40.00422 0,22.06483 17.93939,40.00422 40.00422,40.00422 z m 140.014762,20.00211 c 1.18763,0 2.31275,-0.31254 3.50037,-0.37504 5.18805,-13.56393 12.81385,-26.31528 22.68989,-37.0039 4.62549,-5.00053 11.18868,-7.87583 18.06441,-7.87583 4.31295,0 8.5634,1.12511 12.25129,3.31285 l 4.93802,2.8753 c 0.50005,-0.31253 1.0001,-0.56256 1.50016,-0.87509 4.37546,-9.12597 7.00074,-19.25203 7.00074,-30.00317 0,-38.69158 -31.31581,-70.00738 -70.00739,-70.00738 -38.69157,0 -69.94487,31.2533 -69.94487,69.94488 0,38.69158 31.3158,70.00738 70.00738,70.00738 z m 65.75693,121.57531 c -1.43765,-0.75008 -2.8753,-1.62517 -4.25044,-2.43775 -5.12554,3.00031 -9.56351,6.12564 -17.18932,6.12564 -6.81321,0 -13.37641,-2.8753 -18.0644,-7.87583 -11.43871,-12.3763 -20.18963,-27.44039 -25.12765,-43.50458 -6.68821,-21.56478 15.56414,-31.06578 16.1267,-31.44082 -0.0625,-1.62517 -0.0625,-3.25034 0,-4.87551 l -4.93802,-2.87531 c -2.37525,-1.37514 -4.37546,-3.12533 -6.12565,-5.06303 -2.06271,0.12501 -4.06292,0.37504 -6.12564,0.37504 -15.37662,0 -29.75314,-3.7504 -42.81702,-10.00105 h -5.18804 c -39.8167,0 -72.070102,32.2534 -72.070102,72.00759 v 18.00189 c 0,16.56425 13.43892,30.00317 30.003162,30.00317 h 159.64183 c -2.31274,-3.7504 -3.87541,-8.00085 -3.87541,-12.68884 z M 108.19891,267.59497 c -7.25076,-7.18826 -17.189312,-11.62622 -28.190472,-11.62622 h -40.00422 c -22.06482,0 -40.0042201600403,17.93939 -40.0042201600403,40.00421 v 20.00211 c 0,11.06367 8.9384499600403,20.00211 20.0021101600403,20.00211 h 41.19185 c 3.93791,-29.62812 21.8148,-54.56825 47.004952,-68.38221 z"
     id="path2"
     inkscape:connector-curvature="0"
     style="stroke-width:0.62506592" />
</svg>
