<?xml version="1.0" encoding="UTF-8" standalone="no"?>
<svg
   xmlns:dc="http://purl.org/dc/elements/1.1/"
   xmlns:cc="http://creativecommons.org/ns#"
   xmlns:rdf="http://www.w3.org/1999/02/22-rdf-syntax-ns#"
   xmlns:svg="http://www.w3.org/2000/svg"
   xmlns="http://www.w3.org/2000/svg"
   xmlns:sodipodi="http://sodipodi.sourceforge.net/DTD/sodipodi-0.dtd"
   xmlns:inkscape="http://www.inkscape.org/namespaces/inkscape"
   enable-background="new 0 0 424.98 424.98"
   height="424.98"
   viewBox="0 0 424.98 424.98"
   width="424.98"
   version="1.1"
   id="svg18"
   sodipodi:docname="vehiclecolors.svg"
   inkscape:version="0.92.4 5da689c313, 2019-01-14">
  <metadata
     id="metadata24">
    <rdf:RDF>
      <cc:Work
         rdf:about="">
        <dc:format>image/svg+xml</dc:format>
        <dc:type
           rdf:resource="http://purl.org/dc/dcmitype/StillImage" />
      </cc:Work>
    </rdf:RDF>
  </metadata>
  <defs
     id="defs22" />
  <sodipodi:namedview
     pagecolor="#ffffff"
     bordercolor="#666666"
     borderopacity="1"
     objecttolerance="10"
     gridtolerance="10"
     guidetolerance="10"
     inkscape:pageopacity="0"
     inkscape:pageshadow="2"
     inkscape:window-width="1920"
     inkscape:window-height="1017"
     id="namedview20"
     showgrid="false"
     inkscape:zoom="1.5706828"
     inkscape:cx="231.2462"
     inkscape:cy="185.88179"
     inkscape:window-x="0"
     inkscape:window-y="27"
     inkscape:window-maximized="1"
     inkscape:current-layer="svg18" />
  <path
     d="M 169.81128,4.1499625 C 87.192403,20.274773 20.615221,86.68572 4.3241751,169.05524 -26.42933,324.48512 113.79003,440.35103 219.43247,423.97686 c 34.24445,-5.31952 51.0342,-45.3822 35.32498,-76.21882 -19.20016,-37.73538 8.22864,-81.7877 50.6186,-81.7877 h 66.24472 c 29.75609,0 53.86019,-24.6028 53.94331,-54.27578 C 425.14849,80.701255 305.95788,-22.364546 169.81128,4.1499625 Z M 79.794939,265.97034 c -14.711812,0 -26.597626,-11.88581 -26.597626,-26.59762 0,-14.71182 11.885814,-26.59763 26.597626,-26.59763 14.711811,0 26.597621,11.88581 26.597621,26.59763 0,14.71181 -11.88581,26.59762 -26.597621,26.59762 z m 26.597621,-106.3905 c -14.711807,0 -26.597621,-11.88582 -26.597621,-26.59763 0,-14.71181 11.885814,-26.59762 26.597621,-26.59762 14.71182,0 26.59763,11.88581 26.59763,26.59762 0,14.71181 -11.88581,26.59763 -26.59763,26.59763 z m 106.39051,-53.19525 c -14.71181,0 -26.59763,-11.885817 -26.59763,-26.597629 0,-14.711812 11.88582,-26.597626 26.59763,-26.597626 14.71181,0 26.59762,11.885814 26.59762,26.597626 0,14.711812 -11.88581,26.597629 -26.59762,26.597629 z m 106.3905,53.19525 c -14.71181,0 -26.59762,-11.88582 -26.59762,-26.59763 0,-14.71181 11.88581,-26.59762 26.59762,-26.59762 14.71181,0 26.59763,11.88581 26.59763,26.59762 0,14.71181 -11.88582,26.59763 -26.59763,26.59763 z"
     class=""
     id="path16"
     inkscape:connector-curvature="0"
     style="fill:#000000;stroke-width:0.8311758" />
</svg>
