<?xml version="1.0" encoding="UTF-8" standalone="no"?>
<!-- Generator: Adobe Illustrator 19.0.0, SVG Export Plug-In . SVG Version: 6.00 Build 0)  -->

<svg
   xmlns:dc="http://purl.org/dc/elements/1.1/"
   xmlns:cc="http://creativecommons.org/ns#"
   xmlns:rdf="http://www.w3.org/1999/02/22-rdf-syntax-ns#"
   xmlns:svg="http://www.w3.org/2000/svg"
   xmlns="http://www.w3.org/2000/svg"
   xmlns:xlink="http://www.w3.org/1999/xlink"
   xmlns:sodipodi="http://sodipodi.sourceforge.net/DTD/sodipodi-0.dtd"
   xmlns:inkscape="http://www.inkscape.org/namespaces/inkscape"
   version="1.1"
   id="Layer_1"
   x="0px"
   y="0px"
   viewBox="0 0 400.00001 400.00001"
   xml:space="preserve"
   sodipodi:docname="info.svg"
   width="400"
   height="400"
   inkscape:version="0.92.4 5da689c313, 2019-01-14"><metadata
   id="metadata1131"><rdf:RDF><cc:Work
       rdf:about=""><dc:format>image/svg+xml</dc:format><dc:type
         rdf:resource="http://purl.org/dc/dcmitype/StillImage" /><dc:title></dc:title></cc:Work></rdf:RDF></metadata><defs
   id="defs1129"><linearGradient
   inkscape:collect="always"
   id="linearGradient1701"><stop
     style="stop-color:#616161;stop-opacity:1"
     offset="0"
     id="stop1697" /><stop
     style="stop-color:#000000;stop-opacity:1"
     offset="1"
     id="stop1699" /></linearGradient>
	
	
<linearGradient
   inkscape:collect="always"
   xlink:href="#linearGradient1701"
   id="linearGradient1779"
   gradientUnits="userSpaceOnUse"
   x1="487.95737"
   y1="-405.89886"
   x2="536.96222"
   y2="-414.78372"
   gradientTransform="rotate(45,-361.06756,-483.56184)" /><linearGradient
   inkscape:collect="always"
   xlink:href="#linearGradient1701"
   id="linearGradient1783"
   gradientUnits="userSpaceOnUse"
   x1="223.05946"
   y1="149.12532"
   x2="277.32022"
   y2="195.95311"
   gradientTransform="matrix(0.80802123,0,0,0.80802123,4.8828125e-7,-0.90618849)" /></defs><sodipodi:namedview
   pagecolor="#ffffff"
   bordercolor="#666666"
   borderopacity="1"
   objecttolerance="10"
   gridtolerance="10"
   guidetolerance="10"
   inkscape:pageopacity="0"
   inkscape:pageshadow="2"
   inkscape:window-width="1920"
   inkscape:window-height="1017"
   id="namedview1127"
   showgrid="false"
   inkscape:zoom="0.67267767"
   inkscape:cx="682.86329"
   inkscape:cy="287.29147"
   inkscape:window-x="0"
   inkscape:window-y="27"
   inkscape:window-maximized="1"
   inkscape:current-layer="Layer_1" />


<g
   id="g1096"
   transform="translate(0,-96.15799)">
</g>
<g
   id="g1098"
   transform="translate(0,-96.15799)">
</g>
<g
   id="g1100"
   transform="translate(0,-96.15799)">
</g>
<g
   id="g1102"
   transform="translate(0,-96.15799)">
</g>
<g
   id="g1104"
   transform="translate(0,-96.15799)">
</g>
<g
   id="g1106"
   transform="translate(0,-96.15799)">
</g>
<g
   id="g1108"
   transform="translate(0,-96.15799)">
</g>
<g
   id="g1110"
   transform="translate(0,-96.15799)">
</g>
<g
   id="g1112"
   transform="translate(0,-96.15799)">
</g>
<g
   id="g1114"
   transform="translate(0,-96.15799)">
</g>
<g
   id="g1116"
   transform="translate(0,-96.15799)">
</g>
<g
   id="g1118"
   transform="translate(0,-96.15799)">
</g>
<g
   id="g1120"
   transform="translate(0,-96.15799)">
</g>
<g
   id="g1122"
   transform="translate(0,-96.15799)">
</g>
<g
   id="g1124"
   transform="translate(0,-96.15799)">
</g>
<circle
   style="opacity:1;vector-effect:none;fill:url(#linearGradient1783);fill-opacity:1;stroke:none;stroke-width:1.61604249;stroke-linecap:butt;stroke-linejoin:miter;stroke-miterlimit:4;stroke-dasharray:none;stroke-dashoffset:0;stroke-opacity:1"
   id="path1781"
   cx="200"
   cy="200"
   r="200" /><circle
   r="170"
   cy="200"
   cx="200"
   id="circle1789"
   style="opacity:1;vector-effect:none;fill:#ffffff;fill-opacity:1;stroke:none;stroke-width:1.37363625;stroke-linecap:butt;stroke-linejoin:miter;stroke-miterlimit:4;stroke-dasharray:none;stroke-dashoffset:0;stroke-opacity:1" /><path
   id="path1717"
   style="opacity:1;vector-effect:none;fill:url(#linearGradient1779);fill-opacity:1;stroke:#000000;stroke-width:2;stroke-linecap:butt;stroke-linejoin:miter;stroke-miterlimit:4;stroke-dasharray:none;stroke-dashoffset:0;stroke-opacity:1"
   d="m 246.87569,131.8464 a 23.840452,26.441996 45 0 1 -35.55505,1.83957 23.840452,26.441996 45 0 1 1.83957,-35.555053 23.840452,26.441996 45 0 1 35.55506,-1.83957 23.840452,26.441996 45 0 1 -1.83958,35.555053 z m -4.52106,131.84578 c 2.60693,-3.73288 -0.53264,-12.64827 -5.72566,-8.44883 -7.38403,5.97122 -14.04423,17.25887 -23.20836,23.25517 -13.96449,9.13734 -12.07615,-1.55117 -10.31724,-7.51238 5.45505,-18.48782 12.22495,-32.87263 17.88386,-48.49317 7.36075,-20.31815 23.96479,-47.45367 10.10957,-64.03803 -9.07687,-10.8648 -29.18037,-5.84804 -42.46186,-0.94541 -17.97499,6.63516 -31.07988,20.54949 -42.85316,38.31108 -2.94779,4.44714 1.30133,8.46929 4.89639,5.38366 8.2076,-7.04456 18.41229,-20.8224 26.39874,-25.94308 9.29528,-5.95985 12.27616,2.45321 9.40798,9.50513 -5.259,12.93024 -14.6434,35.96494 -19.36981,48.4828 -3.98078,10.54307 -10.31718,23.06897 -14.97621,42.75353 -1.15179,4.86638 -5.9895,20.47598 1.60851,28.24777 3.53496,3.61586 7.72656,5.61459 12.7771,5.86435 11.53306,0.57032 21.215,-2.50716 30.52522,-7.27505 17.76449,-9.09743 34.78319,-24.08151 45.30489,-39.14758 z"
   inkscape:connector-curvature="0" /></svg>