<?xml version="1.0" encoding="UTF-8" standalone="no"?>
<!-- Generator: Adobe Illustrator 19.0.0, SVG Export Plug-In . SVG Version: 6.00 Build 0)  -->

<svg
   xmlns:dc="http://purl.org/dc/elements/1.1/"
   xmlns:cc="http://creativecommons.org/ns#"
   xmlns:rdf="http://www.w3.org/1999/02/22-rdf-syntax-ns#"
   xmlns:svg="http://www.w3.org/2000/svg"
   xmlns="http://www.w3.org/2000/svg"
   xmlns:sodipodi="http://sodipodi.sourceforge.net/DTD/sodipodi-0.dtd"
   xmlns:inkscape="http://www.inkscape.org/namespaces/inkscape"
   version="1.1"
   id="Layer_1"
   x="0px"
   y="0px"
   viewBox="0 0 400.00001 400.00001"
   xml:space="preserve"
   sodipodi:docname="alarm.svg"
   width="400"
   height="400"
   inkscape:version="0.92.4 5da689c313, 2019-01-14"><metadata
   id="metadata1131"><rdf:RDF><cc:Work
       rdf:about=""><dc:format>image/svg+xml</dc:format><dc:type
         rdf:resource="http://purl.org/dc/dcmitype/StillImage" /><dc:title /></cc:Work></rdf:RDF></metadata><defs
   id="defs1129">
	
	
</defs><sodipodi:namedview
   pagecolor="#ffffff"
   bordercolor="#666666"
   borderopacity="1"
   objecttolerance="10"
   gridtolerance="10"
   guidetolerance="10"
   inkscape:pageopacity="0"
   inkscape:pageshadow="2"
   inkscape:window-width="1920"
   inkscape:window-height="1017"
   id="namedview1127"
   showgrid="false"
   inkscape:zoom="0.67267767"
   inkscape:cx="434.60174"
   inkscape:cy="287.29147"
   inkscape:window-x="0"
   inkscape:window-y="27"
   inkscape:window-maximized="1"
   inkscape:current-layer="Layer_1" />


<g
   id="g1096"
   transform="translate(0,-96.15799)">
</g>
<g
   id="g1098"
   transform="translate(0,-96.15799)">
</g>
<g
   id="g1100"
   transform="translate(0,-96.15799)">
</g>
<g
   id="g1102"
   transform="translate(0,-96.15799)">
</g>
<g
   id="g1104"
   transform="translate(0,-96.15799)">
</g>
<g
   id="g1106"
   transform="translate(0,-96.15799)">
</g>
<g
   id="g1108"
   transform="translate(0,-96.15799)">
</g>
<g
   id="g1110"
   transform="translate(0,-96.15799)">
</g>
<g
   id="g1112"
   transform="translate(0,-96.15799)">
</g>
<g
   id="g1114"
   transform="translate(0,-96.15799)">
</g>
<g
   id="g1116"
   transform="translate(0,-96.15799)">
</g>
<g
   id="g1118"
   transform="translate(0,-96.15799)">
</g>
<g
   id="g1120"
   transform="translate(0,-96.15799)">
</g>
<g
   id="g1122"
   transform="translate(0,-96.15799)">
</g>
<g
   id="g1124"
   transform="translate(0,-96.15799)">
</g>
<g
   id="g176"
   transform="translate(0.403,0.4035)"><g
     id="g118">
	<path
   id="path112"
   d="m 375.337,97.308 c -3.136,-4.547 -9.364,-5.691 -13.909,-2.557 -4.547,3.135 -5.692,9.362 -2.557,13.909 13.295,19.284 20.322,42.543 20.322,67.264 0,24.627 -7.35,48.709 -20.694,67.81 -3.163,4.527 -2.058,10.762 2.47,13.925 1.744,1.219 3.741,1.804 5.719,1.804 3.155,0 6.262,-1.491 8.206,-4.273 15.897,-22.753 24.3,-50.163 24.3,-79.265 -0.001,-28.794 -8.251,-55.979 -23.857,-78.617 z"
   inkscape:connector-curvature="0" />
	<path
   id="path114"
   d="m 342.47,125.562 c -3.134,-4.547 -9.361,-5.692 -13.909,-2.557 -4.547,3.135 -5.691,9.362 -2.556,13.909 7.72,11.197 11.801,24.726 11.801,39.124 0,14.344 -4.268,28.352 -12.016,39.443 -3.163,4.527 -2.058,10.762 2.47,13.925 1.744,1.218 3.741,1.803 5.719,1.803 3.156,0 6.262,-1.49 8.206,-4.274 10.22,-14.627 15.621,-32.228 15.621,-50.897 0,-18.471 -5.303,-35.925 -15.336,-50.476 z"
   inkscape:connector-curvature="0" />
	<path
   id="path116"
   d="m 303.027,20.495 c -4.954,0 -9.532,2.757 -13.586,8.167 -0.328,0.432 -33.738,43.425 -117.107,69.128 -7.914,2.44 -16.663,4.163 -16.748,4.18 -1.978,0.386 -3.888,1.004 -5.707,1.82 -3.508,-5.791 -9.85,-9.681 -17.1,-9.681 H 48.635 c -11.028,0 -20,8.972 -20,20 v 10.979 c -1.402,-0.22 -2.844,-0.342 -4.317,-0.342 C 10.909,124.746 0,134.272 0,145.98 v 55.29 c 0,11.708 10.909,21.234 24.317,21.234 1.474,0 2.915,-0.121 4.317,-0.342 v 8.979 c 0,11.028 8.972,20 20,20 h 2.704 L 76.731,356.46 c 3.007,12.47 15.41,22.238 28.237,22.238 h 26.873 c 7.017,0 13.365,-2.951 17.417,-8.096 4.053,-5.145 5.434,-12.008 3.789,-18.83 L 128.785,251.141 h 3.993 c 7.253,0 13.597,-3.893 17.104,-9.687 1.816,0.815 3.724,1.432 5.698,1.818 0.087,0.017 8.836,1.742 16.748,4.186 83.375,25.756 116.782,68.707 117.09,69.11 4.074,5.433 8.651,8.188 13.604,8.188 0,0 0,0 0.001,0 4.896,0 9.178,-2.776 11.453,-7.425 1.307,-2.668 1.941,-5.862 1.941,-9.763 V 37.681 c 0.002,-16.704 -12.02,-17.186 -13.39,-17.186 z M 24.317,202.504 c -2.463,0 -3.935,-1.02 -4.317,-1.5 v -54.759 c 0.383,-0.48 1.854,-1.5 4.317,-1.5 2.463,0 3.935,1.02 4.317,1.5 v 54.759 c -0.382,0.481 -1.854,1.5 -4.317,1.5 z M 133.604,356.46 c 0.216,0.896 0.127,1.533 -0.058,1.768 -0.185,0.235 -0.783,0.471 -1.705,0.471 h -26.873 c -3.662,0 -7.936,-3.366 -8.794,-6.926 L 71.912,251.141 h 36.3 z M 48.635,231.141 V 201.27 145.98 114.109 h 84.145 v 15.539 c 0,0.004 0,0.007 0,0.011 v 85.922 c 0,0.024 0.002,0.047 0.002,0.071 v 15.489 z m 247.784,63.415 c -15.581,-15.585 -52.326,-45.861 -118.187,-66.207 -8.957,-2.768 -18.415,-4.627 -18.813,-4.706 -3.413,-0.667 -6.64,-4.585 -6.64,-8.063 v -85.922 c 0,-3.477 3.227,-7.394 6.639,-8.06 0.398,-0.078 9.853,-1.935 18.809,-4.697 C 244.081,96.598 280.831,66.31 296.419,50.709 Z"
   inkscape:connector-curvature="0" />
</g><g
     id="g120">
</g><g
     id="g122">
</g><g
     id="g124">
</g><g
     id="g126">
</g><g
     id="g128">
</g><g
     id="g130">
</g><g
     id="g132">
</g><g
     id="g134">
</g><g
     id="g136">
</g><g
     id="g138">
</g><g
     id="g140">
</g><g
     id="g142">
</g><g
     id="g144">
</g><g
     id="g146">
</g><g
     id="g148">
</g></g></svg>