<?xml version="1.0" encoding="UTF-8" standalone="no"?>
<!-- Generator: Adobe Illustrator 19.0.0, SVG Export Plug-In . SVG Version: 6.00 Build 0)  -->

<svg
   xmlns:dc="http://purl.org/dc/elements/1.1/"
   xmlns:cc="http://creativecommons.org/ns#"
   xmlns:rdf="http://www.w3.org/1999/02/22-rdf-syntax-ns#"
   xmlns:svg="http://www.w3.org/2000/svg"
   xmlns="http://www.w3.org/2000/svg"
   xmlns:sodipodi="http://sodipodi.sourceforge.net/DTD/sodipodi-0.dtd"
   xmlns:inkscape="http://www.inkscape.org/namespaces/inkscape"
   version="1.1"
   id="Layer_1"
   x="0px"
   y="0px"
   viewBox="0 0 400.00001 400.00001"
   xml:space="preserve"
   sodipodi:docname="camerasurveillance.svg"
   width="400"
   height="400"
   inkscape:version="0.92.4 5da689c313, 2019-01-14"><metadata
   id="metadata1131"><rdf:RDF><cc:Work
       rdf:about=""><dc:format>image/svg+xml</dc:format><dc:type
         rdf:resource="http://purl.org/dc/dcmitype/StillImage" /><dc:title></dc:title></cc:Work></rdf:RDF></metadata><defs
   id="defs1129">
	
	
</defs><sodipodi:namedview
   pagecolor="#ffffff"
   bordercolor="#666666"
   borderopacity="1"
   objecttolerance="10"
   gridtolerance="10"
   guidetolerance="10"
   inkscape:pageopacity="0"
   inkscape:pageshadow="2"
   inkscape:window-width="1920"
   inkscape:window-height="1017"
   id="namedview1127"
   showgrid="true"
   inkscape:zoom="0.47565494"
   inkscape:cx="1164.2632"
   inkscape:cy="208.76534"
   inkscape:window-x="0"
   inkscape:window-y="27"
   inkscape:window-maximized="1"
   inkscape:current-layer="layer2"
   borderlayer="true"
   showguides="true"
   inkscape:guide-bbox="true"><inkscape:grid
     type="xygrid"
     id="grid195"
     dotted="true" /></sodipodi:namedview>


<g
   id="g1096"
   transform="translate(0,-96.15799)">
</g>
<g
   id="g1098"
   transform="translate(0,-96.15799)">
</g>
<g
   id="g1100"
   transform="translate(0,-96.15799)">
</g>
<g
   id="g1102"
   transform="translate(0,-96.15799)">
</g>
<g
   id="g1104"
   transform="translate(0,-96.15799)">
</g>
<g
   id="g1106"
   transform="translate(0,-96.15799)">
</g>
<g
   id="g1108"
   transform="translate(0,-96.15799)">
</g>
<g
   id="g1110"
   transform="translate(0,-96.15799)">
</g>
<g
   id="g1112"
   transform="translate(0,-96.15799)">
</g>
<g
   id="g1114"
   transform="translate(0,-96.15799)">
</g>
<g
   id="g1116"
   transform="translate(0,-96.15799)">
</g>
<g
   id="g1118"
   transform="translate(0,-96.15799)">
</g>
<g
   id="g1120"
   transform="translate(0,-96.15799)">
</g>
<g
   id="g1122"
   transform="translate(0,-96.15799)">
</g>
<g
   id="g1124"
   transform="translate(0,-96.15799)">
</g>
<g
   inkscape:groupmode="layer"
   id="layer1"
   inkscape:label="Fundo"
   sodipodi:insensitive="true" /><g
   inkscape:groupmode="layer"
   id="layer2"
   inkscape:label="Desenho"><circle
     r="170"
     cy="200"
     cx="200"
     id="circle1789"
     style="opacity:1;vector-effect:none;fill:#ffffff;fill-opacity:1;stroke:none;stroke-width:1.37363625;stroke-linecap:butt;stroke-linejoin:miter;stroke-miterlimit:4;stroke-dasharray:none;stroke-dashoffset:0;stroke-opacity:1" /><g
     id="g1053"
     transform="matrix(0.93858779,0,0,0.93858779,-480.4803,-252.86861)"><path
       style="opacity:1;vector-effect:none;fill:#000000;fill-opacity:0.97073173;stroke:none;stroke-width:30;stroke-linecap:butt;stroke-linejoin:miter;stroke-miterlimit:4;stroke-dasharray:none;stroke-dashoffset:0;stroke-opacity:1"
       d="m 520,300 v 40 h 69 v 23 h 40 v -23 h 69 v -40 z"
       id="path1037"
       inkscape:connector-curvature="0" /><path
       style="opacity:1;vector-effect:none;fill:#000000;fill-opacity:0.97073173;stroke:none;stroke-width:30;stroke-linecap:butt;stroke-linejoin:miter;stroke-miterlimit:4;stroke-dasharray:none;stroke-dashoffset:0;stroke-opacity:1"
       d="M 572.77313,380 H 645 v 40 c -41.58843,5.18537 -56.8333,24.63294 -72.22687,44 z"
       id="path1039"
       inkscape:connector-curvature="0"
       sodipodi:nodetypes="ccccc" /><path
       style="fill:#000000;fill-opacity:0.97073173;stroke:none;stroke-width:1px;stroke-linecap:butt;stroke-linejoin:miter;stroke-opacity:1"
       d="M 653.8418,434.95898 C 575.7804,435.78659 556.75,533.05078 564,568.39453 L 657,594 c 48,11 68,-4 88,-19 67.71184,-55.02324 120.25351,-79.77534 159,-77 L 680,437.97266 c -9.375,-2.15374 -18.08289,-3.09929 -26.1582,-3.01368 z m -43.6836,76.86133 a 22.977738,27.207667 18.254655 0 1 3.88868,0.59375 22.977738,27.207667 18.254655 0 1 14.97265,31.94532 22.977738,27.207667 18.254655 0 1 -29.55469,20.45507 22.977738,27.207667 18.254655 0 1 -14.9707,-31.94336 22.977738,27.207667 18.254655 0 1 25.66406,-21.05078 z"
       id="path1041"
       inkscape:connector-curvature="0" /><path
       style="fill:#000000;fill-opacity:0.97073173;stroke:none;stroke-width:1px;stroke-linecap:butt;stroke-linejoin:miter;stroke-opacity:1"
       d="m 583,590 45,12 c 1.28646,13.63284 7.82663,23.89085 12,30 -26.40349,-3.70201 -49.71395,-12.77343 -57,-42 z"
       id="path1043"
       inkscape:connector-curvature="0"
       sodipodi:nodetypes="cccc" /><path
       sodipodi:nodetypes="cccsc"
       inkscape:connector-curvature="0"
       id="path1045"
       d="m 646,607 c 48.50676,12.80293 69.32923,3.85392 89,-6 0,26.67839 10,49 26,64 L 680.5109,643.6073 C 654.2364,636.62397 647.50034,612.23537 646,607 Z"
       style="fill:#000000;fill-opacity:0.97073173;stroke:none;stroke-width:1px;stroke-linecap:butt;stroke-linejoin:miter;stroke-opacity:1" /><path
       style="fill:#000000;fill-opacity:0.97073173;stroke:none;stroke-width:1px;stroke-linecap:butt;stroke-linejoin:miter;stroke-opacity:1"
       d="M 868.63484,517.45226 C 957.31366,495 942.36516,572.16672 871.74167,605 877.356,579.42957 884.1078,554.47699 868.63484,517.45226 Z"
       id="path1047"
       inkscape:connector-curvature="0"
       sodipodi:nodetypes="ccc" /><path
       sodipodi:nodetypes="cscc"
       inkscape:connector-curvature="0"
       id="path1049"
       d="M 803.14175,552.41572 C 815,570 802.59419,590.45798 795.29357,598.05496 784.99057,608.77619 770.58682,603.29501 777,571 Z"
       style="fill:#000000;fill-opacity:0.97073173;stroke:none;stroke-width:1px;stroke-linecap:butt;stroke-linejoin:miter;stroke-opacity:1" /><path
       style="fill:#000000;fill-opacity:0.97073173;stroke:none;stroke-width:1px;stroke-linecap:butt;stroke-linejoin:miter;stroke-opacity:1"
       d="m 751,591 8,-6 c 11,73 86,15 58,-42 l 38,-20 c 20,52 -5,122 -50,137 -42.49111,7.83248 -56.83957,-36.44538 -54,-69 z"
       id="path1051"
       inkscape:connector-curvature="0"
       sodipodi:nodetypes="cccccc" /></g></g></svg>