<?xml version="1.0" encoding="UTF-8" standalone="no"?>
<!-- Generator: Adobe Illustrator 19.0.0, SVG Export Plug-In . SVG Version: 6.00 Build 0)  -->

<svg
   xmlns:dc="http://purl.org/dc/elements/1.1/"
   xmlns:cc="http://creativecommons.org/ns#"
   xmlns:rdf="http://www.w3.org/1999/02/22-rdf-syntax-ns#"
   xmlns:svg="http://www.w3.org/2000/svg"
   xmlns="http://www.w3.org/2000/svg"
   xmlns:sodipodi="http://sodipodi.sourceforge.net/DTD/sodipodi-0.dtd"
   xmlns:inkscape="http://www.inkscape.org/namespaces/inkscape"
   version="1.1"
   id="Layer_1"
   x="0px"
   y="0px"
   viewBox="0 0 400.00001 400.00001"
   xml:space="preserve"
   sodipodi:docname="contactus.svg"
   width="400"
   height="400"
   inkscape:version="0.92.4 5da689c313, 2019-01-14"><metadata
   id="metadata1131"><rdf:RDF><cc:Work
       rdf:about=""><dc:format>image/svg+xml</dc:format><dc:type
         rdf:resource="http://purl.org/dc/dcmitype/StillImage" /><dc:title></dc:title></cc:Work></rdf:RDF></metadata><defs
   id="defs1129">
	
	
</defs><sodipodi:namedview
   pagecolor="#ffffff"
   bordercolor="#666666"
   borderopacity="1"
   objecttolerance="10"
   gridtolerance="10"
   guidetolerance="10"
   inkscape:pageopacity="0"
   inkscape:pageshadow="2"
   inkscape:window-width="1920"
   inkscape:window-height="1017"
   id="namedview1127"
   showgrid="true"
   inkscape:zoom="0.47565494"
   inkscape:cx="-15.501026"
   inkscape:cy="360.18381"
   inkscape:window-x="0"
   inkscape:window-y="27"
   inkscape:window-maximized="1"
   inkscape:current-layer="Layer_1"><inkscape:grid
     type="xygrid"
     id="grid301"
     dotted="true" /></sodipodi:namedview>


<g
   id="g1096"
   transform="translate(0,-96.15799)">
</g>
<g
   id="g1098"
   transform="translate(0,-96.15799)">
</g>
<g
   id="g1100"
   transform="translate(0,-96.15799)">
</g>
<g
   id="g1102"
   transform="translate(0,-96.15799)">
</g>
<g
   id="g1104"
   transform="translate(0,-96.15799)">
</g>
<g
   id="g1106"
   transform="translate(0,-96.15799)">
</g>
<g
   id="g1108"
   transform="translate(0,-96.15799)">
</g>
<g
   id="g1110"
   transform="translate(0,-96.15799)">
</g>
<g
   id="g1112"
   transform="translate(0,-96.15799)">
</g>
<g
   id="g1114"
   transform="translate(0,-96.15799)">
</g>
<g
   id="g1116"
   transform="translate(0,-96.15799)">
</g>
<g
   id="g1118"
   transform="translate(0,-96.15799)">
</g>
<g
   id="g1120"
   transform="translate(0,-96.15799)">
</g>
<g
   id="g1122"
   transform="translate(0,-96.15799)">
</g>
<g
   id="g1124"
   transform="translate(0,-96.15799)">
</g>
<path
   inkscape:connector-curvature="0"
   d="m 372.84284,292.96057 17.18607,47.49036 -52.37703,-21.01004 a 135.65938,135.65938 0 0 1 -58.52673,12.89173 c -62.39426,0 -112.95948,-39.93824 -112.95948,-89.21429 0,-49.27605 50.56522,-89.21429 112.95948,-89.21429 62.39425,0 112.96818,39.93824 112.96818,89.21429 0,18.48396 -7.09045,35.59164 -19.25049,49.84224 z"
   style="fill:#e2dde5;stroke-width:0.87106323"
   id="path266" /><path
   inkscape:connector-curvature="0"
   d="m 170.72133,258.64068 c 8.58868,42.97826 54.53727,75.7825 109.93689,75.7825 a 130.98177,130.98177 0 0 0 56.05291,-12.25586 l 53.34392,18.29232 -16.96832,-45.93116 c 11.96841,-14.39867 18.96305,-31.75025 18.96305,-50.43456 0,-49.91192 -49.85966,-90.37281 -111.36543,-90.37281 -7.69149,0 -15.26103,0.33101 -22.45601,1.83795"
   style="fill:none;stroke:#000000;stroke-width:15.67913818px;stroke-linecap:round;stroke-linejoin:round"
   id="path268" /><path
   inkscape:connector-curvature="0"
   d="m 228.34216,134.42706 a 69.484712,69.484712 0 0 1 2.2125,18.55365 c 0,49.90321 -49.85966,90.3641 -111.37414,90.3641 A 130.89467,130.89467 0 0 1 63.145023,231.08024 L 9.8098227,249.37256 26.769423,203.4414 C 14.801015,189.04273 7.8150879,171.68244 7.8150879,153.00684 c 0,-49.91192 49.8509471,-90.372807 111.3654321,-90.372807 24.172,0 46.54962,6.254234 64.8071,16.863784"
   style="fill:#ffffff;stroke:#000000;stroke-width:15.67913818px;stroke-linecap:round;stroke-linejoin:round"
   id="path270" /><g
   aria-label="?"
   style="font-style:normal;font-variant:normal;font-weight:bold;font-stretch:normal;font-size:137.45018005px;line-height:1.25;font-family:'Open Sans';-inkscape-font-specification:'Open Sans, Bold';font-variant-ligatures:normal;font-variant-caps:normal;font-variant-numeric:normal;font-feature-settings:normal;text-align:start;letter-spacing:0px;word-spacing:0px;writing-mode:lr-tb;text-anchor:start;fill:#000000;fill-opacity:1;stroke:none;stroke-width:2.57719111"
   id="text314"><path
     d="m 108.91292,170.06102 v -4.96646 q 0,-6.44298 2.75169,-11.20809 2.75168,-4.76512 10.06715,-10.13427 7.047,-5.03358 9.26178,-8.18795 2.28189,-3.15437 2.28189,-7.04701 0,-4.36243 -3.22149,-6.64432 -3.22149,-2.28188 -8.99333,-2.28188 -10.06715,0 -22.953102,6.5772 L 90.792045,111.4702 q 14.966495,-8.38929 31.745085,-8.38929 13.82556,0 21.94639,6.64432 8.18795,6.64432 8.18795,17.71818 0,7.38258 -3.35572,12.75173 -3.35571,5.36915 -12.75172,12.08058 -6.44298,4.76512 -8.18795,7.24835 -1.67786,2.48323 -1.67786,6.51009 v 4.02686 z m -2.14766,22.95311 q 0,-5.63761 3.02014,-8.52352 3.02015,-2.88592 8.79198,-2.88592 5.57049,0 8.59064,2.95303 3.08726,2.95303 3.08726,8.45641 0,5.30203 -3.08726,8.38929 -3.08726,3.02015 -8.59064,3.02015 -5.6376,0 -8.72486,-2.95303 -3.08726,-3.02015 -3.08726,-8.45641 z"
     style="stroke-width:2.57719111"
     id="path316" /></g><circle
   id="8dc0db94-518b-420b-8cc0-ef8f91a0e357"
   data-name="Oval-2"
   cx="207.69798"
   cy="105.71681"
   r="22.133717"
   style="fill:#000000;stroke-width:0.87106323" /><line
   x1="238.31581"
   y1="250.26106"
   x2="340.32608"
   y2="250.26106"
   style="fill:#000000;stroke:#000000;stroke-width:12.19488525px;stroke-linecap:round;stroke-linejoin:round"
   id="line277" /><line
   x1="238.82977"
   y1="217.17807"
   x2="340.83997"
   y2="217.17807"
   style="fill:#000000;stroke:#000000;stroke-width:12.19488525px;stroke-linecap:round;stroke-linejoin:round"
   id="line279" /><line
   x1="238.31581"
   y1="279.49393"
   x2="293.44543"
   y2="279.49393"
   style="fill:#000000;stroke:#000000;stroke-width:12.19488525px;stroke-linecap:round;stroke-linejoin:round"
   id="line281" /></svg>