<?xml version="1.0" encoding="UTF-8" standalone="no"?>
<!-- Generator: Adobe Illustrator 19.0.0, SVG Export Plug-In . SVG Version: 6.00 Build 0)  -->

<svg
   xmlns:dc="http://purl.org/dc/elements/1.1/"
   xmlns:cc="http://creativecommons.org/ns#"
   xmlns:rdf="http://www.w3.org/1999/02/22-rdf-syntax-ns#"
   xmlns:svg="http://www.w3.org/2000/svg"
   xmlns="http://www.w3.org/2000/svg"
   xmlns:sodipodi="http://sodipodi.sourceforge.net/DTD/sodipodi-0.dtd"
   xmlns:inkscape="http://www.inkscape.org/namespaces/inkscape"
   version="1.1"
   id="Layer_1"
   x="0px"
   y="0px"
   viewBox="0 0 400.00001 400.00001"
   xml:space="preserve"
   sodipodi:docname="fuelconsumption.svg"
   width="400"
   height="400"
   inkscape:version="0.92.5 (2060ec1f9f, 2020-04-08)"><metadata
   id="metadata1131"><rdf:RDF><cc:Work
       rdf:about=""><dc:format>image/svg+xml</dc:format><dc:type
         rdf:resource="http://purl.org/dc/dcmitype/StillImage" /><dc:title /></cc:Work></rdf:RDF></metadata><defs
   id="defs1129">
	
	
<filter
   inkscape:collect="always"
   style="color-interpolation-filters:sRGB"
   id="filter5032"
   x="-0.057444939"
   width="1.1148899"
   y="-0.01516867"
   height="1.0303373"><feGaussianBlur
     inkscape:collect="always"
     stdDeviation="5.6381359"
     id="feGaussianBlur5034" /></filter></defs><sodipodi:namedview
   pagecolor="#ffffff"
   bordercolor="#666666"
   borderopacity="1"
   objecttolerance="10"
   gridtolerance="10"
   guidetolerance="10"
   inkscape:pageopacity="0"
   inkscape:pageshadow="2"
   inkscape:window-width="1920"
   inkscape:window-height="1016"
   id="namedview1127"
   showgrid="false"
   inkscape:zoom="0.95130988"
   inkscape:cx="2.6412245"
   inkscape:cy="103.92393"
   inkscape:window-x="0"
   inkscape:window-y="27"
   inkscape:window-maximized="1"
   inkscape:current-layer="Layer_1" />


<g
   id="g1096"
   transform="translate(0,-96.15799)">
</g>
<g
   id="g1098"
   transform="translate(0,-96.15799)">
</g>
<g
   id="g1100"
   transform="translate(0,-96.15799)">
</g>
<g
   id="g1102"
   transform="translate(0,-96.15799)">
</g>
<g
   id="g1104"
   transform="translate(0,-96.15799)">
</g>
<g
   id="g1106"
   transform="translate(0,-96.15799)">
</g>
<g
   id="g1108"
   transform="translate(0,-96.15799)">
</g>
<g
   id="g1110"
   transform="translate(0,-96.15799)">
</g>
<g
   id="g1112"
   transform="translate(0,-96.15799)">
</g>
<g
   id="g1114"
   transform="translate(0,-96.15799)">
</g>
<g
   id="g1116"
   transform="translate(0,-96.15799)">
</g>
<g
   id="g1118"
   transform="translate(0,-96.15799)">
</g>
<g
   id="g1120"
   transform="translate(0,-96.15799)">
</g>
<g
   id="g1122"
   transform="translate(0,-96.15799)">
</g>
<g
   id="g1124"
   transform="translate(0,-96.15799)">
</g>
<g
   id="g5128"
   transform="matrix(0.30459971,0,0,0.30459971,-344.57921,255.92255)"><path
     id="path367"
     d="m 1756.8686,-41.669515 c -5.4525,6.660928 -6.4827,17.40093 -6.0713,64.364454 0.1095,25.813118 0.2876,59.022009 0.2393,73.779219 -0.048,14.757222 -0.2959,46.640772 -0.3924,70.977472 -0.097,24.3367 -0.5431,44.86908 -0.9002,45.76178 -0.357,0.89272 -3.5022,3.37853 -6.8739,5.53473 -5.7546,3.63257 -6.1529,4.23 -7.2037,10.93905 -1.3941,8.56316 -0.1581,17.42162 2.4856,18.67832 2.9803,1.51079 20.7109,2.58915 42.2734,2.65125 10.5408,0.0345 25.2981,0.0827 32.9548,0.15838 7.6567,0.0756 19.6396,0.0895 26.7401,0.0622 7.025,-0.13724 18.6371,-0.19202 25.8131,-0.10951 45.3086,0.24095 56.5019,-0.65848 62.9844,-5.11508 6.4825,-4.45661 7.2379,-5.94675 7.3067,-14.08415 -0.021,-9.20867 -2.8565,-13.56927 -9.4969,-14.99083 -6.5649,-1.31169 -6.1941,1.34585 -6.1659,-48.50868 -0.082,-21.30149 -0.089,-50.25968 -0.068,-64.3508 -0.014,-13.905722 0.227,-25.559052 0.5567,-25.785652 1.3184,-0.90643 8.927,3.57098 10.9665,6.53756 4.6832,6.81215 6.6125,33.154032 5.1493,70.565512 -1.1953,30.2698 2.0938,43.05622 13.1977,51.441 7.8901,6.06369 20.5391,8.69393 31.3478,6.76444 7.9315,-1.40766 9.916,-2.28659 17.5248,-8.16466 10.3555,-7.76644 14.5514,-14.37245 17.9095,-27.84549 2.6852,-11.39236 2.4106,-22.85337 -1.3796,-47.43047 -2.9457,-19.81825 -6.0766,-52.615162 -6.509,-69.954403 -0.3569,-9.46277 -0.068,-9.98465 5.0337,-15.27218 7.6912,-7.876359 8.3092,-8.624839 8.7007,-12.291819 1.4422,-10.376063 -20.2571,-43.35177 -39.0931,-59.688634 -11.6463,-10.115307 -28.7313,-20.374834 -37.0404,-22.105424 -7.7185,-1.81301 -12.8826,1.73718 -15.0526,10.348351 -2.2731,9.167457 -1.2363,11.852494 7.2444,17.833776 6.091,4.388071 8.5356,7.237913 16.4325,18.9600505 5.1021,7.656773 10.7123,17.2294725 12.3604,21.2741505 3.5569,8.233638 6.8597,27.159169 9.9908,54.77832 7.9579,73.003352 10.2168,96.529802 9.736,101.714372 -0.5975,7.36832 -3.8868,10.11504 -10.1289,8.09606 -7.9863,-2.4379 -9.0164,-7.23106 -8.7206,-38.33865 0.3025,-30.62689 -0.3152,-50.589312 -1.7915,-63.327652 -0.8789,-7.16229 -1.7578,-9.14686 -8.1784,-18.4861 -8.6866,-12.635421 -11.969,-14.585701 -27.6463,-16.913831 l -11.0078,-1.65512 0.2336,-9.545149 c 0.7076,-25.565845 -0.3219,-66.603147 -1.7021,-72.611827 -2.163,-9.030136 -7.0247,-12.807101 -18.4789,-14.640751 -8.9683,-1.27736 -67.9765,-2.61727 -105.9923,-2.37055 -21.8921,0.16452 -22.2973,0.28126 -28.3746,4.62113 -3.516,2.41714 -7.5332,5.987933 -8.9135,7.745875 z"
     inkscape:connector-curvature="0"
     style="fill:#000000;stroke:none;stroke-width:0.13333333" /><g
     transform="rotate(14.21353,1864.3738,-56.384168)"
     id="g5080"><path
       style="fill:#000000;stroke:none;stroke-width:0.13333333"
       inkscape:connector-curvature="0"
       d="m 1354.4771,-708.92192 -6,3.06667 0.2667,26.66666 c 0.4,31.46667 6.5333,184.8 8.4,208.26666 1.3333,16.53334 3.0666,23.06667 6.1333,23.06667 0.9333,0 2.2667,0.93333 2.9333,2.13333 1.0667,1.86667 2.5334,2 11.4667,0.8 12.4,-1.6 16.1333,-3.86666 17.3333,-10.13333 0.9334,-4.66667 -0.8,-61.6 -3.2,-104.8 -0.6666,-12.8 -1.8666,-41.6 -2.6666,-64 -2.4,-65.06666 -3.4667,-82.79999 -5.6,-84.79999 -0.9334,-0.93334 -6.2667,-2.13334 -12.4,-2.53334 -9.4667,-0.8 -11.3334,-0.53333 -16.6667,2.26667 z"
       id="path323" /><path
       style="fill:#000000;stroke:none;stroke-width:0.13333333"
       inkscape:connector-curvature="0"
       d="m 1400.0771,-705.85525 -4.2667,3.6 v 13.06666 c 0,24.8 -0.8,24.4 54,29.33333 48.6667,4.4 98.5334,12.26667 140.5334,22 22.6666,5.2 35.7333,6.4 39.3333,3.46667 4,-3.33333 10.8,-31.6 8.8,-36.93333 -1.8667,-4.8 -6.8,-6.53333 -42,-14.53333 -29.8667,-6.66667 -53.2,-10.8 -80.6667,-14.13334 -6.2666,-0.66666 -17.8666,-2.13333 -26,-3.2 -18.9333,-2.53333 -40.4,-4.26666 -65.3333,-5.46666 l -20.1333,-0.8 z"
       id="path325" /><path
       style="fill:#000000;stroke:none;stroke-width:0.13333333"
       inkscape:connector-curvature="0"
       d="m 1233.1438,-701.18859 c 0,0.66667 0.6666,1.33334 1.3333,1.33334 0.8,0 1.3333,-0.66667 1.3333,-1.33334 0,-0.8 -0.5333,-1.33333 -1.3333,-1.33333 -0.6667,0 -1.3333,0.53333 -1.3333,1.33333 z"
       id="path327" /><path
       style="fill:#000000;stroke:none;stroke-width:0.13333333"
       inkscape:connector-curvature="0"
       d="m 1654.0771,-666.38859 c -1.2,0.66667 -3.2,3.06667 -4.2667,5.2 -2.5333,4.8 -40.4,157.6 -41.4666,167.06666 -0.9334,8.8 0.5333,10.8 10.4,14.26667 8.5333,2.93333 15.8666,3.46667 20,1.2 4.4,-2.4 7.4666,-11.46667 15.8666,-46.93333 13.3334,-56.8 22,-92.8 27.2,-112.66667 l 4.9334,-19.2 -2.9334,-3.06666 c -1.7333,-1.86667 -6.2666,-3.86667 -11.3333,-5.2 -9.7333,-2.4 -14.9333,-2.66667 -18.4,-0.66667 z"
       id="path329" /><path
       style="fill:#000000;stroke:none;stroke-width:0.13333333"
       inkscape:connector-curvature="0"
       d="m 1700.4771,-652.78859 c -2.2667,1.06667 -4.8,3.46667 -5.6,5.33333 -3.6,8 -7.6,28.66667 -6.1333,32.4 1.0666,2.93334 6.5333,5.33334 27.6,12.53334 19.2,6.53333 40.8,14.93333 76.1333,29.33333 27.7333,11.33333 95.3333,46.4 131.4667,68.13333 16.6666,10 32,19.6 34.2666,21.2 5.0667,3.73333 16.6667,4.93333 21.4667,2.4 4.4,-2.4 18.9333,-24 19.2,-28.53333 0.2667,-3.33334 -1.2,-4.93334 -11.7333,-12.8 -12.8,-9.6 -47.4667,-30.66667 -76.8,-46.66667 -19.8667,-10.8 -72.9334,-36.8 -83.2,-40.8 -3.6,-1.46666 -17.0667,-7.2 -29.8667,-12.8 -24.1333,-10.53333 -78.1333,-29.46666 -87.4667,-30.8 -3.2,-0.4 -6.9333,0 -9.3333,1.06667 z"
       id="path331" /><path
       style="fill:#000000;stroke:none;stroke-width:0.13333333"
       inkscape:connector-curvature="0"
       d="m 1695.4104,-541.58859 c -0.5333,0.4 -0.9333,1.46667 -0.9333,2.26667 0,0.8 0.6667,0.66666 1.6,-0.26667 0.8,-0.8 1.2,-1.86667 0.9333,-2.26667 -0.4,-0.4 -1.2,-0.26666 -1.6,0.26667 z"
       id="path335" /><path
       style="fill:#000000;stroke:none;stroke-width:0.13333333"
       inkscape:connector-curvature="0"
       d="m 2007.1438,-494.38859 c -4.6667,4.13333 -87.8667,126.53333 -94.5334,139.19999 -5.4666,10.4 -4.9333,11.86667 6.1334,17.46667 8.1333,4.13333 10.2666,4.66667 15.2,3.86667 4.6666,-0.66667 6.6666,-1.86667 10.4,-6.4 7.7333,-9.46667 90.4,-134.53333 92.5333,-139.86667 1.8667,-4.66666 1.8667,-5.33333 -0.5333,-7.86666 -10,-11.33334 -20.9334,-13.6 -29.2,-6.4 z"
       id="path337" /><path
       style="fill:#000000;stroke:none;stroke-width:0.13333333"
       inkscape:connector-curvature="0"
       d="m 1677.8104,-480.78859 c -0.5333,1.33333 -0.6666,2.8 -0.1333,3.2 1.3333,1.33333 2.4,-0.53334 1.7333,-3.2 -0.5333,-2.26667 -0.5333,-2.26667 -1.6,0 z"
       id="path339" /><path
       style="fill:#000000;stroke:none;stroke-width:0.13333333"
       inkscape:connector-curvature="0"
       d="m 2051.1438,-470.65526 c -5.2,2.13333 -20.5334,21.33333 -23.7334,29.73333 -1.3333,3.6 4.4,9.33334 29.0667,28.93334 30,23.73333 36.5333,29.46666 68.5333,60.13333 36.4,34.8 72.8,74.13333 105.2,113.86666 13.7334,16.66667 16.8,19.46667 21.4667,19.46667 8.8,0 34.8,-18 34.8,-24.13334 0,-3.06666 -2.8,-7.86666 -8.4,-14.4 -2.1333,-2.53333 -5.8667,-7.59999 -8.2667,-11.33333 -2.5333,-3.73333 -8.5333,-11.33333 -13.3333,-16.8 -4.9333,-5.46666 -17.0667,-19.33333 -27.0667,-30.66666 -20,-22.93334 -79.7333,-82.8 -100,-100.26667 -20.8,-18.13333 -53.6,-44.26666 -62.8,-50.26666 -8.6666,-5.6 -10.8,-6.13334 -15.4666,-4.26667 z"
       id="path341" /><path
       style="fill:#d40000;stroke:none;stroke-width:0.13333333"
       inkscape:connector-curvature="0"
       d="m 1594.8771,-451.45526 c -6.1333,5.6 -11.2,15.46667 -14.2667,27.6 -1.0666,4.8 -9.4666,38.93333 -18.6666,76 -9.0667,37.06666 -24.4,99.46666 -34,138.66666 -9.6,39.2 -24.1334,98.26666 -32.2667,131.33333 -8,32.933333 -16.6667,68.3999986 -19.2,78.66666505 -2.5333,10.26666595 -10,40.79999895 -16.6667,67.99999795 -6.6666,27.066666 -14.5333,58.933337 -17.3333,70.666667 -13.7333,56.4 -33.4667,136.53333 -34.6667,141.06666 -1.0666,3.46667 -2.1333,4.93333 -4,4.93333 -2.1333,0 -2.6666,0.93334 -2.6666,4.53334 0,2.53333 0.6666,4.8 1.4666,5.06666 1.0667,0.4 -1.4666,13.06667 -7.8666,39.06667 -5.2,21.33333 -12.5334,50.93333 -16.2667,66 -6.9333,28.53333 -8.1333,39.6 -5.0667,49.6 2.6667,8.8 6.2667,10.66666 30.2667,15.6 11.8667,2.4 22.9333,4 24.6667,3.6 5.3333,-1.33334 10.8,-6.8 15.2,-15.33334 4.2666,-7.73333 6.5333,-16.4 14.9333,-56.13333 2.1333,-9.86666 8.1333,-37.6 13.2,-61.73333 5.2,-24 13.7333,-63.2 18.9333,-87.33333 5.0667,-24 11.0667,-51.73333 13.2,-61.6 2.1334,-9.86667 6.2667,-29.46667 9.3334,-43.33333 3.0666,-14 7.2,-33.46667 9.3333,-43.33333 2.1333,-9.866671 6.2667,-29.46667 9.3333,-43.333336 3.0667,-14 7.2,-33.466666 9.3334,-43.333333 2.1333,-9.866666 8.1333,-37.866665 13.3333,-61.999998 5.2,-24.266666 11.2,-52.133333 13.3333,-62.000003 2.1334,-9.86666 6.2667,-29.46666 9.3334,-43.33333 3.0666,-14 7.2,-33.46666 9.3333,-43.33333 2.1333,-9.86667 5.3333,-24.93333 7.2,-33.33333 43.8667,-204.66666 41.8667,-194.13333 39.7333,-205.86666 -2.6666,-14 -7.2,-17.6 -23.2,-18.93334 l -10,-0.93333 z"
       id="path343" /><path
       style="fill:#b3b3b3;stroke:none;stroke-width:0.13333333;filter:url(#filter5032)"
       inkscape:connector-curvature="0"
       d="m 1641.1438,-400.25526 c 0,0.93333 -0.5334,1.73333 -1.2,1.73333 -0.6667,0 -1.8667,2 -2.8,4.26667 -0.8,2.4 -2.1334,5.46666 -2.8,6.66666 -0.6667,1.33334 -1.2,3.33334 -1.2,4.66667 0,1.2 -0.5334,4 -1.2,6.26667 -2.5334,8.26666 -4.2667,14.8 -4.6667,17.06666 -0.1333,1.33334 -0.6667,2.8 -1.2,3.2 -0.5333,0.53334 -0.9333,2.26667 -0.9333,3.86667 0,1.6 -1.7334,9.86667 -4,18.13333 -2.1334,8.4 -4,16.53334 -4,18.13334 0,1.6 -0.6667,3.33333 -1.4667,3.86666 -1.2,0.66667 -1.3333,-0.53333 -0.8,-4.26666 0.8,-4.66667 0.6667,-4.8 -0.5333,-1.46667 -0.8,2 -1.0667,4.66667 -0.4,6 1.2,2.8 0.6666,8.53333 -0.9334,10.26667 -0.8,0.8 -0.9333,-0.53334 -0.5333,-3.33334 l 0.6667,-4.66666 -1.4667,4.66666 c -0.9333,2.8 -0.9333,4.8 -0.1333,5.06667 1.7333,0.53333 -0.2667,9.06667 -2.1334,8.66667 -0.9333,-0.26667 -1.6,0.53333 -1.6,1.73333 0,1.2 0.6667,1.6 1.7334,1.06667 0.8,-0.53334 0.5333,0.26666 -0.8,1.73333 -1.3334,1.6 -2.6667,5.2 -2.9334,8 -0.1333,2.8 -0.9333,6.26667 -1.4666,7.73333 -0.5334,1.46667 -1.0667,4.8 -1.2,7.6 0,2.66667 -0.4,4.53333 -0.9334,4.13333 -0.6666,-0.26666 -1.0666,0 -1.0666,0.66667 0,1.2 -1.7334,9.6 -9.0667,43.6 -6.6667,30.66667 -46.2667,214.1333284 -79.0667,366.66666 -16.9333,78.4 -37.8666,175.59999 -46.5333,215.99999 -8.6667,40.26667 -17.0667,76.93333 -18.6667,81.2 -2,5.33333 -5.3333,10.26667 -9.8666,15.06667 -6,6 -7.7334,7.06666 -11.8667,7.06666 -4.6667,0 -4.9333,0.13334 -4.8,4.26667 0.2667,4.13333 0.2667,4.13333 0.8,0.66667 0.8,-4.93334 3.0667,-4.53334 3.0667,0.53333 0,5.86667 2.2666,7.33333 14.1333,9.86667 16.8,3.6 19.2,4 23.3333,3.6 2.5334,-0.26667 9.2,-13.06667 10.8,-20.8 0.5334,-3.06667 1.6,-8.13334 2.2667,-11.46667 0.8,-3.33333 2.2667,-11.06667 3.6,-17.33333 1.2,-6.26667 2.5333,-12.26667 2.9333,-13.33334 0.4,-1.06666 0.8,-2.93333 1.0667,-4 0.1333,-1.06666 1.0667,-5.33333 1.8667,-9.33333 0.9333,-4 2.6666,-12.4 4,-18.66666 1.4666,-6.26667 3.7333,-16.8 5.2,-23.33334 1.4666,-6.66666 2.9333,-13.46666 3.3333,-15.33333 0.8,-4.8 3.0667,-14.53333 4.1333,-17.6 0.4,-1.6 1.0667,-5.46667 2.8,-15.73333 0.4,-2.53334 1.0667,-5.6 1.4667,-6.66667 0.4,-1.06667 0.9333,-3.86667 1.2,-6 0.4,-2.26667 1.2,-5.73333 1.8667,-7.86667 0.8,-2.13333 1.3333,-5.46666 1.3333,-7.33333 0,-2 0.6667,-4.26667 1.6,-5.2 0.9333,-0.93333 1.2,-1.6 0.8,-1.6 -0.4,0 -0.2667,-2.26667 0.4,-5.06667 0.6667,-2.66666 1.6,-7.06666 2,-9.6 0.2667,-2.53333 1.2,-6.53333 1.7333,-8.66666 2.2667,-7.33333 4.1334,-16.66667 4.1334,-19.73333 0,-1.73334 0.4,-3.6 0.9333,-4.13334 0.5333,-0.4 1.0667,-1.86666 1.2,-3.2 0.4,-3.2 2.9333,-14.8 6.1333,-28.66666 1.4667,-6.4 2.8,-13.2 2.8,-15.06667 0,-1.73333 0.5334,-3.2 1.3334,-3.2 0.8,0 1.0666,-0.26667 0.6666,-0.8 -0.4,-0.4 -0.2666,-2.93333 0.4,-5.6 1.0667,-4.4 2.9334,-12.8 4.4,-20.93333 0.2667,-1.46667 0.9334,-4.53334 1.4667,-6.66667 0.5333,-2.26667 1.2,-5.86667 1.6,-8 0.2667,-2.26667 0.8,-4.66667 0.9333,-5.33333 0.2667,-0.8 0.6667,-2 0.9334,-2.66667 0.4,-1.6 2.2666,-9.73333 3.8666,-18 1.2,-5.86666 2.5334,-12 3.3334,-16 0.2666,-1.06666 0.5333,-2 0.6666,-2 0.1334,0 0.4,-1.46666 0.8,-3.33333 1.3334,-7.733334 4.8,-23.866667 6.5334,-31.333333 1.0666,-4.4 2.2666,-9.466667 2.5333,-11.333333 0.4,-1.866667 0.6667,-3.333334 0.8,-3.333334 0.1333,0 0.4,-1.466666 0.8,-3.333333 0.2667,-1.866667 1.0667,-6 1.8667,-9.333333 0.6666,-3.333333 1.6,-7.866666 1.8666,-10 0.4,-2.266666 1.3334,-6.666666 2.1334,-9.999999 0.8,-3.333334 1.8666,-7.866667 2.1333,-10 0.4,-2.266667 1.0667,-4.9333335 1.4667,-6.0000001 0.4,-1.0666666 1.0666,-3.4666666 1.3333,-5.3333332 0.2667,-1.86666662 1.4667,-7.5999998 2.5333,-12.6666667 1.2,-5.2 2.4,-10.799999 2.6667,-12.666666 0.4,-1.866667 1.7333,-8.533333 3.2,-15.066666 1.4667,-6.4 3.8667,-16.8 5.3333,-23.333333 2.8,-12.8 3.7334,-17.333333 4.8,-24.266666 0.4,-2.533333 1.3334,-6.133333 2,-8 0.6667,-1.866667 1.3334,-5.333333 1.4667,-7.733334 0.1333,-2.26667 0.6667,-4.26667 1.2,-4.26667 0.5333,0 1.2,-2.53333 1.6,-5.73333 0.2667,-3.06667 0.9333,-7.46667 1.4667,-9.6 2.5333,-12 3.6,-16.93333 5.6,-25.33333 1.2,-5.2 2.4,-10.8 2.6666,-12.66667 0.4,-1.86666 1.7334,-8.13333 3.0667,-14 2.6667,-10.93333 5.0667,-23.06666 5.8667,-28.26666 0.2666,-1.6 0.8,-3.46667 1.3333,-3.86667 0.5333,-0.53333 0.9333,-2.4 0.9333,-4.13333 0,-2.8 1.3334,-9.2 4.1334,-20.4 0.6666,-2.53334 1.4666,-6.53334 1.8666,-8.66667 1.0667,-6.66667 2,-11.46667 4.6667,-22.66667 1.3333,-5.86666 3.7333,-16.66666 5.3333,-23.99999 1.4667,-7.33334 3.8667,-18.4 5.2,-24.66667 4.5334,-20.93333 5.6,-26 6,-28 0.2667,-1.06667 0.8,-2.93333 1.2,-4 0.4,-1.06667 1.0667,-3.86667 1.3334,-6 1.4666,-8.13333 2.4,-13.46667 3.6,-19.33333 4,-18.66667 4.5333,-24.66667 2.5333,-29.2 -1.3333,-3.06667 -2.9333,-4.26667 -5.8667,-4.66667 -6.1333,-0.93333 -8.6666,-0.53333 -8.6666,1.46667 z"
       id="path345" /><path
       style="fill:#000000;stroke:none;stroke-width:0.13333333"
       inkscape:connector-curvature="0"
       d="m 1368.6104,-390.92193 c -0.1333,0.26667 -0.1333,2.13333 0.2667,4.4 0.5333,3.33333 1.2,4 4.4,4 3.4667,0 3.8667,-0.4 3.8667,-4.66667 0,-4.4 -0.2667,-4.66666 -4,-4.4 -2.2667,0.13334 -4.2667,0.53334 -4.5334,0.66667 z"
       id="path347" /><path
       style="fill:#000000;stroke:none;stroke-width:0.13333333"
       inkscape:connector-curvature="0"
       d="m 1375.5438,-329.45526 c -3.0667,0.4 -3.7334,1.06666 -3.7334,4.4 0,3.46666 0.4,3.86666 4.6667,3.86666 4.5333,0 4.5333,-0.13333 3.7333,-4.4 -0.4,-2.26666 -0.8,-4.26666 -0.9333,-4.26666 -0.1333,0 -1.7333,0.13333 -3.7333,0.4 z"
       id="path349" /><path
       style="fill:#000000;stroke:none;stroke-width:0.13333333"
       inkscape:connector-curvature="0"
       d="m 1609.2771,-295.05526 c 0,1.46666 0.4,1.86666 0.8,0.8 0.4,-0.93334 0.2667,-2.13334 -0.1333,-2.53334 -0.4,-0.53333 -0.8,0.26667 -0.6667,1.73334 z"
       id="path351" /><path
       style="fill:#000000;stroke:none;stroke-width:0.13333333"
       inkscape:connector-curvature="0"
       d="m 1374.4771,-264.12193 c 0,4.93333 0.5333,5.2 5.3333,4.53333 3.3334,-0.53333 4,-1.2 4,-4.4 0,-3.46666 -0.4,-3.86666 -4.6666,-3.86666 -4.2667,0 -4.6667,0.4 -4.6667,3.73333 z"
       id="path353" /><path
       style="fill:#000000;stroke:none;stroke-width:0.13333333"
       inkscape:connector-curvature="0"
       d="m 2287.8104,-220.12193 c -2.5333,1.2 -9.4666,6 -15.3333,10.4 -5.8667,4.53333 -31.6,22.93333 -57.3333,41.2 -66,46.79999 -69.7334,49.73333 -68.1334,55.73333 1.2,4.8 11.6,15.066664 16.2667,15.999997 6.9333,1.333334 15.8667,-3.866667 51.8667,-30.399997 35.7333,-26.4 68.1333,-50.13333 82.2666,-60.53333 8.4,-6.13334 16,-12.26667 16.9334,-13.6 1.7333,-2.93334 -1.2,-9.73334 -7.2,-17.06667 -2.9334,-3.46667 -4.5334,-4.13333 -9.2,-4.13333 -3.0667,0 -7.6,1.06666 -10.1334,2.4 z"
       id="path355" /><path
       style="fill:#000000;stroke:none;stroke-width:0.13333333"
       inkscape:connector-curvature="0"
       d="m 1377.1438,-202.65527 c 0,4.8 1.3333,5.86667 6,4.66667 2.5333,-0.66667 3.3333,-1.6 3.3333,-4.66667 0,-3.46666 -0.4,-3.86666 -4.6667,-3.86666 -4.2666,0 -4.6666,0.26666 -4.6666,3.86666 z"
       id="path357" /><path
       style="fill:#000000;stroke:none;stroke-width:0.13333333"
       inkscape:connector-curvature="0"
       d="m 2321.4104,-185.1886 c -1.6,0.66667 -8,4.53333 -14.2666,8.66667 -11.2,7.33333 -16.6667,13.06666 -16.6667,17.2 0,2.8 4.6667,12.13333 8.8,17.73333 1.7333,2.26667 3.2,4.8 3.2,5.46667 0,0.66666 2,3.86666 4.5333,7.06666 4.9334,6.4 36.1334,59.333333 38.1334,64.666667 0.8,1.866666 2.8,5.333333 4.5333,7.599999 5.2,7.066667 35.0667,71.199999 43.6,93.599998 1.6,4.4 4.9333,12 7.4666,16.933333 2.4,4.933333 4.4,9.733333 4.4,10.666666 0.1334,3.466667 9.4667,24.266667 12.2667,27.466666 2.8,2.933334 3.8667,3.2 11.0667,2.533334 11.2,-0.933334 28.8,-6.8 32.5333,-10.8 4,-4.266667 3.4667,-8.133333 -3.8667,-27.199999 -8.6666,-22.4 -22,-54.6666656 -26.6666,-64.9333321 -1.4667,-2.9333329 -6.8,-14.6666659 -11.8667,-25.9999989 -5.2,-11.333333 -10.5333,-22.533333 -11.7333,-24.933333 -3.2,-5.733333 -13.2,-22.133333 -18.4,-30.399999 -2.2667,-3.733334 -4.8,-8.533333 -5.6,-10.800001 -0.8,-2.26667 -3.7333,-8 -6.6667,-12.66667 -2.9333,-4.66666 -6.1333,-10 -7.2,-11.86666 -1.0666,-1.86667 -2.6666,-4.26667 -3.6,-5.46667 -0.8,-1.2 -5.3333,-8.13333 -10,-15.6 -11.7333,-19.06666 -13.3333,-21.73333 -15.4666,-25.46666 -2.1334,-3.86667 -12.9334,-14.8 -14.4,-14.66667 -0.6667,0 -2.4,0.53333 -4.1334,1.2 z"
       id="path359" /><path
       style="fill:#000000;stroke:none;stroke-width:0.13333333"
       inkscape:connector-curvature="0"
       d="m 1379.8104,-143.5886 c 0.1334,5.33333 1.7334,7.73333 5.4667,7.73333 3.4667,0 3.8667,-0.4 3.8667,-4.66666 0,-4.4 -0.2667,-4.66667 -4.6667,-4.66667 -2.8,0 -4.6667,0.66667 -4.6667,1.6 z"
       id="path361" /><path
       style="fill:#000000;stroke:none;stroke-width:0.13333333"
       inkscape:connector-curvature="0"
       d="m 1383.8104,-79.188603 c 0,4.266667 0.4,4.666667 3.7334,4.666667 4.9333,0 5.2,-0.533334 4.5333,-5.333334 -0.5333,-3.333333 -1.2,-3.999999 -4.4,-3.999999 -3.4667,0 -3.8667,0.399999 -3.8667,4.666666 z"
       id="path363" /><path
       style="fill:#000000;stroke:none;stroke-width:0.13333333"
       inkscape:connector-curvature="0"
       d="m 1388.2104,-21.721938 c -0.9333,0.4 -1.7333,2.533334 -1.7333,4.666667 0,3.6 0.4,3.866666 4.8,3.866666 4.5333,0 4.6667,-0.133333 4.2667,-4.399999 -0.4,-4.266667 -3.2,-5.866667 -7.3334,-4.133334 z"
       id="path365" /><path
       style="fill:#000000;stroke:none;stroke-width:0.13333333"
       inkscape:connector-curvature="0"
       d="m 1392.8771,39.878061 c -3.0667,0.4 -3.7333,1.066666 -3.7333,4.4 0,3.6 0.4,3.866666 4.6666,3.866666 4.2667,0 4.6667,-0.266666 4.6667,-3.866666 0,-4.533334 -0.6667,-5.066667 -5.6,-4.4 z"
       id="path369" /><path
       style="fill:#000000;stroke:none;stroke-width:0.13333333"
       inkscape:connector-curvature="0"
       d="m 1391.8104,103.07806 c 0.1334,5.46667 1.6,7.2 5.4667,6.66667 3.2,-0.53334 3.8667,-1.2 3.8667,-4.4 0,-3.46667 -0.4,-3.86667 -4.6667,-3.86667 -2.8,0 -4.6667,0.66667 -4.6667,1.6 z"
       id="path371" /><path
       style="fill:#000000;stroke:none;stroke-width:0.13333333"
       inkscape:connector-curvature="0"
       d="m 2450.4771,105.61139 c -16.8,4.4 -198.2667,61.2 -213.0667,66.66667 -8.4,3.06666 -13.0666,6 -14.1333,8.66666 -0.4,1.2 0.9333,7.6 3.0667,14.26667 2.2666,6.8 5.8666,18.26667 8,25.73333 2.4,7.73334 5.2,14.4 6.8,15.86667 4.6666,4.26667 14.8,4 32.6666,-0.53333 15.0667,-3.73334 121.8667,-28.66667 172,-40.13334 28,-6.4 43.2,-11.06666 47.0667,-14.66666 4.2666,-4 3.7333,-8.26667 -3.0667,-29.2 -3.3333,-10.13334 -6,-19.73333 -6,-21.46667 0,-3.2 -7.4667,-23.33333 -9.7333,-26.4 -1.8667,-2.4 -12,-1.86666 -23.6,1.2 z"
       id="path373" /><path
       style="fill:#000000;stroke:none;stroke-width:0.13333333"
       inkscape:connector-curvature="0"
       d="m 1395.8104,167.47806 c 0,4.93333 0.2667,5.06666 5.0667,3.86666 2.1333,-0.66666 2.9333,-1.86666 2.9333,-4.66666 0,-3.46667 -0.5333,-3.86667 -4,-3.86667 -3.7333,0 -4,0.4 -4,4.66667 z"
       id="path375" /><path
       style="fill:#000000;stroke:none;stroke-width:0.13333333"
       inkscape:connector-curvature="0"
       d="m 2221.8104,203.74472 c -4.1333,1.06667 -4.9333,2.4 -3.4666,6.26667 1.2,3.06667 2,3.46667 5.0666,2.66667 2.1334,-0.53334 3.8667,-1.06667 4.1334,-1.2 0.6666,-0.53334 -1.4667,-8.66667 -2.2667,-8.53334 -0.4,0.13334 -2,0.4 -3.4667,0.8 z"
       id="path377" /><path
       style="fill:#000000;stroke:none;stroke-width:0.13333333"
       inkscape:connector-curvature="0"
       d="m 2159.6771,219.87806 c -1.6,0.8 -1.8667,1.86666 -0.9333,5.2 1.0666,4.13333 1.3333,4.13333 5.2,2.8 3.3333,-1.06667 4,-2 3.3333,-4.26667 -0.4,-1.46667 -0.8,-3.2 -0.8,-3.86667 0,-1.2 -3.8667,-1.06666 -6.8,0.13334 z"
       id="path379" /><path
       style="fill:#000000;stroke:none;stroke-width:0.13333333"
       inkscape:connector-curvature="0"
       d="m 1398.4771,228.81139 c 0,4.26667 0.2667,4.66667 3.8667,4.66667 4.8,0 5.4666,-0.93334 4.5333,-5.73334 -0.5333,-2.93333 -1.4667,-3.6 -4.5333,-3.6 -3.4667,0 -3.8667,0.4 -3.8667,4.66667 z"
       id="path381" /><path
       style="fill:#000000;stroke:none;stroke-width:0.13333333"
       inkscape:connector-curvature="0"
       d="m 2102.4771,234.81139 c -3.4667,0.8 -4.9333,4.66667 -2.9333,7.73333 1.8666,2.8 8.2666,0.53334 8.2666,-2.93333 0,-4.26667 -1.6,-5.73333 -5.3333,-4.8 z"
       id="path383" /><path
       style="fill:#000000;stroke:none;stroke-width:0.13333333"
       inkscape:connector-curvature="0"
       d="m 2041.5438,250.41139 c -3.2,0.66667 -3.6,1.73333 -2.2667,6.66667 0.6667,2.53333 1.4667,2.93333 4.4,2.26666 5.0667,-1.33333 5.3333,-1.6 4.2667,-5.46666 -1.0667,-3.86667 -1.8667,-4.26667 -6.4,-3.46667 z"
       id="path385" /><path
       style="fill:#000000;stroke:none;stroke-width:0.13333333"
       inkscape:connector-curvature="0"
       d="m 1980.7438,266.41139 c -1.4667,0.4 -2.1334,1.33333 -1.7334,2.66667 0.4,1.06666 0.8,2.79999 0.8,3.86666 0,2 4.9334,2.53333 7.6,0.8 0.8,-0.53333 1.2,-2.53333 0.8,-4.66666 -0.6666,-3.6 -2.1333,-4 -7.4666,-2.66667 z"
       id="path387" /><path
       style="fill:#000000;stroke:none;stroke-width:0.13333333"
       inkscape:connector-curvature="0"
       d="m 1922.4771,281.34472 c -2.5333,0.8 -3.2,1.73333 -2.9333,4.26667 0.2666,1.73333 0.9333,3.73333 1.4666,4.26666 1.4667,1.46667 8.1334,-0.4 8.1334,-2.26666 0,-2.8 -1.6,-7.46667 -2.5334,-7.33334 -0.4,0.13334 -2.2666,0.53334 -4.1333,1.06667 z"
       id="path389" /><path
       style="fill:#000000;stroke:none;stroke-width:0.13333333"
       inkscape:connector-curvature="0"
       d="m 1862.2104,297.07805 c -2.4,0.66667 -3.2,5.06667 -1.3333,8 1.4667,2.4 8.2667,0.53334 8.2667,-2.26666 0,-5.86667 -1.6,-7.2 -6.9334,-5.73334 z"
       id="path391" /><path
       style="fill:#000000;stroke:none;stroke-width:0.13333333"
       inkscape:connector-curvature="0"
       d="m 1801.4104,313.21139 c -1.2,0.8 -1.4666,2.4 -0.8,4.66666 0.8,3.73334 1.8667,4.13334 6.6667,2.8 2.4,-0.66666 2.8,-1.33333 2,-4.26666 -1.0667,-3.73334 -4.6667,-5.2 -7.8667,-3.2 z"
       id="path393" /><path
       style="fill:#000000;stroke:none;stroke-width:0.13333333"
       inkscape:connector-curvature="0"
       d="m 1743.8104,328.14472 c -2.8,0.66667 -3.2,1.6 -2.9333,4.8 0.5333,4.8 0.4,4.66667 5.4667,3.73333 3.8666,-0.8 4.2666,-1.33333 3.4666,-4.4 -1.2,-4.53333 -2,-5.2 -6,-4.13333 z"
       id="path395" /><path
       style="fill:#000000;stroke:none;stroke-width:0.13333333"
       inkscape:connector-curvature="0"
       d="m 1682.7438,343.74472 c -2.4,0.53333 -2.8,1.2 -2.1334,4.13333 1.3334,5.2 1.4667,5.33334 5.2,4.53334 4.2667,-0.8 4.9334,-1.86667 3.8667,-6.26667 -0.8,-3.33333 -1.2,-3.46667 -6.9333,-2.4 z"
       id="path397" /><path
       style="fill:#000000;stroke:none;stroke-width:0.13333333"
       inkscape:connector-curvature="0"
       d="m 1625.1438,358.81139 c -3.4667,0.8 -4.9334,4.66666 -2.8,7.86666 1.7333,2.53334 8.1333,0.8 8,-2.26666 -0.1334,-4.66667 -1.7334,-6.4 -5.2,-5.6 z"
       id="path401" /><path
       style="fill:#000000;stroke:none;stroke-width:0.13333333"
       inkscape:connector-curvature="0"
       d="m 1564.2104,374.41139 c -3.2,0.66666 -3.6,1.73333 -2.2666,6.66666 0.6666,2.53334 1.4666,2.93334 4.4,2.26667 1.8666,-0.53333 3.8666,-1.06667 4.4,-1.46667 1.0666,-0.53333 -1.4667,-8.53333 -2.6667,-8.26666 -0.5333,0.13333 -2.2667,0.53333 -3.8667,0.8 z"
       id="path403" /><path
       style="fill:#000000;stroke:none;stroke-width:0.13333333"
       inkscape:connector-curvature="0"
       d="m 1502.7438,390.54472 c -1.0667,0.8 -1.3334,2.53333 -0.8,5.33333 0.5333,2.4 1.0666,4.26667 1.2,4.26667 0.1333,0 2.1333,-0.66667 4.5333,-1.46667 2.9333,-1.06666 4,-2.13333 3.6,-3.46666 -0.4,-1.06667 -0.8,-2.8 -0.8,-3.86667 0,-2 -4.9333,-2.53333 -7.7333,-0.8 z"
       id="path405" /><path
       style="fill:#000000;stroke:none;stroke-width:0.13333333"
       inkscape:connector-curvature="0"
       d="m 1324.0771,437.21138 c -1.2,0.8 -1.4667,2.4 -0.8,4.66667 0.8,3.73333 1.8667,4.13333 6.6667,2.8 2.4,-0.66667 2.8,-1.33333 2,-4.26667 -1.0667,-3.73333 -4.6667,-5.2 -7.8667,-3.2 z"
       id="path407" /><path
       style="fill:#000000;stroke:none;stroke-width:0.13333333"
       inkscape:connector-curvature="0"
       d="m 1266.4771,452.14472 c -2.8,0.66666 -3.2,1.6 -2.9333,4.8 0.5333,4.8 0.4,4.66666 5.3333,3.73333 3.7333,-0.8 4.1333,-1.2 3.4667,-4.4 -1.2,-4.66667 -2,-5.2 -5.8667,-4.13333 z"
       id="path409" /><path
       style="fill:#000000;stroke:none;stroke-width:0.13333333"
       inkscape:connector-curvature="0"
       d="m 1412.4771,470.41138 c -2.2667,0.4 -2.6667,1.33334 -2.2667,5.06667 0.5334,4.26667 0.9334,4.66667 5.2,4.66667 4.4,0 4.5334,-0.13334 4.1334,-4.93334 -0.4,-5.2 -1.6,-6 -7.0667,-4.8 z"
       id="path411" /><path
       style="fill:#000000;stroke:none;stroke-width:0.13333333"
       inkscape:connector-curvature="0"
       d="m 1413.1438,536.94471 c 0,4.4 0.2666,4.8 3.0666,4 1.6,-0.4 3.7334,-0.8 4.6667,-0.8 0.9333,0 1.6,-1.73333 1.6,-3.99999 0,-3.73334 -0.4,-4 -4.6667,-4 -4.5333,0 -4.6666,0.26666 -4.6666,4.79999 z"
       id="path413" /><path
       style="fill:#000000;stroke:none;stroke-width:0.13333333"
       inkscape:connector-curvature="0"
       d="m 1415.8104,596.14471 c 0,2.13334 0.9334,2.66667 4.6667,2.66667 3.7333,0 4.6667,-0.53333 4.6667,-2.66667 0,-2.13333 -0.9334,-2.66666 -4.6667,-2.66666 -3.7333,0 -4.6667,0.53333 -4.6667,2.66666 z"
       id="path415" /></g></g></svg>