<?xml version="1.0" encoding="UTF-8" standalone="no"?>
<!-- Generator: Adobe Illustrator 19.0.0, SVG Export Plug-In . SVG Version: 6.00 Build 0)  -->

<svg
   xmlns:dc="http://purl.org/dc/elements/1.1/"
   xmlns:cc="http://creativecommons.org/ns#"
   xmlns:rdf="http://www.w3.org/1999/02/22-rdf-syntax-ns#"
   xmlns:svg="http://www.w3.org/2000/svg"
   xmlns="http://www.w3.org/2000/svg"
   xmlns:sodipodi="http://sodipodi.sourceforge.net/DTD/sodipodi-0.dtd"
   xmlns:inkscape="http://www.inkscape.org/namespaces/inkscape"
   version="1.1"
   id="Layer_1"
   x="0px"
   y="0px"
   viewBox="0 0 400.00001 400.00001"
   xml:space="preserve"
   sodipodi:docname="monitoring.svg"
   width="400"
   height="400"
   inkscape:version="0.92.4 5da689c313, 2019-01-14"><metadata
   id="metadata1131"><rdf:RDF><cc:Work
       rdf:about=""><dc:format>image/svg+xml</dc:format><dc:type
         rdf:resource="http://purl.org/dc/dcmitype/StillImage" /><dc:title></dc:title></cc:Work></rdf:RDF></metadata><defs
   id="defs1129">
	
	
</defs><sodipodi:namedview
   pagecolor="#ffffff"
   bordercolor="#666666"
   borderopacity="1"
   objecttolerance="10"
   gridtolerance="10"
   guidetolerance="10"
   inkscape:pageopacity="0"
   inkscape:pageshadow="2"
   inkscape:window-width="1920"
   inkscape:window-height="1017"
   id="namedview1127"
   showgrid="true"
   inkscape:zoom="0.67267767"
   inkscape:cx="-93.407699"
   inkscape:cy="384.11481"
   inkscape:window-x="0"
   inkscape:window-y="27"
   inkscape:window-maximized="1"
   inkscape:current-layer="layer2"
   showguides="true"
   inkscape:guide-bbox="true"><sodipodi:guide
     position="8.1762788,199.94718"
     orientation="0,1"
     id="guide1015"
     inkscape:locked="false" /><sodipodi:guide
     position="200,349.04102"
     orientation="1,0"
     id="guide1017"
     inkscape:locked="false" /><inkscape:grid
     type="xygrid"
     id="grid1041"
     dotted="true" /></sodipodi:namedview>


<g
   id="g1096"
   transform="translate(0,-96.15799)">
</g>
<g
   id="g1098"
   transform="translate(0,-96.15799)">
</g>
<g
   id="g1100"
   transform="translate(0,-96.15799)">
</g>
<g
   id="g1102"
   transform="translate(0,-96.15799)">
</g>
<g
   id="g1104"
   transform="translate(0,-96.15799)">
</g>
<g
   id="g1106"
   transform="translate(0,-96.15799)">
</g>
<g
   id="g1108"
   transform="translate(0,-96.15799)">
</g>
<g
   id="g1110"
   transform="translate(0,-96.15799)">
</g>
<g
   id="g1112"
   transform="translate(0,-96.15799)">
</g>
<g
   id="g1114"
   transform="translate(0,-96.15799)">
</g>
<g
   id="g1116"
   transform="translate(0,-96.15799)">
</g>
<g
   id="g1118"
   transform="translate(0,-96.15799)">
</g>
<g
   id="g1120"
   transform="translate(0,-96.15799)">
</g>
<g
   id="g1122"
   transform="translate(0,-96.15799)">
</g>
<g
   id="g1124"
   transform="translate(0,-96.15799)">
</g>
<g
   inkscape:groupmode="layer"
   id="layer1"
   inkscape:label="Fundo"
   style="display:inline"
   sodipodi:insensitive="true" /><g
   inkscape:groupmode="layer"
   id="layer2"
   inkscape:label="Desenho"
   style="display:inline"><path
     style="opacity:1;vector-effect:none;fill:#000000;fill-opacity:1;stroke:none;stroke-width:1.61604249;stroke-linecap:butt;stroke-linejoin:miter;stroke-miterlimit:4;stroke-dasharray:none;stroke-dashoffset:0;stroke-opacity:1"
     d="M 200,7.8847656 A 192.11613,192.11613 0 0 0 7.8847656,200 192.11613,192.11613 0 0 0 200,392.11523 192.11613,192.11613 0 0 0 282.5625,373.05469 L 261.06836,335.82422 A 149.04012,149.04012 0 0 1 200,349.04102 149.04012,149.04012 0 0 1 50.958984,200 149.04012,149.04012 0 0 1 200,50.958984 149.04012,149.04012 0 0 1 306.45117,95.925781 L 277.0293,126.50391 390,146.32031 367,33 336.3418,64.861328 A 192.11613,192.11613 0 0 0 200,7.8847656 Z M 349.03711,200.05273 a 149.04012,149.04012 0 0 1 -2.10352,23.8418 l 41.83594,11.20899 a 192.11613,192.11613 0 0 0 3.34375,-35.05079 z m -9.875,52.81836 a 149.04012,149.04012 0 0 1 -12.11719,24.70118 l 34.60352,26.24218 a 192.11613,192.11613 0 0 0 19.25781,-39.75976 z m -30.25195,48.59961 a 149.04012,149.04012 0 0 1 -21.88672,19.3086 l 21.61328,37.43554 a 192.11613,192.11613 0 0 0 34.6914,-30.64453 z"
     id="path1781"
     inkscape:connector-curvature="0" /><g
     aria-label="24"
     transform="scale(1.0511632,0.95132703)"
     style="font-style:normal;font-variant:normal;font-weight:900;font-stretch:condensed;font-size:161.58480835px;line-height:1.25;font-family:'Noto Sans';-inkscape-font-specification:'Noto Sans, Heavy Condensed';font-variant-ligatures:normal;font-variant-caps:normal;font-variant-numeric:normal;font-feature-settings:normal;text-align:start;letter-spacing:0px;word-spacing:0px;writing-mode:lr-tb;text-anchor:start;fill:#000000;fill-opacity:1;stroke:none;stroke-width:3.02975154"
     id="text1049"><path
       d="m 180.56318,268.92609 h -72.22841 v -19.55177 l 23.75296,-29.08526 q 7.75607,-9.5335 11.63411,-15.51214 4.03962,-5.97864 5.3323,-10.01826 1.45426,-4.20121 1.45426,-8.24083 0,-4.84754 -2.58535,-7.4329 -2.42378,-2.74694 -6.94815,-2.74694 -4.52438,0 -9.04875,2.74694 -4.52438,2.74694 -10.34143,9.53351 l -14.21946,-18.25909 q 7.75607,-9.21033 16.15848,-13.73471 8.56399,-4.68595 20.68285,-4.68595 10.17985,0 17.93592,4.03962 7.75607,4.03962 12.11886,11.31093 4.52437,7.10973 4.52437,16.64324 0,7.75607 -2.26218,14.70421 -2.26219,6.78657 -7.59449,14.38105 -5.17071,7.59449 -14.05788,17.45116 l -11.79569,13.41154 v 0.80793 h 37.48768 z"
       style="font-style:normal;font-variant:normal;font-weight:900;font-stretch:condensed;font-size:161.58480835px;font-family:'Noto Sans';-inkscape-font-specification:'Noto Sans, Heavy Condensed';font-variant-ligatures:normal;font-variant-caps:normal;font-variant-numeric:normal;font-feature-settings:normal;text-align:start;writing-mode:lr-tb;text-anchor:start;fill:#000000;stroke-width:3.02975154"
       id="path1055"
       inkscape:connector-curvature="0" /><path
       d="m 270.56581,246.62738 h -11.79569 v 22.29871 H 230.97753 V 246.62738 H 190.9045 v -21.97553 l 41.20413,-71.09732 h 26.66149 v 70.61256 h 11.79569 z m -39.58828,-22.46029 v -15.02738 q 0,-0.96951 0,-3.55487 0.16159,-2.74694 0.16159,-5.65547 0.16158,-3.07011 0.16158,-5.3323 0.16159,-2.26218 0.32317,-2.42377 h -0.80792 q -2.1006,6.30181 -5.00913,11.47252 l -11.63411,20.52127 z"
       style="font-style:normal;font-variant:normal;font-weight:900;font-stretch:condensed;font-size:161.58480835px;font-family:'Noto Sans';-inkscape-font-specification:'Noto Sans, Heavy Condensed';font-variant-ligatures:normal;font-variant-caps:normal;font-variant-numeric:normal;font-feature-settings:normal;text-align:start;writing-mode:lr-tb;text-anchor:start;fill:#000000;stroke-width:3.02975154"
       id="path1057"
       inkscape:connector-curvature="0" /></g></g></svg>