<?xml version="1.0" encoding="UTF-8" standalone="no"?>
<!-- Generator: Adobe Illustrator 19.0.0, SVG Export Plug-In . SVG Version: 6.00 Build 0)  -->

<svg
   xmlns:dc="http://purl.org/dc/elements/1.1/"
   xmlns:cc="http://creativecommons.org/ns#"
   xmlns:rdf="http://www.w3.org/1999/02/22-rdf-syntax-ns#"
   xmlns:svg="http://www.w3.org/2000/svg"
   xmlns="http://www.w3.org/2000/svg"
   xmlns:sodipodi="http://sodipodi.sourceforge.net/DTD/sodipodi-0.dtd"
   xmlns:inkscape="http://www.inkscape.org/namespaces/inkscape"
   version="1.1"
   id="Layer_1"
   x="0px"
   y="0px"
   viewBox="0 0 400.00001 400.00001"
   xml:space="preserve"
   sodipodi:docname="tracker.svg"
   width="400"
   height="400"
   inkscape:version="0.92.4 5da689c313, 2019-01-14"><metadata
   id="metadata1131"><rdf:RDF><cc:Work
       rdf:about=""><dc:format>image/svg+xml</dc:format><dc:type
         rdf:resource="http://purl.org/dc/dcmitype/StillImage" /><dc:title></dc:title></cc:Work></rdf:RDF></metadata><defs
   id="defs1129">
	
	
</defs><sodipodi:namedview
   pagecolor="#ffffff"
   bordercolor="#666666"
   borderopacity="1"
   objecttolerance="10"
   gridtolerance="10"
   guidetolerance="10"
   inkscape:pageopacity="0"
   inkscape:pageshadow="2"
   inkscape:window-width="1920"
   inkscape:window-height="1017"
   id="namedview1127"
   showgrid="true"
   inkscape:zoom="0.97111917"
   inkscape:cx="-122.1379"
   inkscape:cy="407.0798"
   inkscape:window-x="0"
   inkscape:window-y="27"
   inkscape:window-maximized="1"
   inkscape:current-layer="layer2"
   showguides="true"
   inkscape:guide-bbox="true"><sodipodi:guide
     position="0,200"
     orientation="0,1"
     id="guide96"
     inkscape:locked="false" /><sodipodi:guide
     position="200,200"
     orientation="1,0"
     id="guide98"
     inkscape:locked="false" /><inkscape:grid
     type="xygrid"
     id="grid100"
     dotted="true" /></sodipodi:namedview>


<g
   id="g1096"
   transform="translate(0,-96.15799)">
</g>
<g
   id="g1098"
   transform="translate(0,-96.15799)">
</g>
<g
   id="g1100"
   transform="translate(0,-96.15799)">
</g>
<g
   id="g1102"
   transform="translate(0,-96.15799)">
</g>
<g
   id="g1104"
   transform="translate(0,-96.15799)">
</g>
<g
   id="g1106"
   transform="translate(0,-96.15799)">
</g>
<g
   id="g1108"
   transform="translate(0,-96.15799)">
</g>
<g
   id="g1110"
   transform="translate(0,-96.15799)">
</g>
<g
   id="g1112"
   transform="translate(0,-96.15799)">
</g>
<g
   id="g1114"
   transform="translate(0,-96.15799)">
</g>
<g
   id="g1116"
   transform="translate(0,-96.15799)">
</g>
<g
   id="g1118"
   transform="translate(0,-96.15799)">
</g>
<g
   id="g1120"
   transform="translate(0,-96.15799)">
</g>
<g
   id="g1122"
   transform="translate(0,-96.15799)">
</g>
<g
   id="g1124"
   transform="translate(0,-96.15799)">
</g>
<g
   inkscape:groupmode="layer"
   id="layer1"
   inkscape:label="Fundo"
   style="display:inline" /><g
   inkscape:groupmode="layer"
   id="layer2"
   inkscape:label="Desenho"
   sodipodi:insensitive="true"
   style="display:inline"><g
     id="g946"
     transform="matrix(2.0789474,0,0,2.0789474,-7.89474,-5.9847862)"><path
       style="opacity:1;vector-effect:none;fill:#ffffff;fill-opacity:0.93236712;stroke:none;stroke-width:2;stroke-linecap:butt;stroke-linejoin:miter;stroke-miterlimit:4;stroke-dasharray:none;stroke-dashoffset:0;stroke-opacity:1"
       d="m 39,124 h 122 l 34,70 H 5 Z"
       id="path916"
       inkscape:connector-curvature="0"
       sodipodi:nodetypes="ccccc" /><path
       id="rect94"
       d="M 39,124 5,194 h 190 l -34,-70 z m 4.916016,6.26367 H 69.9375 v 7.85156 c -1.155222,-0.066 -2.353514,-0.0723 -3.609375,0.002 -9.7263,0.57476 -16.225587,5.1976 -21.671875,8.9082 -2.723144,1.8553 -5.197068,3.47492 -7.654297,4.36328 -1.226731,0.44351 -2.441669,0.72175 -3.720703,0.77149 z m 29.021484,0 h 52.63086 c 0.66095,6.36462 3.5035,11.64385 9.41211,14.92578 6.37695,3.54207 16.03007,4.89532 30.26953,3.94336 l 8.12695,16.73242 c -2.32757,3.78073 -5.4514,5.94508 -9.43945,7.35743 -5.05612,1.79058 -11.53165,2.22247 -19.01172,2.59765 -26.33725,1.32102 -37.6797,-8.16967 -46.722655,-18.03711 -4.521479,-4.93372 -8.403246,-10.01584 -13.228516,-13.83789 -3.381463,-2.67842 -7.272109,-4.69234 -12.037109,-5.49804 z m 55.63477,0 h 27.51171 l 7.7461,15.94727 c -13.26045,0.76085 -22.03819,-0.66849 -27.39258,-3.64258 -5.01982,-2.78825 -7.28707,-6.81698 -7.86523,-12.30469 z m -60.730473,10.79688 c 0.723617,-0.012 1.418303,0.009 2.095703,0.0488 V 187.7363 H 16 l 15.851562,-32.63281 c 2.193101,0.15011 4.250172,-0.20049 6.169922,-0.89454 2.933965,-1.06071 5.581946,-2.83674 8.324219,-4.70507 5.484545,-3.73667 11.290924,-7.86858 20.158203,-8.39258 0.455141,-0.0269 0.900829,-0.0435 1.337891,-0.0508 z m 5.095703,0.4082 c 3.997205,0.74739 7.199205,2.4739 10.173828,4.83008 4.415687,3.49762 8.250139,8.45684 12.88086,13.50976 9.261442,10.10585 21.963542,20.36802 49.082032,19.00782 7.50124,-0.37625 14.20744,-0.76391 19.86523,-2.76758 3.92144,-1.38875 7.32111,-3.63432 9.93555,-7.10156 L 184,187.73633 H 72.9375 Z"
       style="opacity:1;vector-effect:none;fill:#000000;fill-opacity:1;stroke:none;stroke-width:2;stroke-linecap:butt;stroke-linejoin:miter;stroke-miterlimit:4;stroke-dasharray:none;stroke-dashoffset:0;stroke-opacity:1"
       inkscape:connector-curvature="0" /><path
       sodipodi:nodetypes="cccccccccccccc"
       inkscape:connector-curvature="0"
       id="path934"
       d="M 99.853516,5.546875 C 74.198341,5.5473025 53.400818,26.344825 53.400391,52 c 0.0154,6.185004 1.265758,12.304662 3.677734,18 H 57 L 58.376953,72.900391 99.705078,160 142.67388,70 c 2.39657,-5.698508 3.63163,-11.818048 3.63281,-18 -4.8e-4,-25.655175 -20.798,-46.452697 -46.453174,-46.453125 z m 0,29.488281 C 109.22304,35.034907 116.81861,42.630472 116.81836,52 116.81861,61.369528 109.22304,68.965093 99.853516,68.964844 90.483988,68.965093 82.888423,61.369528 82.888672,52 82.888423,42.630472 90.483988,35.034907 99.853516,35.035156 Z"
       style="opacity:1;vector-effect:none;fill:#000000;fill-opacity:0.99516913;stroke:none;stroke-width:3;stroke-linecap:butt;stroke-linejoin:miter;stroke-miterlimit:4;stroke-dasharray:none;stroke-dashoffset:0;stroke-opacity:1" /></g></g></svg>