<?xml version="1.0" encoding="UTF-8" standalone="no"?>
<!-- Created with Inkscape (http://www.inkscape.org/) -->

<svg
   version="1.1"
   id="svg2"
   xml:space="preserve"
   width="300"
   height="80"
   viewBox="0 0 300 80"
   sodipodi:docname="bradesco.svg"
   inkscape:version="1.1.2 (0a00cf5339, 2022-02-04, custom)"
   inkscape:export-filename="/home/emerson/www/grupomm/core/Payments/BankingBillet/Renderer/resources/images/bradesco.png"
   inkscape:export-xdpi="100"
   inkscape:export-ydpi="100"
   xmlns:inkscape="http://www.inkscape.org/namespaces/inkscape"
   xmlns:sodipodi="http://sodipodi.sourceforge.net/DTD/sodipodi-0.dtd"
   xmlns="http://www.w3.org/2000/svg"
   xmlns:svg="http://www.w3.org/2000/svg"><defs
     id="defs6" /><sodipodi:namedview
     id="namedview4"
     pagecolor="#ffffff"
     bordercolor="#666666"
     borderopacity="1.0"
     inkscape:pageshadow="2"
     inkscape:pageopacity="1"
     inkscape:pagecheckerboard="0"
     showgrid="false"
     width="634.37335px"
     inkscape:zoom="1.7823317"
     inkscape:cx="177.01531"
     inkscape:cy="57.508936"
     inkscape:window-width="1920"
     inkscape:window-height="1011"
     inkscape:window-x="0"
     inkscape:window-y="32"
     inkscape:window-maximized="1"
     inkscape:current-layer="g8" /><g
     id="g8"
     inkscape:groupmode="layer"
     inkscape:label="ink_ext_XXXXXX"
     transform="matrix(1.3333333,0,0,-1.3333333,0,168.77333)"><g
       id="g871"
       transform="translate(-0.53231437)"><path
         d="m 202.79199,88.393615 c -0.0863,0.218478 -0.11281,0.358267 -0.14884,0.346227 -0.0668,-0.02034 -0.18345,-0.08703 -0.27351,-0.120354 -0.53233,-0.286074 -1.48749,-0.68231 -2.81523,-0.67956 -2.54693,0.01948 -4.80612,1.969235 -4.80612,5.124478 0,3.436481 1.88329,5.304228 4.44492,5.302 1.42207,-0.0018 2.41278,-0.360115 3.34613,-0.994311 0.44226,1.577976 1.18695,3.072615 2.11083,4.304185 -0.36737,0.26663 -0.98503,0.66102 -1.81077,1.05674 v -0.004 c -1.25,0.56106 -2.66639,0.87917 -4.24488,0.87917 -5.65036,0 -9.95734,-3.82513 -9.95734,-10.432923 0,-6.569681 4.30698,-10.38595 9.95734,-10.390595 2.73084,0 4.82698,0.885097 4.82698,0.885097 0.45364,0.177758 1.19264,0.520335 1.50644,0.66752 -1.29977,1.762798 -1.89514,3.435769 -2.13595,4.056076"
         style="fill:#4f4c4c;fill-opacity:1;fill-rule:nonzero;stroke:none;stroke-width:0.0474023"
         id="path12" /><path
         d="m 79.441598,99.363894 h 2.248768 c 2.003697,0 4.074706,0.578309 4.074706,2.826176 0,2.447 -1.97099,2.67382 -4.006921,2.67382 h -2.316553 z m 0,-11.076744 h 2.347365 c 2.232176,0 4.567216,0.385144 4.567216,3.09689 0,2.901545 -2.397611,3.169084 -4.499905,3.169084 h -2.414676 z m -6.112533,21.61917 h 11.090254 c 4.270478,0 7.456864,-2.17662 7.456864,-6.75853 0,-3.363911 -1.475635,-5.234645 -4.040576,-6.227155 v -0.07646 c 3.054133,-0.726204 4.629313,-2.63358 4.629313,-5.883248 0,-6.378935 -4.827929,-7.71587 -8.934869,-7.71587 H 73.329065 v 26.661263 0"
         style="fill:#4f4c4c;fill-opacity:1;fill-rule:nonzero;stroke:none;stroke-width:0.0474023"
         id="path14" /><path
         d="m 139.07944,88.058433 c 1.97099,0 3.61348,2.175721 3.61348,5.081864 0,3.018392 -1.44624,5.190747 -3.61348,5.190747 -2.29711,0 -3.5803,-2.289391 -3.5803,-4.923161 0,-3.173729 1.34433,-5.34945 3.5803,-5.34945 m 9.52693,-4.813376 h -5.45412 v 2.989524 h -0.0649 c -1.15472,-2.208097 -3.36272,-3.449659 -5.88073,-3.449659 -5.09386,0 -7.81807,4.893013 -7.81807,10.771094 0,4.893534 2.59433,10.052804 7.32745,10.052804 2.36348,0 4.36528,-0.72582 5.87789,-3.02095 h 0.0659 v 9.38974 h 5.94663 v -26.732553 0"
         style="fill:#4f4c4c;fill-opacity:1;fill-rule:nonzero;stroke:none;stroke-width:0.0474023"
         id="path16" /><path
         d="m 219.42358,93.175517 c 0,2.983172 -1.11917,5.613102 -3.84575,5.613102 -2.72279,0 -3.83959,-2.62993 -3.83959,-5.613102 0,-2.941363 1.1168,-5.57537 3.83959,-5.57537 2.72658,0 3.84575,2.634007 3.84575,5.57537 m -13.80119,0 c 0,6.607224 4.30508,10.432923 9.95544,10.432923 5.65368,0 9.95449,-3.825699 9.95449,-10.432923 0,-6.569681 -4.30081,-10.391496 -9.95449,-10.391496 -5.65036,0 -9.95544,3.821815 -9.95544,10.391496"
         style="fill:#4f4c4c;fill-opacity:1;fill-rule:nonzero;stroke:none;stroke-width:0.0474023"
         id="path18" /><path
         d="m 120.83665,89.559239 c -0.78024,-1.360969 -2.07433,-2.06186 -3.68553,-2.06186 -1.37941,0 -2.43032,0.80366 -2.43032,2.17847 0,1.907234 1.57755,2.634006 3.5803,2.634006 0.88879,0 1.77664,-0.07684 2.53555,-0.110163 z m 5.80868,-6.316031 c -0.25976,1.572999 -0.3285,3.133959 -0.3285,4.698568 v 7.41406 c 0,6.071384 -3.77559,8.251704 -8.14799,8.251704 -2.4872,0 -4.65822,-0.41017 -6.73445,-1.3695 v -4.654484 l 0.002,-0.05314 c 1.64392,1.07063 3.54902,1.492226 5.45696,1.492226 2.13311,0 3.87088,-0.726772 3.90501,-3.439988 -0.75607,0.152778 -1.80224,0.269956 -2.75787,0.269956 -3.15321,0 -8.84054,-0.726393 -8.84054,-6.801668 0,-4.316221 3.02759,-6.266022 6.40643,-6.266022 2.23976,0 4.16714,1.066553 5.25502,3.091344 v -2.633058 h 5.78356 v 0"
         style="fill:#4f4c4c;fill-opacity:1;fill-rule:nonzero;stroke:none;stroke-width:0.0474023"
         id="path20" /><path
         d="m 106.31636,103.60844 c -2.56352,0 -4.04105,-1.60926 -5.0621,-4.124523 h -0.0621 v 3.664773 H 95.802519 V 83.243208 h 5.916291 v 8.40747 c 0,3.888462 1.52446,6.235258 4.27853,6.4343 0.56836,0.04072 1.51877,-0.125189 2.02693,-0.322383 v 5.541285 c -0.50105,0.18032 -1.177,0.30456 -1.70791,0.30456"
         style="fill:#4f4c4c;fill-opacity:1;fill-rule:nonzero;stroke:none;stroke-width:0.0474023"
         id="path22" /><path
         d="m 157.57442,95.086401 c 0.13178,2.289391 1.15282,4.160836 3.28403,4.160836 2.36633,0 3.28783,-1.871445 3.28783,-4.160836 z m 11.8904,-2.635808 c 0,5.921407 -2.2938,11.157847 -8.63481,11.157847 -5.3247,0 -9.16951,-3.825699 -9.16951,-10.392204 0,-6.570582 4.30603,-10.431314 9.95165,-10.431314 2.20184,0 4.37097,0.387941 6.27797,1.260997 v 4.851346 c -1.77569,-1.10547 -3.61064,-1.524838 -5.22137,-1.524838 -2.89249,0 -4.70137,1.07025 -5.02749,3.817169 h 11.82356 v 1.260997 0"
         style="fill:#4f4c4c;fill-opacity:1;fill-rule:nonzero;stroke:none;stroke-width:0.0474023"
         id="path24" /><path
         d="m 179.40652,103.60844 c -3.41439,0 -7.29191,-1.87348 -7.29191,-6.461317 0,-7.176858 8.41108,-4.813187 8.41108,-8.174867 0,-1.37116 -1.18411,-1.599829 -2.39761,-1.599829 -2.13595,0 -4.17947,0.686006 -5.55034,1.373909 v -4.737438 c 1.55906,-0.637893 3.38215,-1.224877 5.87884,-1.224877 3.87751,0 7.9816,1.338737 7.9816,6.647421 0,7.567928 -8.80735,5.121682 -8.80735,8.215634 0,1.106702 1.45098,1.404816 2.73037,1.376706 1.35903,-0.03612 3.4727,-0.603859 4.72365,-1.483741 v 4.886139 c -1.81125,0.76972 -3.77276,1.18226 -5.67833,1.18226"
         style="fill:#4f4c4c;fill-opacity:1;fill-rule:nonzero;stroke:none;stroke-width:0.0474023"
         id="path26" /></g><path
       d="M 59.998102,66.580002 H 10.077645 c 0,0 -10.077645,0 -10.077645,10.077834 V 126.58 h 49.920837 c 0,0 10.077265,0 10.077265,-10.07821 v -49.921788 0"
       style="fill:#e5143c;fill-opacity:1;fill-rule:nonzero;stroke:none;stroke-width:0.0474023"
       id="path28" /><path
       d="m 27.292472,75.010605 h -2.954304 v 15.136518 h 2.954304 v -15.136518 0"
       style="fill:#ffffff;fill-opacity:1;fill-rule:nonzero;stroke:none;stroke-width:0.0474023"
       id="path30" /><path
       d="M 34.817216,75.010605 H 29.97919 v 20.777777 h 4.838026 v -20.777777 0"
       style="fill:#ffffff;fill-opacity:1;fill-rule:nonzero;stroke:none;stroke-width:0.0474023"
       id="path32" /><path
       d="m 21.688424,110.25961 c 0,0 4.878744,4.76749 13.098596,3.19724 0,0 3.618506,-0.56105 6.390074,-3.02228 0,0 0.411974,-0.38846 0.729902,-0.0722 0,0 0.40145,0.31664 -0.04574,0.78877 0,0 -2.383627,3.30617 -7.087172,4.76711 0,0 -6.465965,2.31371 -13.107888,-0.81389 0,0 -4.088453,-1.69194 -6.354854,-6.3057 0,0 -3.231134,-1.04712 -5.6540572,-2.40439 0,0 -0.717482,-0.28607 -0.4452977,-0.8403 0,0 0.2314657,-0.39904 0.8582199,-0.10277 0,0 2.249763,0.7755 4.418989,1.26005 0,0 -1.744264,-4.52304 0.07627,-10.140028 0.811244,-2.498625 2.288301,-5.043705 4.551005,-7.087931 0,0 0.368127,-0.386092 0.770288,-0.122204 0,0 0.348123,0.25275 0.101868,0.664724 0,0 -1.801669,2.713594 -2.502512,6.575985 -0.583286,3.143155 -0.308305,7.488814 1.87628,10.930314 0,0 8.317074,1.16193 15.407043,-1.50725 0,0 12.045032,-3.92975 9.011092,-11.217148 0,0 -0.878603,-2.533987 -4.203261,-4.826317 0,0 -0.556788,-0.323142 -0.253318,-0.788823 0,0 0.2509,-0.361064 0.81897,-0.127749 0,0 5.092055,1.654437 7.287874,5.743837 0,0 4.459613,6.82224 -6.052806,12.38552 0,0 -2.888557,1.54594 -6.603905,2.37287 0,0 -6.695061,1.65448 -13.085656,0.69255"
       style="fill:#ffffff;fill-opacity:1;fill-rule:nonzero;stroke:none;stroke-width:0.0474023"
       id="path34" /></g></svg>
