<?xml version="1.0" encoding="UTF-8" standalone="no"?>
<svg
   inkscape:version="1.1.1 (3bf5ae0d25, 2021-09-20, custom)"
   sodipodi:docname="journeys.svg"
   id="svg6"
   version="1.1"
   width="400"
   viewBox="0 0 400 400"
   height="400"
   xmlns:inkscape="http://www.inkscape.org/namespaces/inkscape"
   xmlns:sodipodi="http://sodipodi.sourceforge.net/DTD/sodipodi-0.dtd"
   xmlns="http://www.w3.org/2000/svg"
   xmlns:svg="http://www.w3.org/2000/svg"
   xmlns:rdf="http://www.w3.org/1999/02/22-rdf-syntax-ns#"
   xmlns:cc="http://creativecommons.org/ns#"
   xmlns:dc="http://purl.org/dc/elements/1.1/">
  <metadata
     id="metadata12">
    <rdf:RDF>
      <cc:Work
         rdf:about="">
        <dc:format>image/svg+xml</dc:format>
        <dc:type
           rdf:resource="http://purl.org/dc/dcmitype/StillImage" />
      </cc:Work>
    </rdf:RDF>
  </metadata>
  <defs
     id="defs10" />
  <sodipodi:namedview
     inkscape:current-layer="svg6"
     inkscape:window-maximized="1"
     inkscape:window-y="32"
     inkscape:window-x="0"
     inkscape:cy="305.7377"
     inkscape:cx="254.09836"
     inkscape:zoom="0.61"
     showgrid="false"
     id="namedview8"
     inkscape:window-height="1011"
     inkscape:window-width="1920"
     inkscape:pageshadow="2"
     inkscape:pageopacity="0"
     guidetolerance="10"
     gridtolerance="10"
     objecttolerance="10"
     borderopacity="1"
     bordercolor="#666666"
     pagecolor="#ffffff"
     inkscape:pagecheckerboard="0" />
  <path
     d="m 309.26966,180.13279 c -49.41969,0 -89.40245,39.98276 -89.40245,89.40245 0,49.41969 39.98276,89.40245 89.40245,89.40245 49.41969,0 89.40246,-39.98276 89.40246,-89.40245 0,-49.41969 -39.98277,-89.40245 -89.40246,-89.40245 z m 39.73443,93.31381 c 0,3.2905 -2.73175,6.02225 -6.02225,6.02225 h -37.62353 c -3.29051,0 -6.02225,-2.73175 -6.02225,-6.02225 v -47.55714 c 0,-3.29051 2.73174,-6.02225 6.02225,-6.02225 h 7.82271 c 3.29051,0 6.02225,2.73174 6.02225,6.02225 v 33.71217 h 23.77857 c 3.2905,0 6.02225,2.73175 6.02225,6.02225 z M 200,269.53524 c 0,-17.25964 4.1597,-33.588 11.29948,-48.1159 -4.96681,-0.93128 -10.05778,-1.55213 -15.27292,-1.55213 h -10.3682 c -13.78288,6.33268 -29.11789,9.93361 -45.25999,9.93361 -16.14211,0 -31.41503,-3.60093 -45.259996,-9.93361 H 84.770173 c -46.067096,0 -83.4422881,37.37519 -83.4422881,83.44229 v 25.82737 c 0,16.45254 13.3482831,29.80082 29.8008171,29.80082 H 246.62586 C 218.50134,339.13257 200,306.47584 200,269.53524 Z M 140.39837,200 c 43.89412,0 79.46884,-35.57473 79.46884,-79.46885 0,-43.894116 -35.57472,-79.468842 -79.46884,-79.468842 -43.894125,0 -79.468851,35.574726 -79.468851,79.468842 0,43.89412 35.574726,79.46885 79.468851,79.46885 z"
     id="path2"
     style="stroke-width:0.62085" />
</svg>
