<?xml version="1.0" encoding="UTF-8" standalone="no"?>
<svg
   xmlns:dc="http://purl.org/dc/elements/1.1/"
   xmlns:cc="http://creativecommons.org/ns#"
   xmlns:rdf="http://www.w3.org/1999/02/22-rdf-syntax-ns#"
   xmlns:svg="http://www.w3.org/2000/svg"
   xmlns="http://www.w3.org/2000/svg"
   xmlns:sodipodi="http://sodipodi.sourceforge.net/DTD/sodipodi-0.dtd"
   xmlns:inkscape="http://www.inkscape.org/namespaces/inkscape"
   inkscape:version="1.0 (4035a4fb49, 2020-05-01)"
   sodipodi:docname="journeys.svg"
   id="svg6"
   version="1.1"
   width="400"
   viewBox="0 0 105.83333 105.83333"
   height="400">
  <metadata
     id="metadata12">
    <rdf:RDF>
      <cc:Work
         rdf:about="">
        <dc:format>image/svg+xml</dc:format>
        <dc:type
           rdf:resource="http://purl.org/dc/dcmitype/StillImage" />
      </cc:Work>
    </rdf:RDF>
  </metadata>
  <defs
     id="defs10" />
  <sodipodi:namedview
     inkscape:current-layer="svg6"
     inkscape:window-maximized="1"
     inkscape:window-y="27"
     inkscape:window-x="0"
     inkscape:cy="384.46538"
     inkscape:cx="411.31489"
     inkscape:zoom="0.61"
     showgrid="false"
     id="namedview8"
     inkscape:window-height="704"
     inkscape:window-width="1366"
     inkscape:pageshadow="2"
     inkscape:pageopacity="0"
     guidetolerance="10"
     gridtolerance="10"
     objecttolerance="10"
     borderopacity="1"
     bordercolor="#666666"
     pagecolor="#ffffff" />
  <path
     style="stroke-width:0.165347"
     id="path4"
     class=""
     d="m 103.17614,68.789918 h -2.64553 V 50.915974 c 0,-2.0999 -0.843273,-4.117125 -2.331393,-5.605243 L 81.681115,28.792627 c -1.488117,-1.488118 -3.505343,-2.331384 -5.605242,-2.331384 h -7.291776 v -7.936627 c 0,-4.381679 -3.554947,-7.936626 -7.936626,-7.936626 H 18.518796 c -4.38168,0 -7.936626,3.554947 -7.936626,7.936626 v 7.936627 H 1.3227711 C 0.595247,26.461243 0,27.056491 0,27.784014 v 2.645542 c 0,0.727524 0.595247,1.322772 1.3227711,1.322772 H 46.296989 c 0.727523,0 1.322771,0.595247 1.322771,1.322771 v 2.645542 c 0,0.727523 -0.595248,1.322771 -1.322771,1.322771 H 6.6138554 c -0.7275241,0 -1.3227709,0.595246 -1.3227709,1.322771 v 2.645542 c 0,0.727524 0.5952468,1.322772 1.3227709,1.322772 H 41.005904 c 0.727524,0 1.322771,0.595246 1.322771,1.322771 v 2.645542 c 0,0.727524 -0.595247,1.32277 -1.322771,1.32277 H 1.3227711 C 0.595247,47.62558 0,48.220828 0,48.948351 v 2.645543 c 0,0.727524 0.595247,1.322771 1.3227711,1.322771 H 35.71482 c 0.727524,0 1.32277,0.595247 1.32277,1.322771 v 2.645543 c 0,0.727523 -0.595246,1.322771 -1.32277,1.322771 H 10.58217 v 21.164337 c 0,8.763358 7.109894,15.873253 15.873252,15.873253 8.763358,0 15.873253,-7.109895 15.873253,-15.873253 h 21.164338 c 0,8.763358 7.109894,15.873253 15.873252,15.873253 8.763359,0 15.873253,-7.109895 15.873253,-15.873253 h 7.936622 c 1.45505,0 2.64556,-1.190494 2.64556,-2.645543 v -5.291083 c 0,-1.455049 -1.19051,-2.645543 -2.64556,-2.645543 z M 26.455422,87.308714 c -4.38168,0 -7.936626,-3.554948 -7.936626,-7.936627 0,-4.381679 3.554946,-7.936626 7.936626,-7.936626 4.381679,0 7.936627,3.554947 7.936627,7.936626 0,4.381679 -3.554948,7.936627 -7.936627,7.936627 z m 52.910843,0 c -4.381679,0 -7.936626,-3.554948 -7.936626,-7.936627 0,-4.381679 3.554947,-7.936626 7.936626,-7.936626 4.38168,0 7.936628,3.554947 7.936628,7.936626 0,4.381679 -3.554948,7.936627 -7.936628,7.936627 z M 92.593974,52.916665 H 68.784097 V 34.397869 h 7.291776 l 16.518101,16.518105 z"
     fill="#000000" />
</svg>
