<?xml version="1.0" encoding="UTF-8" standalone="no"?>
<svg
   xmlns:dc="http://purl.org/dc/elements/1.1/"
   xmlns:cc="http://creativecommons.org/ns#"
   xmlns:rdf="http://www.w3.org/1999/02/22-rdf-syntax-ns#"
   xmlns:svg="http://www.w3.org/2000/svg"
   xmlns="http://www.w3.org/2000/svg"
   xmlns:sodipodi="http://sodipodi.sourceforge.net/DTD/sodipodi-0.dtd"
   xmlns:inkscape="http://www.inkscape.org/namespaces/inkscape"
   viewBox="0 0 400 400"
   version="1.1"
   id="svg4"
   sodipodi:docname="vehiclebrands.svg"
   width="400"
   height="400"
   inkscape:version="0.92.4 5da689c313, 2019-01-14">
  <metadata
     id="metadata10">
    <rdf:RDF>
      <cc:Work
         rdf:about="">
        <dc:format>image/svg+xml</dc:format>
        <dc:type
           rdf:resource="http://purl.org/dc/dcmitype/StillImage" />
        <dc:title></dc:title>
      </cc:Work>
    </rdf:RDF>
  </metadata>
  <defs
     id="defs8" />
  <sodipodi:namedview
     pagecolor="#ffffff"
     bordercolor="#666666"
     borderopacity="1"
     objecttolerance="10"
     gridtolerance="10"
     guidetolerance="10"
     inkscape:pageopacity="0"
     inkscape:pageshadow="2"
     inkscape:window-width="960"
     inkscape:window-height="1017"
     id="namedview6"
     showgrid="false"
     inkscape:zoom="0.4609375"
     inkscape:cx="192"
     inkscape:cy="256"
     inkscape:window-x="0"
     inkscape:window-y="27"
     inkscape:window-maximized="0"
     inkscape:current-layer="svg4" />
  <path
     d="m 125.87648,283.30534 c -6.78893,-6.78893 -3.24994,-4.8749 -19.62461,-9.25763 -7.429542,-1.99215 -13.960662,-5.82019 -19.866794,-10.40604 l -35.444607,86.90452 c -3.429619,8.41389 2.976503,17.55434 12.054447,17.21059 l 41.163244,-1.57028 28.31193,29.90566 c 6.24988,6.59362 17.21841,4.53897 20.64803,-3.87493 l 40.66325,-99.70114 c -8.46858,4.71866 -17.86683,7.48423 -27.58538,7.48423 -15.23408,0 -29.54629,-5.92957 -40.31951,-16.69498 z m 223.18305,67.24085 -35.4446,-86.90452 c -5.90614,4.59366 -12.43726,8.41389 -19.8668,10.40604 -16.46061,4.40616 -12.8513,2.48433 -19.62461,9.25763 -10.77322,10.76541 -25.09325,16.69498 -40.32732,16.69498 -9.71855,0 -19.1168,-2.77338 -27.58539,-7.48423 l 40.66326,99.70114 c 3.42962,8.4139 14.40596,10.46855 20.64802,3.87493 l 28.31975,-29.90566 41.16324,1.57028 c 9.07795,0.34375 15.48407,-8.80451 12.05445,-17.21059 z M 255.46765,265.626 c 11.93726,-12.14819 13.30442,-11.10134 30.30408,-15.73406 10.85135,-2.96088 19.33555,-11.59352 22.24174,-22.64017 5.84364,-22.18706 4.32804,-19.50743 20.27304,-35.74148 7.94515,-8.08577 11.04665,-19.8746 8.14046,-30.92126 -5.83582,-22.17143 -5.84363,-19.07774 0,-41.27261 2.90619,-11.04665 -0.19531,-22.83548 -8.14046,-30.921257 -15.945,-16.234051 -14.4294,-13.56223 -20.27304,-35.741476 -2.90619,-11.046655 -11.39039,-19.679295 -22.24174,-22.640174 -21.78082,-5.945194 -19.15587,-4.390537 -35.11649,-20.6324015 -7.94515,-8.085777 -19.53086,-11.249776 -30.38221,-8.288898 -21.773,5.937382 -18.734,5.945194 -40.54606,0 -10.85135,-2.960878 -22.43706,0.195309 -30.38221,8.288898 C 133.39976,25.615163 136.02471,24.068319 114.23608,30.013513 103.38474,32.974392 94.900531,41.607032 91.994339,52.653687 86.158518,74.832933 87.6663,72.161112 71.721305,88.395163 63.776151,96.48094 60.666838,108.26977 63.580842,119.31642 c 5.835822,22.15581 5.843634,19.06212 0,41.2648 -2.906192,11.04666 0.195309,22.83548 8.140463,30.92907 15.944995,16.23405 14.4294,13.55442 20.273034,35.74148 2.906192,11.04665 11.390401,19.67929 22.241741,22.64017 17.48403,4.76553 18.78869,4.01555 30.29627,15.73406 10.33574,10.52323 26.43698,12.40601 38.85861,4.54679 a 30.996258,30.996258 0 0 1 33.2259,0 c 12.41381,7.85922 28.51505,5.97644 38.85079,-4.54679 z M 126.29834,137.47231 c 0,-41.428861 32.99935,-75.014131 73.70166,-75.014131 40.70231,0 73.70166,33.58527 73.70166,75.014131 0,41.42886 -32.99935,75.01413 -73.70166,75.01413 -40.70231,0 -73.70166,-33.58527 -73.70166,-75.01413 z"
     id="path2"
     inkscape:connector-curvature="0"
     style="stroke-width:0.78123444" />
</svg>
