<?xml version="1.0" encoding="UTF-8" standalone="no"?>
<!-- Created with Inkscape (http://www.inkscape.org/) -->

<svg
   xmlns:dc="http://purl.org/dc/elements/1.1/"
   xmlns:cc="http://creativecommons.org/ns#"
   xmlns:rdf="http://www.w3.org/1999/02/22-rdf-syntax-ns#"
   xmlns:svg="http://www.w3.org/2000/svg"
   xmlns="http://www.w3.org/2000/svg"
   xmlns:sodipodi="http://sodipodi.sourceforge.net/DTD/sodipodi-0.dtd"
   xmlns:inkscape="http://www.inkscape.org/namespaces/inkscape"
   version="1.1"
   id="svg2"
   width="400"
   height="400"
   viewBox="0 0 400 400"
   sodipodi:docname="attach.svg"
   inkscape:version="0.92.4 5da689c313, 2019-01-14"
   inkscape:export-filename="/home/emerson/www/grupomm/public/images/erp/icons/attach.png"
   inkscape:export-xdpi="79.690002"
   inkscape:export-ydpi="79.690002">
  <metadata
     id="metadata8">
    <rdf:RDF>
      <cc:Work
         rdf:about="">
        <dc:format>image/svg+xml</dc:format>
        <dc:type
           rdf:resource="http://purl.org/dc/dcmitype/StillImage" />
        <dc:title />
      </cc:Work>
    </rdf:RDF>
  </metadata>
  <defs
     id="defs6" />
  <sodipodi:namedview
     pagecolor="#ffffff"
     bordercolor="#666666"
     borderopacity="1"
     objecttolerance="10"
     gridtolerance="10"
     guidetolerance="10"
     inkscape:pageopacity="0"
     inkscape:pageshadow="2"
     inkscape:window-width="1920"
     inkscape:window-height="1017"
     id="namedview4"
     showgrid="true"
     inkscape:zoom="1.84375"
     inkscape:cx="163.57538"
     inkscape:cy="185.76564"
     inkscape:window-x="0"
     inkscape:window-y="27"
     inkscape:window-maximized="1"
     inkscape:current-layer="layer2">
    <inkscape:grid
       type="xygrid"
       id="grid825"
       dotted="true" />
  </sodipodi:namedview>
  <g
     inkscape:groupmode="layer"
     id="layer2"
     inkscape:label="Fundo"
     style="display:inline;opacity:1"
     transform="translate(0,-112)" />
  <g
     inkscape:groupmode="layer"
     id="layer1"
     inkscape:label="Desenho"
     style="display:inline">
    <path
       style="color:#000000;font-style:normal;font-variant:normal;font-weight:normal;font-stretch:normal;font-size:medium;line-height:normal;font-family:sans-serif;font-variant-ligatures:normal;font-variant-position:normal;font-variant-caps:normal;font-variant-numeric:normal;font-variant-alternates:normal;font-feature-settings:normal;text-indent:0;text-align:start;text-decoration:none;text-decoration-line:none;text-decoration-style:solid;text-decoration-color:#000000;letter-spacing:normal;word-spacing:normal;text-transform:none;writing-mode:lr-tb;direction:ltr;text-orientation:mixed;dominant-baseline:auto;baseline-shift:baseline;text-anchor:start;white-space:normal;shape-padding:0;clip-rule:nonzero;display:inline;overflow:visible;visibility:visible;opacity:1;isolation:auto;mix-blend-mode:normal;color-interpolation:sRGB;color-interpolation-filters:linearRGB;solid-color:#000000;solid-opacity:1;vector-effect:none;fill:#000000;fill-opacity:1;fill-rule:nonzero;stroke:none;stroke-width:50;stroke-linecap:butt;stroke-linejoin:round;stroke-miterlimit:4;stroke-dasharray:none;stroke-dashoffset:0;stroke-opacity:1;color-rendering:auto;image-rendering:auto;shape-rendering:auto;text-rendering:auto;enable-background:accumulate"
       d="m 307.84961,0 c -23.66909,2.975e-4 -47.33685,8.9620385 -65.26172,26.886719 l -91.91406,91.914061 c -0.0522,0.0522 -0.10222,0.10588 -0.1543,0.1582 11.11877,-3.93636 22.79869,-5.91001 34.48047,-5.91015 12.13179,-1.5e-4 24.2625,2.12753 35.76367,6.37305 l 57.17969,-57.177739 c 16.87443,-16.87443 42.94002,-16.876773 59.81445,-0.002 16.87443,16.87443 16.87405,42.940019 0,59.814449 l -91.91406,91.91406 c -16.87443,16.87443 -42.94001,16.87443 -59.81445,0 -8.25923,-8.25923 -12.46444,-18.72107 -12.63868,-29.22851 -4.0026,1.65265 -7.8134,4.17864 -11.22656,7.59179 l -30.10937,30.10938 c 4.42832,9.76208 10.63039,18.89407 18.61914,26.88281 35.84973,35.84973 94.67566,35.84973 130.52539,0 l 91.91211,-91.91406 c 35.84973,-35.84974 35.85206,-94.675658 0.002,-130.525388 C 355.18842,8.9618485 331.5187,-2.975e-4 307.84961,0 Z"
       id="path840"
       inkscape:connector-curvature="0" />
    <path
       style="color:#000000;font-style:normal;font-variant:normal;font-weight:normal;font-stretch:normal;font-size:medium;line-height:normal;font-family:sans-serif;font-variant-ligatures:normal;font-variant-position:normal;font-variant-caps:normal;font-variant-numeric:normal;font-variant-alternates:normal;font-feature-settings:normal;text-indent:0;text-align:start;text-decoration:none;text-decoration-line:none;text-decoration-style:solid;text-decoration-color:#000000;letter-spacing:normal;word-spacing:normal;text-transform:none;writing-mode:lr-tb;direction:ltr;text-orientation:mixed;dominant-baseline:auto;baseline-shift:baseline;text-anchor:start;white-space:normal;shape-padding:0;clip-rule:nonzero;display:inline;overflow:visible;visibility:visible;opacity:1;isolation:auto;mix-blend-mode:normal;color-interpolation:sRGB;color-interpolation-filters:linearRGB;solid-color:#000000;solid-opacity:1;vector-effect:none;fill:#000000;fill-opacity:1;fill-rule:nonzero;stroke:none;stroke-width:20;stroke-linecap:butt;stroke-linejoin:round;stroke-miterlimit:4;stroke-dasharray:none;stroke-dashoffset:0;stroke-opacity:1;color-rendering:auto;image-rendering:auto;shape-rendering:auto;text-rendering:auto;enable-background:accumulate"
       d="m 185,123.01953 c -23.66909,3e-4 -47.3388,8.96399 -65.26367,26.88867 l -91.912111,91.91211 c -35.8497341,35.84974 -35.8497341,94.67566 0,130.52539 35.849734,35.84973 94.675661,35.84973 130.525391,0 l 91.91211,-91.91406 c 0.0271,-0.0271 0.053,-0.0549 0.0801,-0.082 -22.64298,7.96126 -47.60115,7.76947 -70.13282,-0.57422 l -57.21484,57.21484 c -16.87443,16.87443 -42.94002,16.87443 -59.814452,0 -16.874432,-16.87443 -16.874431,-42.94002 0,-59.81445 L 155.09377,185.2637 c 16.87443,-16.87443 42.94002,-16.87677 59.81445,-0.002 8.27287,8.27287 12.47783,18.75596 12.63868,29.28125 4.05078,-1.65115 7.90878,-4.19199 11.35937,-7.64258 l 30.01953,-30.01953 c -4.43097,-9.79695 -10.6481,-18.96069 -18.66211,-26.97461 -17.92488,-17.92485 -41.5946,-26.887 -65.26369,-26.8867 z"
       id="rect15"
       inkscape:connector-curvature="0" />
  </g>
</svg>
