<?xml version="1.0" encoding="UTF-8" standalone="no"?>
<svg
   xmlns:dc="http://purl.org/dc/elements/1.1/"
   xmlns:cc="http://creativecommons.org/ns#"
   xmlns:rdf="http://www.w3.org/1999/02/22-rdf-syntax-ns#"
   xmlns:svg="http://www.w3.org/2000/svg"
   xmlns="http://www.w3.org/2000/svg"
   xmlns:sodipodi="http://sodipodi.sourceforge.net/DTD/sodipodi-0.dtd"
   xmlns:inkscape="http://www.inkscape.org/namespaces/inkscape"
   viewBox="0 0 400 400"
   version="1.1"
   id="svg4"
   sodipodi:docname="billingtypes.svg"
   width="400"
   height="400"
   inkscape:version="0.92.4 5da689c313, 2019-01-14">
  <metadata
     id="metadata10">
    <rdf:RDF>
      <cc:Work
         rdf:about="">
        <dc:format>image/svg+xml</dc:format>
        <dc:type
           rdf:resource="http://purl.org/dc/dcmitype/StillImage" />
        <dc:title></dc:title>
      </cc:Work>
    </rdf:RDF>
  </metadata>
  <defs
     id="defs8" />
  <sodipodi:namedview
     pagecolor="#ffffff"
     bordercolor="#666666"
     borderopacity="1"
     objecttolerance="10"
     gridtolerance="10"
     guidetolerance="10"
     inkscape:pageopacity="0"
     inkscape:pageshadow="2"
     inkscape:window-width="1167"
     inkscape:window-height="919"
     id="namedview6"
     showgrid="false"
     inkscape:zoom="0.4609375"
     inkscape:cx="189.83051"
     inkscape:cy="256"
     inkscape:window-x="0"
     inkscape:window-y="27"
     inkscape:window-maximized="0"
     inkscape:current-layer="svg4" />
  <path
     d="M 344.53125,82.03125 268.04687,5.46875 C 264.53125,1.953125 259.76562,0 254.76563,0 H 250 v 100 h 100 v -4.765625 c 0,-4.921875 -1.95313,-9.6875 -5.46875,-13.203125 z M 225,106.25 V 0 H 68.75 C 58.359375,0 50,8.359375 50,18.75 v 362.5 C 50,391.64062 58.359375,400 68.75,400 h 262.5 C 341.64062,400 350,391.64062 350,381.25 V 125 H 243.75 C 233.4375,125 225,116.5625 225,106.25 Z m -125,-50 c 0,-3.453125 2.79688,-6.25 6.25,-6.25 h 62.5 c 3.45312,0 6.25,2.796875 6.25,6.25 v 12.5 c 0,3.453125 -2.79688,6.25 -6.25,6.25 h -62.5 C 102.79688,75 100,72.203125 100,68.75 Z m 0,62.5 v -12.5 c 0,-3.45312 2.79688,-6.25 6.25,-6.25 h 62.5 c 3.45312,0 6.25,2.79688 6.25,6.25 v 12.5 c 0,3.45313 -2.79688,6.25 -6.25,6.25 h -62.5 c -3.45312,0 -6.25,-2.79687 -6.25,-6.25 z M 212.5,324.90625 V 343.75 c 0,3.45312 -2.79688,6.25 -6.25,6.25 h -12.5 c -3.45313,0 -6.25,-2.79688 -6.25,-6.25 v -18.97656 c -8.82031,-0.45313 -17.39844,-3.53125 -24.50781,-8.86719 -3.04688,-2.28906 -3.20313,-6.85156 -0.44532,-9.48438 l 9.17969,-8.75781 c 2.16406,-2.0625 5.38281,-2.15625 7.91406,-0.57031 3.02344,1.89062 6.45313,2.90625 10.01563,2.90625 h 21.96094 c 5.07812,0 9.21875,-4.625 9.21875,-10.30469 0,-4.64844 -2.82032,-8.74219 -6.85157,-9.94531 l -35.15625,-10.54688 c -14.52343,-4.35937 -24.67187,-18.29687 -24.67187,-33.89843 0,-19.15625 14.88281,-34.71875 33.33594,-35.21094 V 181.25 c 0,-3.45312 2.79687,-6.25 6.25,-6.25 h 12.5 c 3.45312,0 6.25,2.79688 6.25,6.25 v 18.97656 c 8.82031,0.45313 17.39844,3.52344 24.50781,8.86719 3.04688,2.28906 3.20312,6.85156 0.44531,9.48437 l -9.17969,8.75782 c -2.16406,2.0625 -5.38281,2.15625 -7.91406,0.57031 C 217.32812,226.00781 213.89844,225 210.33594,225 H 188.375 c -5.07813,0 -9.21875,4.625 -9.21875,10.30469 0,4.64843 2.82031,8.74218 6.85156,9.94531 l 35.15625,10.54687 c 14.52344,4.35938 24.67188,18.29688 24.67188,33.89844 0,19.16406 -14.88282,34.71875 -33.33594,35.21094 z"
     id="path2"
     inkscape:connector-curvature="0"
     style="stroke-width:0.78125" />
</svg>
