<?xml version="1.0" encoding="UTF-8" standalone="no"?>
<svg
   xmlns:dc="http://purl.org/dc/elements/1.1/"
   xmlns:cc="http://creativecommons.org/ns#"
   xmlns:rdf="http://www.w3.org/1999/02/22-rdf-syntax-ns#"
   xmlns:svg="http://www.w3.org/2000/svg"
   xmlns="http://www.w3.org/2000/svg"
   xmlns:sodipodi="http://sodipodi.sourceforge.net/DTD/sodipodi-0.dtd"
   xmlns:inkscape="http://www.inkscape.org/namespaces/inkscape"
   viewBox="0 0 400 400"
   version="1.1"
   id="svg4"
   sodipodi:docname="contract.svg"
   width="400"
   height="400"
   inkscape:version="0.92.4 5da689c313, 2019-01-14">
  <metadata
     id="metadata10">
    <rdf:RDF>
      <cc:Work
         rdf:about="">
        <dc:format>image/svg+xml</dc:format>
        <dc:type
           rdf:resource="http://purl.org/dc/dcmitype/StillImage" />
        <dc:title></dc:title>
      </cc:Work>
    </rdf:RDF>
  </metadata>
  <defs
     id="defs8" />
  <sodipodi:namedview
     pagecolor="#ffffff"
     bordercolor="#666666"
     borderopacity="1"
     objecttolerance="10"
     gridtolerance="10"
     guidetolerance="10"
     inkscape:pageopacity="0"
     inkscape:pageshadow="2"
     inkscape:window-width="1920"
     inkscape:window-height="1017"
     id="namedview6"
     showgrid="false"
     inkscape:zoom="0.4609375"
     inkscape:cx="-632.40678"
     inkscape:cy="256"
     inkscape:window-x="0"
     inkscape:window-y="27"
     inkscape:window-maximized="1"
     inkscape:current-layer="svg4" />
  <path
     d="M 225,106.25 V 0 H 68.75 C 58.359375,0 50,8.359375 50,18.75 v 362.5 C 50,391.64062 58.359375,400 68.75,400 h 262.5 C 341.64062,400 350,391.64062 350,381.25 V 125 H 243.75 C 233.4375,125 225,116.5625 225,106.25 Z m -125,-50 c 0,-3.453125 2.79688,-6.25 6.25,-6.25 h 62.5 c 3.45312,0 6.25,2.796875 6.25,6.25 v 12.5 c 0,3.453125 -2.79688,6.25 -6.25,6.25 h -62.5 C 102.79688,75 100,72.203125 100,68.75 Z m 0,50 c 0,-3.45312 2.79688,-6.25 6.25,-6.25 h 62.5 c 3.45312,0 6.25,2.79688 6.25,6.25 v 12.5 c 0,3.45313 -2.79688,6.25 -6.25,6.25 h -62.5 c -3.45312,0 -6.25,-2.79687 -6.25,-6.25 z M 250.63281,300 H 287.5 c 6.90625,0 12.5,5.59375 12.5,12.5 0,6.90625 -5.59375,12.5 -12.5,12.5 h -36.86719 c -12.85156,0 -24.42969,-7.14063 -30.1875,-18.64063 -2.30468,-4.625 -6.32031,-5.09375 -7.94531,-5.09375 -1.625,0 -5.64062,0.46094 -7.82813,4.83594 l -5.99218,11.98438 A 12.489062,12.489062 0 0 1 187.5,324.99219 c -0.29688,0 -0.58594,-0.0156 -0.89063,-0.0391 -5.03906,-0.35156 -9.375,-3.71093 -10.96093,-8.50781 L 162.5,277.02344 154.21094,301.92969 C 149.60937,315.72656 136.72656,325 122.17969,325 H 112.5 c -6.90625,0 -12.5,-5.59375 -12.5,-12.5 0,-6.90625 5.59375,-12.5 12.5,-12.5 h 9.67969 c 3.77344,0 7.11719,-2.40625 8.3125,-5.98438 l 14.21093,-42.6875 c 2.57813,-7.66406 9.71875,-12.82031 17.79688,-12.82031 8.07812,0 15.21875,5.14844 17.78906,12.82031 l 10.84375,32.53125 c 15.44531,-12.64843 42.22656,-7.57812 51.5625,11.0625 1.57813,3.17188 4.65625,5.07813 7.9375,5.07813 z M 344.53125,82.03125 268.04687,5.46875 C 264.53125,1.953125 259.76562,0 254.76563,0 H 250 v 100 h 100 v -4.765625 c 0,-4.921875 -1.95313,-9.6875 -5.46875,-13.203125 z"
     id="path2"
     inkscape:connector-curvature="0"
     style="stroke-width:0.78125" />
</svg>
