<?xml version="1.0" encoding="UTF-8" standalone="no"?>
<svg
   xmlns:dc="http://purl.org/dc/elements/1.1/"
   xmlns:cc="http://creativecommons.org/ns#"
   xmlns:rdf="http://www.w3.org/1999/02/22-rdf-syntax-ns#"
   xmlns:svg="http://www.w3.org/2000/svg"
   xmlns="http://www.w3.org/2000/svg"
   xmlns:sodipodi="http://sodipodi.sourceforge.net/DTD/sodipodi-0.dtd"
   xmlns:inkscape="http://www.inkscape.org/namespaces/inkscape"
   inkscape:version="1.0 (4035a4fb49, 2020-05-01)"
   height="400"
   width="400"
   sodipodi:docname="customer.svg"
   id="svg4"
   version="1.1"
   viewBox="0 0 400 400">
  <metadata
     id="metadata10">
    <rdf:RDF>
      <cc:Work
         rdf:about="">
        <dc:format>image/svg+xml</dc:format>
        <dc:type
           rdf:resource="http://purl.org/dc/dcmitype/StillImage" />
        <dc:title />
      </cc:Work>
    </rdf:RDF>
  </metadata>
  <defs
     id="defs8" />
  <sodipodi:namedview
     inkscape:document-rotation="0"
     inkscape:current-layer="svg4"
     inkscape:window-maximized="1"
     inkscape:window-y="27"
     inkscape:window-x="0"
     inkscape:cy="121.79241"
     inkscape:cx="268.16803"
     inkscape:zoom="1.3037281"
     showgrid="false"
     id="namedview6"
     inkscape:window-height="704"
     inkscape:window-width="1366"
     inkscape:pageshadow="2"
     inkscape:pageopacity="0"
     guidetolerance="10"
     gridtolerance="10"
     objecttolerance="10"
     borderopacity="1"
     bordercolor="#666666"
     pagecolor="#ffffff" />
  <path
     style="stroke-width:0.774609"
     id="path6"
     class=""
     d="M 200.10301,8 C 94.014896,8 8,94.045881 8,200.10301 8,306.2221 94.014896,392.20602 200.10301,392.20602 c 106.08811,0 192.10301,-85.98392 192.10301,-192.10301 C 392.20602,94.045881 306.19112,8 200.10301,8 Z m 0,85.206979 c 17.96782,0 32.53357,14.565741 32.53357,32.533571 0,17.96783 -14.56575,32.53357 -32.53357,32.53357 -17.96784,0 -32.53357,-14.56574 -32.53357,-32.53357 0,-17.96783 14.56573,-32.533571 32.53357,-32.533571 z m 43.3781,196.750671 c 0,5.13332 -4.16197,9.2953 -9.29531,9.2953 h -68.16559 c -5.13333,0 -9.2953,-4.16198 -9.2953,-9.2953 v -18.59063 c 0,-5.13332 4.16197,-9.2953 9.2953,-9.2953 h 9.29531 v -49.57497 h -9.29531 c -5.13333,0 -9.2953,-4.16198 -9.2953,-9.2953 v -18.59062 c 0,-5.13333 4.16197,-9.29531 9.2953,-9.29531 h 49.57498 c 5.13333,0 9.29531,4.16198 9.29531,9.29531 v 77.46089 h 9.2953 c 5.13334,0 9.29531,4.16198 9.29531,9.2953 z"
     fill="#000000" />
</svg>
