<?xml version="1.0" encoding="UTF-8" standalone="no"?>
<svg
   viewBox="0 0 400 400"
   version="1.1"
   id="svg4"
   sodipodi:docname="definedmethods.svg"
   width="400"
   height="400"
   inkscape:version="1.1.1 (3bf5ae0d25, 2021-09-20)"
   xmlns:inkscape="http://www.inkscape.org/namespaces/inkscape"
   xmlns:sodipodi="http://sodipodi.sourceforge.net/DTD/sodipodi-0.dtd"
   xmlns="http://www.w3.org/2000/svg"
   xmlns:svg="http://www.w3.org/2000/svg"
   xmlns:rdf="http://www.w3.org/1999/02/22-rdf-syntax-ns#"
   xmlns:cc="http://creativecommons.org/ns#"
   xmlns:dc="http://purl.org/dc/elements/1.1/">
  <metadata
     id="metadata10">
    <rdf:RDF>
      <cc:Work
         rdf:about="">
        <dc:format>image/svg+xml</dc:format>
        <dc:type
           rdf:resource="http://purl.org/dc/dcmitype/StillImage" />
      </cc:Work>
    </rdf:RDF>
  </metadata>
  <defs
     id="defs8" />
  <sodipodi:namedview
     pagecolor="#ffffff"
     bordercolor="#666666"
     borderopacity="1"
     objecttolerance="10"
     gridtolerance="10"
     guidetolerance="10"
     inkscape:pageopacity="0"
     inkscape:pageshadow="2"
     inkscape:window-width="1920"
     inkscape:window-height="1011"
     id="namedview6"
     showgrid="false"
     inkscape:zoom="1.3037281"
     inkscape:cx="174.49958"
     inkscape:cy="224.3566"
     inkscape:window-x="0"
     inkscape:window-y="0"
     inkscape:window-maximized="1"
     inkscape:current-layer="svg4"
     inkscape:pagecheckerboard="0" />
  <path
     d="M 380.01039,59.996206 H 20.099445 c -11.0410132,0 -19.99504724,8.954034 -19.99504724,19.99505 V 319.93186 c 0,11.04101 8.95403404,19.99505 19.99504724,19.99505 H 380.01038 c 11.04096,0 19.99505,-8.95404 19.99505,-19.99505 V 79.991256 c 0,-11.041016 -8.95409,-19.99505 -19.99504,-19.99505 z M 110.07717,244.87544 v 10.07251 c 0,2.76181 -2.23694,4.99876 -4.99876,4.99876 h -9.99753 c -2.761812,0 -4.998758,-2.23695 -4.998758,-4.99876 v -10.17873 c -7.054504,-0.3624 -13.915305,-2.8243 -19.601398,-7.092 -2.436897,-1.83079 -2.561865,-5.4799 -0.356161,-7.58562 l 7.341931,-7.00452 c 1.730822,-1.64959 4.305185,-1.72457 6.329684,-0.45613 2.41815,1.51212 5.161223,2.32442 8.010517,2.32442 h 17.564395 c 4.0615,0 7.37317,-3.69908 7.37317,-8.24171 0,-3.71783 -2.25568,-6.99202 -5.47988,-7.95428 l -28.118041,-8.43541 c -11.615875,-3.48664 -19.732616,-14.63388 -19.732616,-27.11205 0,-15.32119 11.903304,-27.76811 26.662151,-28.16176 v -10.07252 c 0,-2.76181 2.236945,-4.99876 4.998764,-4.99876 h 9.997522 c 2.76182,0 4.99876,2.23695 4.99876,4.99876 v 10.17873 c 7.05451,0.36242 13.91531,2.81806 19.6014,7.092 2.43689,1.8308 2.56187,5.47989 0.35616,7.58563 l -7.34193,7.0045 c -1.73082,1.6496 -4.30519,1.72459 -6.32968,0.45614 -2.41816,-1.51836 -5.16122,-2.32442 -8.01051,-2.32442 H 90.781948 c -4.061495,0 -7.373175,3.69909 -7.373175,8.2417 0,3.71784 2.255692,6.99203 5.479894,7.95429 l 28.118043,8.43541 c 11.61587,3.48664 19.73262,14.63388 19.73262,27.11204 0,15.32746 -11.90331,27.76813 -26.66216,28.16178 z m 149.96289,-9.92254 c 0,2.76181 -2.23695,4.99876 -4.99877,4.99876 h -69.98268 c -2.76181,0 -4.99876,-2.23695 -4.99876,-4.99876 v -9.99753 c 0,-2.76181 2.23695,-4.99876 4.99876,-4.99876 h 69.98268 c 2.76182,0 4.99877,2.23695 4.99877,4.99876 z m 99.97528,0 c 0,2.76181 -2.23701,4.99876 -4.99877,4.99876 h -49.98761 c -2.76183,0 -4.99877,-2.23695 -4.99877,-4.99876 v -9.99753 c 0,-2.76181 2.23694,-4.99876 4.99877,-4.99876 h 49.98761 c 2.76176,0 4.99877,2.23695 4.99877,4.99876 z m 0,-59.98515 c 0,2.76181 -2.23701,4.99876 -4.99877,4.99876 H 185.05861 c -2.76181,0 -4.99876,-2.23695 -4.99876,-4.99876 v -9.99753 c 0,-2.76181 2.23695,-4.99876 4.99876,-4.99876 h 169.95796 c 2.76176,0 4.99877,2.23695 4.99877,4.99876 z"
     id="path2-3"
     style="stroke-width:0.624845" />
</svg>
