<?xml version="1.0" encoding="UTF-8" standalone="no"?>
<svg
   xmlns:dc="http://purl.org/dc/elements/1.1/"
   xmlns:cc="http://creativecommons.org/ns#"
   xmlns:rdf="http://www.w3.org/1999/02/22-rdf-syntax-ns#"
   xmlns:svg="http://www.w3.org/2000/svg"
   xmlns="http://www.w3.org/2000/svg"
   xmlns:sodipodi="http://sodipodi.sourceforge.net/DTD/sodipodi-0.dtd"
   xmlns:inkscape="http://www.inkscape.org/namespaces/inkscape"
   viewBox="0 0 400 400"
   version="1.1"
   id="svg4"
   sodipodi:docname="deposits.svg"
   width="400"
   height="400"
   inkscape:version="0.92.4 5da689c313, 2019-01-14">
  <metadata
     id="metadata10">
    <rdf:RDF>
      <cc:Work
         rdf:about="">
        <dc:format>image/svg+xml</dc:format>
        <dc:type
           rdf:resource="http://purl.org/dc/dcmitype/StillImage" />
        <dc:title></dc:title>
      </cc:Work>
    </rdf:RDF>
  </metadata>
  <defs
     id="defs8" />
  <sodipodi:namedview
     pagecolor="#ffffff"
     bordercolor="#666666"
     borderopacity="1"
     objecttolerance="10"
     gridtolerance="10"
     guidetolerance="10"
     inkscape:pageopacity="0"
     inkscape:pageshadow="2"
     inkscape:window-width="960"
     inkscape:window-height="1017"
     id="namedview6"
     showgrid="false"
     inkscape:zoom="0.4609375"
     inkscape:cx="320"
     inkscape:cy="256"
     inkscape:window-x="0"
     inkscape:window-y="27"
     inkscape:window-maximized="0"
     inkscape:current-layer="svg4" />
  <path
     d="M 315,259.99221 H 85.25 c -2.75,0 -5,2.25 -5,5 l -0.0625,30 c 0,2.75 2.25,5 5,5 H 315 c 2.75,0 5,-2.25 5,-5 v -30 c 0,-2.75 -2.25,-5 -5,-5 z m 0,60 H 85.0625 c -2.75,0 -5,2.25 -5,5 l -0.0625,30 c 0,2.75 2.25,5 5,5 h 230 c 2.75,0 5,-2.25 5,-5 v -30 c 0,-2.75 -2.25,-5 -5,-5 z m 0,-120 H 85.375 c -2.75,0 -5,2.25 -5,5 l -0.0625,30 c 0,2.75 2.25,5 5,5 H 315 c 2.75,0 5,-2.25 5,-5 v -30 c 0,-2.75 -2.25,-5 -5,-5 z m 66.5625,-86.875 L 211.5,42.304705 a 30.09375,30.09375 0 0 0 -23.0625,0 l -170,70.812505 C 7.3125,117.80471 0,128.67971 0,140.80471 v 214.1875 c 0,2.75 2.25,5 5,5 h 50 c 2.75,0 5,-2.25 5,-5 v -155 c 0,-11 9.125,-20 20.375,-20 h 239.25 c 11.25,0 20.375,9 20.375,20 v 155 c 0,2.75 2.25,5 5,5 h 50 c 2.75,0 5,-2.25 5,-5 v -214.1875 c 0,-12.125 -7.3125,-23 -18.4375,-27.6875 z"
     id="path2"
     inkscape:connector-curvature="0"
     style="stroke-width:0.625" />
</svg>
