<?xml version="1.0" encoding="UTF-8" standalone="no"?>
<svg
   viewBox="0 0 400 400"
   version="1.1"
   id="svg4"
   sodipodi:docname="duedays.svg"
   width="400"
   height="400"
   inkscape:version="1.1 (c4e8f9ed74, 2021-05-24)"
   xmlns:inkscape="http://www.inkscape.org/namespaces/inkscape"
   xmlns:sodipodi="http://sodipodi.sourceforge.net/DTD/sodipodi-0.dtd"
   xmlns="http://www.w3.org/2000/svg"
   xmlns:svg="http://www.w3.org/2000/svg"
   xmlns:rdf="http://www.w3.org/1999/02/22-rdf-syntax-ns#"
   xmlns:cc="http://creativecommons.org/ns#"
   xmlns:dc="http://purl.org/dc/elements/1.1/">
  <metadata
     id="metadata10">
    <rdf:RDF>
      <cc:Work
         rdf:about="">
        <dc:format>image/svg+xml</dc:format>
        <dc:type
           rdf:resource="http://purl.org/dc/dcmitype/StillImage" />
      </cc:Work>
    </rdf:RDF>
  </metadata>
  <defs
     id="defs8" />
  <sodipodi:namedview
     pagecolor="#ffffff"
     bordercolor="#666666"
     borderopacity="1"
     objecttolerance="10"
     gridtolerance="10"
     guidetolerance="10"
     inkscape:pageopacity="0"
     inkscape:pageshadow="2"
     inkscape:window-width="960"
     inkscape:window-height="995"
     id="namedview6"
     showgrid="false"
     inkscape:zoom="0.23046875"
     inkscape:cx="431.72881"
     inkscape:cy="-2.1694915"
     inkscape:window-x="20"
     inkscape:window-y="20"
     inkscape:window-maximized="0"
     inkscape:current-layer="svg4"
     inkscape:pagecheckerboard="0" />
  <path
     d="m 25.025954,362.4759 c 0,20.70006 16.794383,37.49444 37.494438,37.49444 H 337.47961 c 20.70005,0 37.49444,-16.79438 37.49444,-37.49444 V 150.00741 H 25.025954 Z M 75.018538,212.49814 C 75.018538,205.62416 80.642704,200 87.516684,200 h 74.988876 c 6.87399,0 12.49815,5.62416 12.49815,12.49814 v 74.98888 c 0,6.87398 -5.62416,12.49815 -12.49815,12.49815 H 87.516684 c -6.87398,0 -12.498146,-5.62417 -12.498146,-12.49815 z M 337.47961,50.022245 H 299.98517 V 12.527807 c 0,-6.8739802 -5.62417,-12.49814599 -12.49815,-12.49814599 h -24.99629 c -6.87398,0 -12.49814,5.62416579 -12.49814,12.49814599 V 50.022245 H 150.00741 V 12.527807 c 0,-6.8739802 -5.62416,-12.49814599 -12.49814,-12.49814599 h -24.99629 c -6.87398,0 -12.49815,5.62416579 -12.49815,12.49814599 V 50.022245 H 62.520392 c -20.700055,0 -37.494438,16.794385 -37.494438,37.494439 V 125.01112 H 374.97405 V 87.516684 c 0,-20.700054 -16.79439,-37.494439 -37.49444,-37.494439 z"
     id="path2"
     style="stroke-width:0.781134" />
</svg>
