<?xml version="1.0" encoding="UTF-8" standalone="no"?>
<svg
   xmlns:dc="http://purl.org/dc/elements/1.1/"
   xmlns:cc="http://creativecommons.org/ns#"
   xmlns:rdf="http://www.w3.org/1999/02/22-rdf-syntax-ns#"
   xmlns:svg="http://www.w3.org/2000/svg"
   xmlns="http://www.w3.org/2000/svg"
   xmlns:sodipodi="http://sodipodi.sourceforge.net/DTD/sodipodi-0.dtd"
   xmlns:inkscape="http://www.inkscape.org/namespaces/inkscape"
   viewBox="0 0 400 400"
   version="1.1"
   id="svg4"
   sodipodi:docname="equipmentmodels.svg"
   width="400"
   height="400"
   inkscape:version="0.92.4 5da689c313, 2019-01-14">
  <metadata
     id="metadata10">
    <rdf:RDF>
      <cc:Work
         rdf:about="">
        <dc:format>image/svg+xml</dc:format>
        <dc:type
           rdf:resource="http://purl.org/dc/dcmitype/StillImage" />
        <dc:title></dc:title>
      </cc:Work>
    </rdf:RDF>
  </metadata>
  <defs
     id="defs8" />
  <sodipodi:namedview
     pagecolor="#ffffff"
     bordercolor="#666666"
     borderopacity="1"
     objecttolerance="10"
     gridtolerance="10"
     guidetolerance="10"
     inkscape:pageopacity="0"
     inkscape:pageshadow="2"
     inkscape:window-width="960"
     inkscape:window-height="1017"
     id="namedview6"
     showgrid="false"
     inkscape:zoom="0.4609375"
     inkscape:cx="256"
     inkscape:cy="256"
     inkscape:window-x="0"
     inkscape:window-y="27"
     inkscape:window-maximized="0"
     inkscape:current-layer="svg4" />
  <path
     d="m 400,37.5 v 225 c 0,20.70312 -16.79688,37.5 -37.5,37.5 H 325 V 137.5 C 325,103.04688 296.95312,75 262.5,75 H 100 V 37.5 C 100,16.796875 116.79687,0 137.5,0 h 225 C 383.20312,0 400,16.796875 400,37.5 Z m -100,100 v 225 c 0,20.70312 -16.79688,37.5 -37.5,37.5 H 37.5 C 16.796875,400 0,383.20312 0,362.5 v -225 C 0,116.79688 16.796875,100 37.5,100 h 225 c 20.70312,0 37.5,16.79688 37.5,37.5 z m -53.125,21.875 c 0,-5.15625 -4.21875,-9.375 -9.375,-9.375 H 59.375 C 54.21875,150 50,154.21875 50,159.375 V 200 h 196.875 z"
     id="path2"
     inkscape:connector-curvature="0"
     style="stroke-width:0.78125" />
</svg>
