<?xml version="1.0" encoding="UTF-8" standalone="no"?>
<svg
   xmlns:dc="http://purl.org/dc/elements/1.1/"
   xmlns:cc="http://creativecommons.org/ns#"
   xmlns:rdf="http://www.w3.org/1999/02/22-rdf-syntax-ns#"
   xmlns:svg="http://www.w3.org/2000/svg"
   xmlns="http://www.w3.org/2000/svg"
   xmlns:sodipodi="http://sodipodi.sourceforge.net/DTD/sodipodi-0.dtd"
   xmlns:inkscape="http://www.inkscape.org/namespaces/inkscape"
   viewBox="0 0 400 400"
   version="1.1"
   id="svg4"
   sodipodi:docname="history.svg"
   width="400"
   height="400"
   inkscape:version="0.92.4 5da689c313, 2019-01-14">
  <metadata
     id="metadata10">
    <rdf:RDF>
      <cc:Work
         rdf:about="">
        <dc:format>image/svg+xml</dc:format>
        <dc:type
           rdf:resource="http://purl.org/dc/dcmitype/StillImage" />
        <dc:title></dc:title>
      </cc:Work>
    </rdf:RDF>
  </metadata>
  <defs
     id="defs8" />
  <sodipodi:namedview
     pagecolor="#ffffff"
     bordercolor="#666666"
     borderopacity="1"
     objecttolerance="10"
     gridtolerance="10"
     guidetolerance="10"
     inkscape:pageopacity="0"
     inkscape:pageshadow="2"
     inkscape:window-width="960"
     inkscape:window-height="1017"
     id="namedview6"
     showgrid="false"
     inkscape:zoom="0.4609375"
     inkscape:cx="180.0678"
     inkscape:cy="256"
     inkscape:window-x="0"
     inkscape:window-y="27"
     inkscape:window-maximized="0"
     inkscape:current-layer="svg4" />
  <path
     d="M 225,106.25 V 0 H 68.75 C 58.359375,0 50,8.359375 50,18.75 v 362.5 C 50,391.64062 58.359375,400 68.75,400 h 262.5 C 341.64062,400 350,391.64062 350,381.25 V 125 H 243.75 C 233.4375,125 225,116.5625 225,106.25 Z m 50,184.375 c 0,5.15625 -4.21875,9.375 -9.375,9.375 H 134.375 C 129.21875,300 125,295.78125 125,290.625 v -6.25 c 0,-5.15625 4.21875,-9.375 9.375,-9.375 h 131.25 c 5.15625,0 9.375,4.21875 9.375,9.375 z m 0,-50 c 0,5.15625 -4.21875,9.375 -9.375,9.375 H 134.375 C 129.21875,250 125,245.78125 125,240.625 v -6.25 c 0,-5.15625 4.21875,-9.375 9.375,-9.375 h 131.25 c 5.15625,0 9.375,4.21875 9.375,9.375 z m 0,-56.25 v 6.25 c 0,5.15625 -4.21875,9.375 -9.375,9.375 H 134.375 C 129.21875,200 125,195.78125 125,190.625 v -6.25 c 0,-5.15625 4.21875,-9.375 9.375,-9.375 h 131.25 c 5.15625,0 9.375,4.21875 9.375,9.375 z M 350,95.234375 V 100 H 250 V 0 h 4.76563 c 4.99999,0 9.76562,1.953125 13.28124,5.46875 l 76.48438,76.5625 C 348.04687,85.546875 350,90.3125 350,95.234375 Z"
     id="path2"
     inkscape:connector-curvature="0"
     style="stroke-width:0.78125" />
</svg>
