<?xml version="1.0" encoding="UTF-8" standalone="no"?>
<svg
   xmlns:dc="http://purl.org/dc/elements/1.1/"
   xmlns:cc="http://creativecommons.org/ns#"
   xmlns:rdf="http://www.w3.org/1999/02/22-rdf-syntax-ns#"
   xmlns:svg="http://www.w3.org/2000/svg"
   xmlns="http://www.w3.org/2000/svg"
   xmlns:sodipodi="http://sodipodi.sourceforge.net/DTD/sodipodi-0.dtd"
   xmlns:inkscape="http://www.inkscape.org/namespaces/inkscape"
   viewBox="0 0 400 400"
   version="1.1"
   id="svg4"
   sodipodi:docname="home.svg"
   width="400"
   height="400"
   inkscape:version="0.92.4 5da689c313, 2019-01-14">
  <metadata
     id="metadata10">
    <rdf:RDF>
      <cc:Work
         rdf:about="">
        <dc:format>image/svg+xml</dc:format>
        <dc:type
           rdf:resource="http://purl.org/dc/dcmitype/StillImage" />
        <dc:title></dc:title>
      </cc:Work>
    </rdf:RDF>
  </metadata>
  <defs
     id="defs8" />
  <sodipodi:namedview
     pagecolor="#ffffff"
     bordercolor="#666666"
     borderopacity="1"
     objecttolerance="10"
     gridtolerance="10"
     guidetolerance="10"
     inkscape:pageopacity="0"
     inkscape:pageshadow="2"
     inkscape:window-width="1920"
     inkscape:window-height="1017"
     id="namedview6"
     showgrid="false"
     inkscape:zoom="0.4609375"
     inkscape:cx="288"
     inkscape:cy="256"
     inkscape:window-x="0"
     inkscape:window-y="27"
     inkscape:window-maximized="1"
     inkscape:current-layer="svg4" />
  <path
     d="m 338.88243,239.25749 v 99.52409 c 0,9.23705 -7.43132,16.66837 -16.66838,16.66837 h -80.5638 c -4.58381,0 -8.33419,-3.75038 -8.33419,-8.33419 v -77.78574 c 0,-4.5838 -3.75039,-8.33419 -8.33419,-8.33419 h -50.00512 c -4.5838,0 -8.33419,3.75039 -8.33419,8.33419 v 77.78574 c 0,4.58381 -3.75038,8.33419 -8.33418,8.33419 H 77.744568 c -9.23706,0 -16.66838,-7.43132 -16.66838,-16.66837 v -99.52409 c 0,-2.50025 1.11123,-4.86161 3.05587,-6.45899 L 194.70099,125.28749 c 3.05587,-2.50026 7.50077,-2.50026 10.62609,0 L 335.89601,232.7985 c 1.87519,1.59738 2.98642,3.95874 2.98642,6.45899 z m 58.0615,-42.296 -58.0615,-47.85212 V 52.918963 c 0,-4.583803 -3.75039,-8.334187 -8.33419,-8.334187 h -38.89287 c -4.58381,0 -8.33419,3.750384 -8.33419,8.334187 V 103.34079 L 221.16204,52.154996 c -12.29293,-10.139928 -30.07253,-10.139928 -42.36545,0 L 3.0146898,196.96149 c -3.542029,2.91697 -4.02819,8.19529 -1.111225,11.73732 l 17.7101432,21.52998 c 2.91697,3.54203 8.19529,4.02819 11.73732,1.11123 L 194.70099,96.812347 c 3.05587,-2.500256 7.50077,-2.500256 10.62609,0 L 368.67715,231.34002 c 3.54203,2.91696 8.82034,2.4308 11.73731,-1.11123 l 17.71015,-21.52998 c 2.91696,-3.61148 2.36135,-8.82035 -1.18068,-11.73732 z"
     id="path2"
     inkscape:connector-curvature="0"
     style="stroke-width:0.69451559" />
</svg>
