<?xml version="1.0" encoding="UTF-8" standalone="no"?>
<svg
   viewBox="0 0 400 400"
   version="1.1"
   id="svg4"
   sodipodi:docname="leased.svg"
   width="400"
   height="400"
   inkscape:version="1.4 (e7c3feb100, 2024-10-09)"
   xml:space="preserve"
   xmlns:inkscape="http://www.inkscape.org/namespaces/inkscape"
   xmlns:sodipodi="http://sodipodi.sourceforge.net/DTD/sodipodi-0.dtd"
   xmlns="http://www.w3.org/2000/svg"
   xmlns:svg="http://www.w3.org/2000/svg"
   xmlns:rdf="http://www.w3.org/1999/02/22-rdf-syntax-ns#"
   xmlns:cc="http://creativecommons.org/ns#"
   xmlns:dc="http://purl.org/dc/elements/1.1/"><metadata
     id="metadata10"><rdf:RDF><cc:Work
         rdf:about=""><dc:format>image/svg+xml</dc:format><dc:type
           rdf:resource="http://purl.org/dc/dcmitype/StillImage" /><dc:title /></cc:Work></rdf:RDF></metadata><defs
     id="defs8" /><sodipodi:namedview
     pagecolor="#ffffff"
     bordercolor="#666666"
     borderopacity="1"
     objecttolerance="10"
     gridtolerance="10"
     guidetolerance="10"
     inkscape:pageopacity="0"
     inkscape:pageshadow="2"
     inkscape:window-width="1920"
     inkscape:window-height="1008"
     id="namedview6"
     showgrid="false"
     inkscape:zoom="0.65186406"
     inkscape:cx="225.50714"
     inkscape:cy="342.09586"
     inkscape:window-x="0"
     inkscape:window-y="0"
     inkscape:window-maximized="1"
     inkscape:current-layer="svg4"
     inkscape:showpageshadow="2"
     inkscape:pagecheckerboard="0"
     inkscape:deskcolor="#d1d1d1" /><path
     id="path5"
     style="opacity:1;fill:#000000;stroke-width:0.568776;stroke-linecap:round;stroke-linejoin:round"
     d="m 99.257314,163.80884 c 0.413994,0.53875 0.867436,1.06945 1.361456,1.59002 7.90471,8.32954 20.97444,8.67205 29.304,0.76736 l 44.83481,-42.5485 -0.10041,-13.38145 c -0.0616,-8.15869 6.64231,-14.992191 14.82421,-15.028262 l 67.70876,-0.297929 c 3.367,-0.01487 6.10846,2.702737 6.12303,6.069701 0.0146,3.36699 -2.70269,6.10847 -6.06975,6.12304 l -67.70943,0.29704 c -1.59208,0.007 -2.69635,1.12901 -2.68416,2.74421 l 0.0702,9.306 c 0.0171,0.10891 0.0256,0.22094 0.0567,0.32426 -0.0347,0.39463 -0.0451,0.79657 -0.0457,1.20018 l 0.006,0.36787 c 0.0902,3.14107 1.25661,5.9931 3.15174,8.19958 2.46683,2.87201 6.15321,4.65419 10.25126,4.5719 l 31.73156,-0.63667 c 6.45162,7.97182 10.70451,16.27081 24.43561,17.94928 l 26.87465,0.38062 c 6.69522,-0.0542 12.83149,-1.98108 18.40872,-5.78114 l 51.71353,-43.57214 -54.92355,-65.186017 -13.07758,12.812365 -83.12559,0.512063 c -9.84793,-0.432836 -16.42257,5.263455 -22.80939,11.311375 l -76.244,76.234484 c -7.61274,7.61205 -10.276838,17.58993 -4.066734,25.67078 z M 270.656,104.66096 c -0.80543,-0.98817 -1.28344,-2.25332 -1.27557,-3.63344 0.0177,-3.154603 2.57235,-5.679348 5.7269,-5.661431 l 6.00324,0.03469 c 3.1546,0.01798 5.68032,2.571558 5.66234,5.726161 -0.0183,3.15453 -2.57236,5.67935 -5.7269,5.66139 l -6.00422,-0.0339 c -1.77442,-0.01 -3.35023,-0.82295 -4.38579,-2.09344 z m 101.2682,0.577 13.0518,-10.996983 3.66492,-3.087967 3.66589,-3.08873 c 7.23084,-6.092453 8.14722,-16.817964 2.05479,-24.048768 L 345.55176,6.0856134 C 339.45933,-1.145191 328.73384,-2.0616219 321.50301,4.0308253 l -3.66583,3.0887294 -3.66498,3.0879673 -13.05174,10.996987 10.99695,13.051776 48.80984,57.929898 z m -41.1032,-63.658739 -5.57364,-6.6151 c -2.21164,-2.624887 -1.87891,-6.51934 0.74599,-8.730989 2.62491,-2.211644 6.51844,-1.878108 8.73008,0.746785 l 5.57364,6.615094 c 2.21164,2.624893 1.87983,6.518578 -0.74508,8.730221 -2.6249,2.21165 -6.51934,1.878876 -8.73099,-0.746011 z M 300.74268,236.19116 c -0.414,-0.53874 -0.86743,-1.06944 -1.36147,-1.59002 -7.90471,-8.32954 -20.97443,-8.67206 -29.30393,-0.76736 l -44.83487,42.54849 0.10047,13.38145 c 0.0615,8.15871 -6.64237,14.99221 -14.82427,15.02827 l -67.70876,0.29792 c -3.367,0.0149 -6.10847,-2.70273 -6.12304,-6.06969 -0.0146,-3.36699 2.7027,-6.10847 6.06976,-6.12305 l 67.70949,-0.29703 c 1.59202,-0.007 2.69629,-1.12902 2.6841,-2.74422 l -0.0702,-9.30599 c -0.0171,-0.10892 -0.0256,-0.22095 -0.0567,-0.32426 0.0348,-0.39463 0.0451,-0.79657 0.0457,-1.20018 l -0.006,-0.36788 c -0.0902,-3.14107 -1.25661,-5.9931 -3.15174,-8.19957 -2.46683,-2.87202 -6.15321,-4.6542 -10.2512,-4.5719 l -31.73162,0.63667 c -6.45162,-7.97183 -10.70452,-16.27082 -24.43562,-17.94928 l -26.87464,-0.38063 c -6.6952,0.0542 -12.83147,1.98109 -18.408694,5.78115 l -51.713581,43.57213 54.923555,65.18602 13.0776,-12.81236 83.12558,-0.51206 c 9.84794,0.43283 16.42258,-5.26346 22.8094,-11.31137 l 76.24101,-76.23448 c 7.61276,-7.61205 10.27686,-17.58994 4.06672,-25.67079 z m -171.39869,59.14788 c 0.80543,0.98817 1.28344,2.25331 1.27557,3.63343 -0.0177,3.15461 -2.57235,5.67936 -5.7269,5.66144 l -6.00324,-0.0347 c -3.1546,-0.018 -5.68031,-2.57157 -5.66235,-5.72617 0.018,-3.15453 2.57237,-5.67935 5.72691,-5.66138 l 6.00422,0.0339 c 1.77442,0.0101 3.35023,0.82295 4.38579,2.09345 z m -101.268214,-0.57701 -13.051775,10.99699 -3.664949,3.08796 -3.6658633,3.08873 c -7.23082267,6.09246 -8.14722297,16.81797 -2.0547819,24.04877 l 48.8097942,57.92991 c 6.092435,7.2308 16.817939,8.14723 24.048768,2.05478 l 3.665857,-3.08873 3.664949,-3.08797 13.051775,-10.99699 -10.996993,-13.05177 -48.809794,-57.9299 z m 41.103193,63.65875 5.57366,6.61509 c 2.211643,2.6249 1.878906,6.51935 -0.745981,8.73099 -2.624894,2.21165 -6.518432,1.87811 -8.730082,-0.74678 l -5.573652,-6.6151 c -2.21165,-2.62488 -1.879821,-6.51858 0.745066,-8.73022 2.624892,-2.21164 6.519339,-1.87887 8.730989,0.74602 z M 239.2601,166.5966 a 52.076087,52.076087 0 0 0 -73.37946,-6.26975 52.076087,52.076087 0 0 0 -6.26879,73.3787 52.076087,52.076087 0 0 0 73.37848,6.27047 52.076087,52.076087 0 0 0 6.26977,-73.37942 z m -19.87895,18.45885 a 6.0962086,6.0962086 0 0 1 0.0524,8.62176 l -21.08002,21.34075 a 6.0968182,6.0968182 0 0 1 -8.64046,0.0341 l -10.08179,-10.04567 a 6.0962086,6.0962086 0 0 1 -0.0165,-8.62122 6.0962086,6.0962086 0 0 1 8.6212,-0.0163 l 5.74525,5.72478 16.77859,-16.98472 a 6.0962086,6.0962086 0 0 1 8.62102,-0.0535 z" /></svg>
