<?xml version="1.0" encoding="UTF-8" standalone="no"?>
<svg
   xmlns:dc="http://purl.org/dc/elements/1.1/"
   xmlns:cc="http://creativecommons.org/ns#"
   xmlns:rdf="http://www.w3.org/1999/02/22-rdf-syntax-ns#"
   xmlns:svg="http://www.w3.org/2000/svg"
   xmlns="http://www.w3.org/2000/svg"
   xmlns:sodipodi="http://sodipodi.sourceforge.net/DTD/sodipodi-0.dtd"
   xmlns:inkscape="http://www.inkscape.org/namespaces/inkscape"
   viewBox="0 0 400 400"
   version="1.1"
   id="svg4"
   sodipodi:docname="mailingprofiles.svg"
   width="400"
   height="400"
   inkscape:version="1.0.2 (e86c870879, 2021-01-15)">
  <metadata
     id="metadata10">
    <rdf:RDF>
      <cc:Work
         rdf:about="">
        <dc:format>image/svg+xml</dc:format>
        <dc:type
           rdf:resource="http://purl.org/dc/dcmitype/StillImage" />
        <dc:title />
      </cc:Work>
    </rdf:RDF>
  </metadata>
  <defs
     id="defs8" />
  <sodipodi:namedview
     pagecolor="#ffffff"
     bordercolor="#666666"
     borderopacity="1"
     objecttolerance="10"
     gridtolerance="10"
     guidetolerance="10"
     inkscape:pageopacity="0"
     inkscape:pageshadow="2"
     inkscape:window-width="960"
     inkscape:window-height="1015"
     id="namedview6"
     showgrid="false"
     inkscape:zoom="0.4609375"
     inkscape:cx="320"
     inkscape:cy="256"
     inkscape:window-x="26"
     inkscape:window-y="23"
     inkscape:window-maximized="0"
     inkscape:current-layer="svg4"
     inkscape:document-rotation="0" />
  <path
     d="M 111.11109,350 C 93.33332,350 75.55554,332.5 66.66665,325 22.22221,290 8.88888,277.5 -9.9999999e-6,270 V 375 C -9.9999999e-6,388.80469 9.95138,400 22.22221,400 h 177.77777 c 12.27083,0 22.22222,-11.19531 22.22222,-25 V 270 c -8.88889,7.5 -22.22222,20 -66.66667,55 -8.88888,7.5 -26.66666,25 -44.44444,25 z M 199.99998,200 H 22.22221 C 9.95138,200 -9.9999999e-6,211.19531 -9.9999999e-6,225 v 12.5 C 17.77777,252.5 15.55554,252.5 79.99998,305 c 6.66667,5 20,20 31.11111,20 11.11111,0 24.44445,-15 31.11111,-17.5 64.44444,-52.5 62.22222,-52.5 80,-67.5 v -15 c 0,-13.80469 -9.95139,-25 -22.22222,-25 z M 377.77781,125 H 155.55553 c -12.27083,0 -22.22222,11.19531 -22.22222,25 v 25 h 66.66667 c 23.06249,0 42.07638,19.85937 44.24305,45.17188 L 244.44442,220 v 105 h 133.33339 c 12.2708,0 22.2222,-11.19531 22.2222,-25 V 150 c 0,-13.80469 -9.9514,-25 -22.2222,-25 z m -22.2223,100 h -44.4444 v -50 h 44.4444 z M 111.11109,150 c 0,-27.57031 19.9375,-50 44.44444,-50 H 311.11111 V 25 c 0,-13.80469 -9.95139,-25 -22.22225,-25 H 66.66665 C 54.39582,0 44.44443,11.19531 44.44443,25 v 150 h 66.66666 z"
     id="path2"
     style="stroke-width:0.73657" />
</svg>
