<?xml version="1.0" encoding="UTF-8" standalone="no"?>
<svg
   viewBox="0 0 400 400"
   version="1.1"
   id="svg4"
   sodipodi:docname="monthlycalculation.svg"
   width="400"
   height="400"
   inkscape:version="1.1.1 (3bf5ae0d25, 2021-09-20)"
   xmlns:inkscape="http://www.inkscape.org/namespaces/inkscape"
   xmlns:sodipodi="http://sodipodi.sourceforge.net/DTD/sodipodi-0.dtd"
   xmlns="http://www.w3.org/2000/svg"
   xmlns:svg="http://www.w3.org/2000/svg"
   xmlns:rdf="http://www.w3.org/1999/02/22-rdf-syntax-ns#"
   xmlns:cc="http://creativecommons.org/ns#"
   xmlns:dc="http://purl.org/dc/elements/1.1/">
  <metadata
     id="metadata10">
    <rdf:RDF>
      <cc:Work
         rdf:about="">
        <dc:format>image/svg+xml</dc:format>
        <dc:type
           rdf:resource="http://purl.org/dc/dcmitype/StillImage" />
      </cc:Work>
    </rdf:RDF>
  </metadata>
  <defs
     id="defs8" />
  <sodipodi:namedview
     pagecolor="#ffffff"
     bordercolor="#666666"
     borderopacity="1"
     objecttolerance="10"
     gridtolerance="10"
     guidetolerance="10"
     inkscape:pageopacity="0"
     inkscape:pageshadow="2"
     inkscape:window-width="1920"
     inkscape:window-height="1011"
     id="namedview6"
     showgrid="false"
     inkscape:zoom="0.65186406"
     inkscape:cx="333.65852"
     inkscape:cy="57.527332"
     inkscape:window-x="0"
     inkscape:window-y="0"
     inkscape:window-maximized="1"
     inkscape:current-layer="svg4"
     inkscape:pagecheckerboard="0" />
  <path
     d="M 365.54819,125.03477 H 34.451812 c -5.174944,0 -9.370653,-4.19571 -9.370653,-9.37065 V 87.552165 c 0,-20.701336 16.781278,-37.482613 37.482612,-37.482613 H 100.04639 V 9.463389 c 0,-5.1749426 4.19571,-9.37065248 9.37065,-9.37065248 h 31.23551 c 5.17494,0 9.37065,4.19570988 9.37065,9.37065248 v 40.606163 h 99.95363 V 9.463389 c 0,-5.1749426 4.19571,-9.37065248 9.37065,-9.37065248 h 31.23551 c 5.17494,0 9.37062,4.19570988 9.37062,9.37065248 v 40.606163 h 37.48262 c 20.70133,0 37.48261,16.781277 37.48261,37.482613 v 28.111955 c 0,5.17494 -4.19571,9.37065 -9.37065,9.37065 z M 34.451813,150.02319 H 365.54819 c 5.17494,0 9.37065,4.19571 9.37065,9.37065 v 203.03081 c 0,20.70134 -16.78128,37.48262 -37.48261,37.48262 H 62.563771 c -20.701334,0 -37.482612,-16.78128 -37.482612,-37.48262 V 159.39384 c 0,-5.17494 4.195709,-9.37065 9.370654,-9.37065 z m 260.266757,74.92383 -21.99682,-22.17565 c -3.6444,-3.67408 -9.57759,-3.69828 -13.25167,-0.0531 l -82.80299,82.1369 -35.90522,-36.19571 c -3.6444,-3.67408 -9.57837,-3.69829 -13.25245,-0.0531 l -22.17486,21.9976 c -3.67408,3.6444 -3.69829,9.57759 -0.0531,13.25167 l 64.5021,65.02374 c 3.6444,3.67408 9.57759,3.69829 13.25167,0.0531 L 294.66547,238.19869 c 3.67405,-3.64441 3.69826,-9.57759 0.0531,-13.25167 z"
     id="path2-3"
     style="stroke-width:0.780888" />
</svg>
