<?xml version="1.0" encoding="UTF-8" standalone="no"?>
<svg
   viewBox="0 0 400 400"
   version="1.1"
   id="svg4"
   sodipodi:docname="paymentconditions.svg"
   width="400"
   height="400"
   inkscape:version="1.1 (c4e8f9ed74, 2021-05-24)"
   xmlns:inkscape="http://www.inkscape.org/namespaces/inkscape"
   xmlns:sodipodi="http://sodipodi.sourceforge.net/DTD/sodipodi-0.dtd"
   xmlns="http://www.w3.org/2000/svg"
   xmlns:svg="http://www.w3.org/2000/svg"
   xmlns:rdf="http://www.w3.org/1999/02/22-rdf-syntax-ns#"
   xmlns:cc="http://creativecommons.org/ns#"
   xmlns:dc="http://purl.org/dc/elements/1.1/">
  <metadata
     id="metadata10">
    <rdf:RDF>
      <cc:Work
         rdf:about="">
        <dc:format>image/svg+xml</dc:format>
        <dc:type
           rdf:resource="http://purl.org/dc/dcmitype/StillImage" />
      </cc:Work>
    </rdf:RDF>
  </metadata>
  <defs
     id="defs8" />
  <sodipodi:namedview
     pagecolor="#ffffff"
     bordercolor="#666666"
     borderopacity="1"
     objecttolerance="10"
     gridtolerance="10"
     guidetolerance="10"
     inkscape:pageopacity="0"
     inkscape:pageshadow="2"
     inkscape:window-width="1920"
     inkscape:window-height="995"
     id="namedview6"
     showgrid="false"
     inkscape:zoom="0.92187498"
     inkscape:cx="-254.37289"
     inkscape:cy="278.23729"
     inkscape:window-x="0"
     inkscape:window-y="0"
     inkscape:window-maximized="1"
     inkscape:current-layer="svg4"
     inkscape:pagecheckerboard="0" />
  <path
     d="m 200,324.99191 c 89.75982,0 162.48948,-72.72967 162.48948,-162.48948 C 362.48948,72.742611 289.75982,0.01294636 200,0.01294636 110.24018,0.01294636 37.510516,72.742611 37.510516,162.50243 37.510516,252.26224 110.24018,324.99191 200,324.99191 Z M 182.65737,76.101769 V 62.977618 c 0,-7.187032 5.78088,-12.967907 12.96791,-12.967907 h 8.67132 c 7.18703,0 12.96791,5.780875 12.96791,12.967907 v 13.28039 c 12.10859,0.62496 23.82658,4.765316 33.59158,12.030471 4.37471,3.202918 4.84343,9.608753 0.93743,13.358511 l -12.73355,12.10859 c -2.96856,2.89044 -7.42139,2.96856 -10.93679,0.7812 -4.21848,-2.65608 -8.90567,-3.98412 -13.90535,-3.98412 h -30.38865 c -7.0308,0 -12.73356,6.40584 -12.73356,14.29595 0,6.40584 3.906,12.10859 9.45251,13.74912 l 48.66873,14.60843 c 20.07683,6.01523 34.13841,25.31085 34.13841,46.95008 0,26.56078 -20.62366,48.04376 -46.16888,48.74684 v 13.12415 c 0,7.18704 -5.78088,12.96791 -12.96791,12.96791 h -8.67131 c -7.18704,0 -12.96791,-5.78087 -12.96791,-12.96791 v -13.28038 c -12.1086,-0.62496 -23.82659,-4.76532 -33.59158,-12.03048 -4.37472,-3.20291 -4.84344,-9.60875 -0.93744,-13.3585 l 12.73354,-12.10859 c 2.96857,-2.89044 7.42141,-2.96856 10.9368,-0.7812 4.21848,2.65607 8.90567,3.98411 13.90535,3.98411 h 30.38866 c 7.03079,0 12.73355,-6.40584 12.73355,-14.29595 0,-6.40584 -3.90599,-12.10859 -9.45251,-13.74911 L 170.6269,171.7987 c -20.07683,-6.01524 -34.13841,-25.31086 -34.13841,-46.95009 0.0781,-26.560777 20.62366,-48.043763 46.16888,-48.746841 z M 374.98868,274.99514 h -25.38899 c -15.31151,20.31119 -34.84149,37.26322 -57.02756,49.99677 h 49.84052 c 4.14036,0 7.49952,2.81232 7.49952,6.2496 v 12.49918 c 0,3.43728 -3.35916,6.2496 -7.49952,6.2496 H 57.509222 c -4.140358,0 -7.499515,-2.81232 -7.499515,-6.2496 v -12.49918 c 0,-3.43728 3.359157,-6.2496 7.499515,-6.2496 H 107.34975 C 85.163682,312.25836 65.711816,295.30633 50.322187,274.99514 H 25.011325 c -13.827227,0 -24.99837864,11.17116 -24.99837864,24.99839 v 74.99515 c 0,13.82722 11.17115164,24.99837 24.99837864,24.99837 H 374.98868 c 13.82722,0 24.99837,-11.17115 24.99837,-24.99837 v -74.99515 c 0,-13.82723 -11.17115,-24.99839 -24.99837,-24.99839 z"
     id="path2"
     style="stroke-width:0.7812" />
</svg>
