<?xml version="1.0" encoding="UTF-8" standalone="no"?>
<svg
   viewBox="0 0 400 400"
   version="1.1"
   id="svg4"
   sodipodi:docname="payments.svg"
   width="400"
   height="400"
   inkscape:version="1.1.1 (3bf5ae0d25, 2021-09-20, custom)"
   xmlns:inkscape="http://www.inkscape.org/namespaces/inkscape"
   xmlns:sodipodi="http://sodipodi.sourceforge.net/DTD/sodipodi-0.dtd"
   xmlns="http://www.w3.org/2000/svg"
   xmlns:svg="http://www.w3.org/2000/svg"
   xmlns:rdf="http://www.w3.org/1999/02/22-rdf-syntax-ns#"
   xmlns:cc="http://creativecommons.org/ns#"
   xmlns:dc="http://purl.org/dc/elements/1.1/">
  <metadata
     id="metadata10">
    <rdf:RDF>
      <cc:Work
         rdf:about="">
        <dc:format>image/svg+xml</dc:format>
        <dc:type
           rdf:resource="http://purl.org/dc/dcmitype/StillImage" />
        <dc:title />
      </cc:Work>
    </rdf:RDF>
  </metadata>
  <defs
     id="defs8" />
  <sodipodi:namedview
     pagecolor="#ffffff"
     bordercolor="#666666"
     borderopacity="1"
     objecttolerance="10"
     gridtolerance="10"
     guidetolerance="10"
     inkscape:pageopacity="0"
     inkscape:pageshadow="2"
     inkscape:window-width="1920"
     inkscape:window-height="1011"
     id="namedview6"
     showgrid="false"
     inkscape:zoom="0.4609375"
     inkscape:cx="712.67797"
     inkscape:cy="272.27119"
     inkscape:window-x="1366"
     inkscape:window-y="32"
     inkscape:window-maximized="1"
     inkscape:current-layer="svg4"
     inkscape:pagecheckerboard="0" />
  <path
     d="m 250.9205,182.34815 -84.35396,-24.68136 c -9.76319,-2.81179 -16.55838,-11.95013 -16.55838,-22.10385 0,-12.7312 10.30994,-23.04114 23.04114,-23.04114 h 51.78396 c 9.52887,0 18.90154,2.88991 26.7121,8.20109 4.76443,3.20233 11.16909,2.42127 15.23058,-1.56212 l 27.18073,-26.555873 c 5.54549,-5.389284 4.76443,-14.37142 -1.40592,-19.135858 C 273.41491,58.472777 249.51461,50.115485 224.98948,50.037381 V 12.546726 c 0,-6.8732877 -5.6236,-12.49688622 -12.4969,-12.49688622 h -24.99376 c -6.87328,0 -12.49689,5.62359852 -12.49689,12.49688622 v 37.490655 h -1.95263 c -49.75323,0 -89.743266,42.723723 -85.135033,93.414219 3.280433,36.00664 30.773573,65.29622 65.452433,75.44993 l 80.05817,23.43168 c 9.7632,2.88989 16.55837,11.95013 16.55837,22.10385 0,12.73121 -10.30992,23.04114 -23.04112,23.04114 h -51.78397 c -9.52888,0 -18.90155,-2.88991 -26.7121,-8.20109 -4.76444,-3.20233 -11.16909,-2.42127 -15.23057,1.56212 l -27.18074,26.55587 c -5.54548,5.38929 -4.76443,14.37142 1.40591,19.13586 19.13585,14.99627 43.03616,23.35355 67.56128,23.43166 v 37.49065 c 0,6.8733 5.62361,12.49688 12.49689,12.49688 h 24.99376 c 6.8733,0 12.4969,-5.62358 12.4969,-12.49688 v -37.64686 c 36.39717,-0.70295 70.52929,-22.33818 82.55754,-56.78273 16.79269,-48.11301 -11.40341,-97.4757 -56.62652,-110.67553 z"
     id="path141"
     style="stroke-width:0.781055" />
</svg>
