<?xml version="1.0" encoding="UTF-8" standalone="no"?>
<svg
   viewBox="0 0 400 400"
   version="1.1"
   id="svg4"
   sodipodi:docname="plans.svg"
   width="400"
   height="400"
   inkscape:version="1.1.1 (3bf5ae0d25, 2021-09-20)"
   xmlns:inkscape="http://www.inkscape.org/namespaces/inkscape"
   xmlns:sodipodi="http://sodipodi.sourceforge.net/DTD/sodipodi-0.dtd"
   xmlns="http://www.w3.org/2000/svg"
   xmlns:svg="http://www.w3.org/2000/svg"
   xmlns:rdf="http://www.w3.org/1999/02/22-rdf-syntax-ns#"
   xmlns:cc="http://creativecommons.org/ns#"
   xmlns:dc="http://purl.org/dc/elements/1.1/">
  <metadata
     id="metadata10">
    <rdf:RDF>
      <cc:Work
         rdf:about="">
        <dc:format>image/svg+xml</dc:format>
        <dc:type
           rdf:resource="http://purl.org/dc/dcmitype/StillImage" />
        <dc:title />
      </cc:Work>
    </rdf:RDF>
  </metadata>
  <defs
     id="defs8" />
  <sodipodi:namedview
     pagecolor="#ffffff"
     bordercolor="#666666"
     borderopacity="1"
     objecttolerance="10"
     gridtolerance="10"
     guidetolerance="10"
     inkscape:pageopacity="0"
     inkscape:pageshadow="2"
     inkscape:window-width="1920"
     inkscape:window-height="1011"
     id="namedview6"
     showgrid="false"
     inkscape:zoom="0.4609375"
     inkscape:cx="-226.71186"
     inkscape:cy="387.25424"
     inkscape:window-x="0"
     inkscape:window-y="0"
     inkscape:window-maximized="1"
     inkscape:current-layer="svg4"
     inkscape:pagecheckerboard="0" />
  <path
     d="M 344.51214,82.046845 268.03788,5.494466 C 264.52271,1.9793058 259.75772,0.02643887 254.75839,0.02643887 h -4.765 V 100.01322 h 99.98679 v -4.764995 c 0,-4.921225 -1.95287,-9.68622 -5.46804,-13.20138 z M 224.9967,106.26239 V 0.02643887 H 68.767351 c -10.389251,0 -18.747522,8.35826963 -18.747522,18.74752113 v 362.45208 c 0,10.38926 8.358271,18.74752 18.747522,18.74752 H 331.23265 c 10.38925,0 18.74753,-8.35826 18.74753,-18.74752 V 125.00992 H 243.74421 c -10.31113,0 -18.74751,-8.43639 -18.74751,-18.74753 z M 100.01322,56.269003 c 0,-3.452668 2.7965,-6.249174 6.24917,-6.249174 h 62.49174 c 3.45267,0 6.24917,2.796506 6.24917,6.249174 v 12.498348 c 0,3.452668 -2.7965,6.249174 -6.24917,6.249174 h -62.49174 c -3.45267,0 -6.24917,-2.796506 -6.24917,-6.249174 z m 0,62.491737 v -12.49835 c 0,-3.45267 2.7965,-6.24917 6.24917,-6.24917 h 62.49174 c 3.45267,0 6.24917,2.7965 6.24917,6.24917 v 12.49835 c 0,3.45267 -2.7965,6.24918 -6.24917,6.24918 h -62.49174 c -3.45267,0 -6.24917,-2.79651 -6.24917,-6.24918 z M 212.49835,324.88973 V 343.731 c 0,3.45266 -2.79651,6.24918 -6.24918,6.24918 h -12.49834 c -3.45267,0 -6.24918,-2.79652 -6.24918,-6.24918 v -18.97406 c -8.81914,-0.45307 -17.39613,-3.53078 -24.50457,-8.86601 -3.04647,-2.28876 -3.2027,-6.85066 -0.44525,-9.48312 l 9.17847,-8.75665 c 2.16378,-2.06224 5.3821,-2.15597 7.91301,-0.57024 3.02304,1.89037 6.45228,2.90586 10.0143,2.90586 h 21.95804 c 5.07745,0 9.21754,-4.62438 9.21754,-10.30332 0,-4.64782 -2.81995,-8.74104 -6.85067,-9.944 l -35.15159,-10.54549 c -14.52153,-4.3588 -24.66862,-18.29446 -24.66862,-33.89395 0,-19.15371 14.88084,-34.71416 33.33154,-35.20629 v -18.84126 c 0,-3.45266 2.79649,-6.24917 6.24917,-6.24917 h 12.49834 c 3.45267,0 6.24917,2.79651 6.24917,6.24917 v 18.97405 c 8.81915,0.45307 17.39615,3.52298 24.50457,8.86603 3.04648,2.28876 3.20271,6.85065 0.44526,9.48312 l -9.17847,8.75665 c -2.16379,2.06223 -5.3821,2.15597 -7.91301,0.57024 -3.02304,-1.89819 -6.45228,-2.90586 -10.01431,-2.90586 h -21.95803 c -5.07746,0 -9.21754,4.62438 -9.21754,10.30332 0,4.64782 2.81995,8.74102 6.85066,9.944 l 35.1516,10.54549 c 14.52152,4.35879 24.66861,18.29444 24.66861,33.89395 0,19.16153 -14.88084,34.71416 -33.33152,35.20627 z"
     id="path2-3"
     style="stroke-width:0.781147" />
</svg>
