<?xml version="1.0" encoding="UTF-8" standalone="no"?>
<svg
   viewBox="0 0 400 400"
   version="1.1"
   id="svg4"
   sodipodi:docname="sellers.svg"
   width="400"
   height="400"
   inkscape:version="1.1 (c4e8f9ed74, 2021-05-24)"
   xmlns:inkscape="http://www.inkscape.org/namespaces/inkscape"
   xmlns:sodipodi="http://sodipodi.sourceforge.net/DTD/sodipodi-0.dtd"
   xmlns="http://www.w3.org/2000/svg"
   xmlns:svg="http://www.w3.org/2000/svg"
   xmlns:rdf="http://www.w3.org/1999/02/22-rdf-syntax-ns#"
   xmlns:cc="http://creativecommons.org/ns#"
   xmlns:dc="http://purl.org/dc/elements/1.1/">
  <metadata
     id="metadata10">
    <rdf:RDF>
      <cc:Work
         rdf:about="">
        <dc:format>image/svg+xml</dc:format>
        <dc:type
           rdf:resource="http://purl.org/dc/dcmitype/StillImage" />
      </cc:Work>
    </rdf:RDF>
  </metadata>
  <defs
     id="defs8" />
  <sodipodi:namedview
     pagecolor="#ffffff"
     bordercolor="#666666"
     borderopacity="1"
     objecttolerance="10"
     gridtolerance="10"
     guidetolerance="10"
     inkscape:pageopacity="0"
     inkscape:pageshadow="2"
     inkscape:window-width="1920"
     inkscape:window-height="995"
     id="namedview6"
     showgrid="false"
     inkscape:zoom="1.3037281"
     inkscape:cx="237.39612"
     inkscape:cy="166.06223"
     inkscape:window-x="0"
     inkscape:window-y="0"
     inkscape:window-maximized="1"
     inkscape:current-layer="svg4"
     inkscape:pagecheckerboard="0" />
  <path
     d="m 200,200.00001 c 55.18623,0 99.91284,-44.7266 99.91284,-99.91283 0,-55.18623 -44.72661,-99.9128335 -99.91284,-99.9128335 -55.18623,0 -99.91283,44.7266035 -99.91283,99.9128335 0,55.18623 44.7266,99.91283 99.91283,99.91283 z m 74.77851,25.44655 -37.3112,149.40089 -24.97821,-106.15736 24.97821,-43.71186 h -74.93462 l 24.97821,43.71186 -24.97821,106.15736 -37.3112,-149.40088 C 69.566919,228.1005 25.152543,273.60768 25.152543,329.88667 v 32.47167 c 0,20.68508 16.782233,37.46732 37.467311,37.46732 H 337.38015 c 20.68507,0 37.46731,-16.78224 37.46731,-37.46732 v -32.47167 c 0,-56.27899 -44.41438,-101.78618 -100.06895,-104.44011 z"
     id="path2"
     style="stroke-width:0.780569" />
</svg>
