<?xml version="1.0" encoding="UTF-8" standalone="no"?>
<svg
   viewBox="0 0 400 400"
   version="1.1"
   id="svg4"
   sodipodi:docname="serviceorders.svg"
   width="400"
   height="400"
   inkscape:version="1.2.1 (9c6d41e410, 2022-07-14, custom)"
   xmlns:inkscape="http://www.inkscape.org/namespaces/inkscape"
   xmlns:sodipodi="http://sodipodi.sourceforge.net/DTD/sodipodi-0.dtd"
   xmlns="http://www.w3.org/2000/svg"
   xmlns:svg="http://www.w3.org/2000/svg"
   xmlns:rdf="http://www.w3.org/1999/02/22-rdf-syntax-ns#"
   xmlns:cc="http://creativecommons.org/ns#"
   xmlns:dc="http://purl.org/dc/elements/1.1/">
  <metadata
     id="metadata10">
    <rdf:RDF>
      <cc:Work
         rdf:about="">
        <dc:format>image/svg+xml</dc:format>
        <dc:type
           rdf:resource="http://purl.org/dc/dcmitype/StillImage" />
      </cc:Work>
    </rdf:RDF>
  </metadata>
  <defs
     id="defs8" />
  <sodipodi:namedview
     pagecolor="#ffffff"
     bordercolor="#666666"
     borderopacity="1"
     objecttolerance="10"
     gridtolerance="10"
     guidetolerance="10"
     inkscape:pageopacity="0"
     inkscape:pageshadow="2"
     inkscape:window-width="1920"
     inkscape:window-height="1011"
     id="namedview6"
     showgrid="false"
     inkscape:zoom="0.65186406"
     inkscape:cx="-105.85029"
     inkscape:cy="304.51134"
     inkscape:window-x="1366"
     inkscape:window-y="32"
     inkscape:window-maximized="1"
     inkscape:current-layer="svg4"
     inkscape:pagecheckerboard="0"
     inkscape:showpageshadow="2"
     inkscape:deskcolor="#d1d1d1" />
  <path
     d="m 310,180 c -49.74375,0 -90,40.25625 -90,90 0,49.74375 40.25625,90 90,90 49.74375,0 90,-40.25625 90,-90 0,-49.74375 -40.25625,-90 -90,-90 z m 40,93.93125 C 350,277.26875 347.26875,280 343.93125,280 H 306.075 c -3.3375,0 -6.06875,-2.73125 -6.06875,-6.06875 V 226.075 c 0,-3.3375 2.73125,-6.06875 6.06875,-6.06875 h 7.85625 c 3.3375,0 6.06875,2.73125 6.06875,6.06875 V 260 h 23.93125 c 3.3375,0 6.06875,2.73125 6.06875,6.06875 z M 310,160 c 3.375,0 6.7,0.20625 10,0.50625 V 130 c 0,-16 -14,-30 -30,-30 H 240 V 70 C 240,54 226,40 210,40 H 110 C 94,40 80,54 80,70 v 30 H 30 C 14,100 0,114 0,130 v 50 H 246.95 C 264.825,167.44375 286.54375,160 310,160 Z M 200,100 H 120 V 80 h 80 z m 4.2625,140 H 130 c -5.525,0 -10,-4.475 -10,-10 V 200 H 0 v 90 c 0,16 14,30 30,30 H 212.14375 C 204.4375,304.975 200,288.0125 200,270 c 0,-10.4125 1.55,-20.45 4.2625,-30 z"
     id="path2"
     style="stroke-width:0.625" />
</svg>
