<?xml version="1.0" encoding="UTF-8" standalone="no"?>
<svg
   xmlns:dc="http://purl.org/dc/elements/1.1/"
   xmlns:cc="http://creativecommons.org/ns#"
   xmlns:rdf="http://www.w3.org/1999/02/22-rdf-syntax-ns#"
   xmlns:svg="http://www.w3.org/2000/svg"
   xmlns="http://www.w3.org/2000/svg"
   xmlns:sodipodi="http://sodipodi.sourceforge.net/DTD/sodipodi-0.dtd"
   xmlns:inkscape="http://www.inkscape.org/namespaces/inkscape"
   viewBox="0 0 400 400"
   version="1.1"
   id="svg4"
   sodipodi:docname="simcards.svg"
   width="400"
   height="400"
   inkscape:version="0.92.4 5da689c313, 2019-01-14">
  <metadata
     id="metadata10">
    <rdf:RDF>
      <cc:Work
         rdf:about="">
        <dc:format>image/svg+xml</dc:format>
        <dc:type
           rdf:resource="http://purl.org/dc/dcmitype/StillImage" />
        <dc:title></dc:title>
      </cc:Work>
    </rdf:RDF>
  </metadata>
  <defs
     id="defs8" />
  <sodipodi:namedview
     pagecolor="#ffffff"
     bordercolor="#666666"
     borderopacity="1"
     objecttolerance="10"
     gridtolerance="10"
     guidetolerance="10"
     inkscape:pageopacity="0"
     inkscape:pageshadow="2"
     inkscape:window-width="960"
     inkscape:window-height="1017"
     id="namedview6"
     showgrid="false"
     inkscape:zoom="0.4609375"
     inkscape:cx="192"
     inkscape:cy="256"
     inkscape:window-x="0"
     inkscape:window-y="27"
     inkscape:window-maximized="0"
     inkscape:current-layer="svg4" />
  <path
     d="M 300,0 H 150 L 50,100 v 250 c 0,27.57812 22.421875,50 50,50 h 200 c 27.57812,0 50,-22.42188 50,-50 V 50 C 350,22.421875 327.57812,0 300,0 Z M 175,150 h 50 v 50 h -50 z m -75,25 c 0,-13.82812 11.17188,-25 25,-25 h 25 v 50 h -50 z m 50,175 h -25 c -13.82812,0 -25,-11.17188 -25,-25 v -25 h 50 z m 75,0 h -50 v -50 h 50 z m 75,-25 c 0,13.82812 -11.17188,25 -25,25 h -25 v -50 h 50 z m 0,-50 H 100 v -50 h 200 z m 0,-75 h -50 v -50 h 25 c 13.82812,0 25,11.17188 25,25 z"
     id="path2"
     inkscape:connector-curvature="0"
     style="stroke-width:0.78125" />
</svg>
