<?xml version="1.0" encoding="UTF-8" standalone="no"?>
<svg
   viewBox="0 0 400 400"
   version="1.1"
   id="svg4"
   sodipodi:docname="technician.svg"
   width="400"
   height="400"
   inkscape:version="1.2.1 (9c6d41e410, 2022-07-14)"
   xmlns:inkscape="http://www.inkscape.org/namespaces/inkscape"
   xmlns:sodipodi="http://sodipodi.sourceforge.net/DTD/sodipodi-0.dtd"
   xmlns="http://www.w3.org/2000/svg"
   xmlns:svg="http://www.w3.org/2000/svg">
  <defs
     id="defs8" />
  <sodipodi:namedview
     id="namedview6"
     pagecolor="#ffffff"
     bordercolor="#000000"
     borderopacity="0.25"
     inkscape:showpageshadow="2"
     inkscape:pageopacity="0.0"
     inkscape:pagecheckerboard="0"
     inkscape:deskcolor="#d1d1d1"
     showgrid="false"
     inkscape:zoom="1.625"
     inkscape:cx="153.84615"
     inkscape:cy="207.07692"
     inkscape:window-width="1920"
     inkscape:window-height="1011"
     inkscape:window-x="1366"
     inkscape:window-y="32"
     inkscape:window-maximized="1"
     inkscape:current-layer="svg4" />
  <path
     d="m 381.60273,273.32023 c 1.62517,-8.81343 1.62517,-17.81438 0,-26.62781 l 16.1267,-9.31348 c 1.87519,-1.06261 2.68778,-3.25034 2.06271,-5.31306 -4.18794,-13.50142 -11.37619,-25.75271 -20.75218,-35.87878 -1.43766,-1.56267 -3.7504,-1.93771 -5.6256,-0.87509 l -16.1267,9.31348 c -6.81322,-5.81312 -14.62654,-10.31359 -23.06493,-13.31391 v -18.62696 c 0,-2.12522 -1.50016,-4.00042 -3.56287,-4.43797 -13.93897,-3.12533 -28.12797,-3.00031 -41.37937,0 -2.06271,0.43755 -3.56287,2.31275 -3.56287,4.43797 v 18.62696 c -8.43839,3.00032 -16.25172,7.50079 -23.06493,13.31391 l -16.1267,-9.31348 c -1.8127,-1.06262 -4.18795,-0.68758 -5.6256,0.87509 -9.37599,10.12607 -16.56424,22.37736 -20.75219,35.87878 -0.62506,2.06272 0.25003,4.25045 2.06272,5.31306 l 16.1267,9.31348 c -1.62517,8.81343 -1.62517,17.81438 0,26.62781 l -16.1267,9.31348 c -1.8752,1.06261 -2.68778,3.25034 -2.06272,5.31306 4.18795,13.50143 11.3762,25.69021 20.75219,35.87879 1.43765,1.56266 3.7504,1.9377 5.6256,0.87509 l 16.1267,-9.31348 c 6.81321,5.81311 14.62654,10.31358 23.06493,13.3139 v 18.62696 c 0,2.12523 1.50016,4.00042 3.56287,4.43797 13.93897,3.12533 28.12797,3.00032 41.37937,0 2.06271,-0.43755 3.56287,-2.31274 3.56287,-4.43797 v -18.62696 c 8.43839,-3.00032 16.25171,-7.50079 23.06493,-13.3139 l 16.1267,9.31348 c 1.81269,1.06261 4.18794,0.68757 5.6256,-0.87509 9.37599,-10.12607 16.56424,-22.37736 20.75218,-35.87879 0.62507,-2.06272 -0.25002,-4.25045 -2.06271,-5.31306 z m -71.57005,17.00179 c -16.75177,0 -30.3157,-13.62643 -30.3157,-30.31569 0,-16.68926 13.62644,-30.3157 30.3157,-30.3157 16.68927,0 30.3157,13.62644 30.3157,30.3157 0,16.68926 -13.56393,30.31569 -30.3157,30.31569 z M 140.01476,200 c 44.19216,0 80.00843,-35.81628 80.00843,-80.00843 0,-44.192164 -35.81627,-80.00844 -80.00843,-80.00844 -44.192156,0 -80.008432,35.816276 -80.008432,80.00844 0,44.19215 35.816276,80.00843 80.008432,80.00843 z m 125.76326,141.57743 c -1.43766,-0.75008 -2.87531,-1.62517 -4.25045,-2.43776 l -4.93802,2.8753 c -3.7504,2.12523 -8.00085,3.31285 -12.2513,3.31285 -6.81321,0 -13.37641,-2.8753 -18.0644,-7.87583 -11.43871,-12.3763 -20.18963,-27.44039 -25.12765,-43.50459 -3.43786,-11.06366 1.18763,-22.75239 11.18868,-28.56551 l 4.93802,-2.8753 c -0.0625,-1.62517 -0.0625,-3.25034 0,-4.87551 l -4.93802,-2.87531 c -10.00105,-5.7506 -14.62654,-17.50184 -11.18868,-28.56551 0.56256,-1.81269 1.37515,-3.62538 2.00021,-5.43807 -2.37525,-0.18752 -4.68799,-0.75008 -7.12575,-0.75008 h -10.43859 c -13.87647,6.37567 -29.31559,10.00105 -45.56731,10.00105 -16.25171,0 -31.62834,-3.62538 -45.567306,-10.00105 h -10.4386 C 37.628968,220.00211 1.2838134e-6,257.63108 1.2838134e-6,304.01097 v 26.00274 C 1.2838134e-6,346.57795 13.438918,360.01687 30.003164,360.01687 H 250.02635 c 6.31317,0 12.18879,-2.00021 17.0018,-5.31306 -0.75008,-2.37525 -1.25013,-4.81301 -1.25013,-7.37578 z"
     id="path2"
     style="stroke-width:0.625066" />
</svg>
