<?xml version="1.0" encoding="UTF-8" standalone="no"?>
<svg
   xmlns:dc="http://purl.org/dc/elements/1.1/"
   xmlns:cc="http://creativecommons.org/ns#"
   xmlns:rdf="http://www.w3.org/1999/02/22-rdf-syntax-ns#"
   xmlns:svg="http://www.w3.org/2000/svg"
   xmlns="http://www.w3.org/2000/svg"
   xmlns:sodipodi="http://sodipodi.sourceforge.net/DTD/sodipodi-0.dtd"
   xmlns:inkscape="http://www.inkscape.org/namespaces/inkscape"
   viewBox="0 0 400 400"
   version="1.1"
   id="svg4"
   sodipodi:docname="transfer.svg"
   width="400"
   height="400"
   inkscape:version="0.92.4 5da689c313, 2019-01-14">
  <metadata
     id="metadata10">
    <rdf:RDF>
      <cc:Work
         rdf:about="">
        <dc:format>image/svg+xml</dc:format>
        <dc:type
           rdf:resource="http://purl.org/dc/dcmitype/StillImage" />
        <dc:title></dc:title>
      </cc:Work>
    </rdf:RDF>
  </metadata>
  <defs
     id="defs8" />
  <sodipodi:namedview
     pagecolor="#ffffff"
     bordercolor="#666666"
     borderopacity="1"
     objecttolerance="10"
     gridtolerance="10"
     guidetolerance="10"
     inkscape:pageopacity="0"
     inkscape:pageshadow="2"
     inkscape:window-width="1054"
     inkscape:window-height="841"
     id="namedview6"
     showgrid="false"
     inkscape:zoom="0.4609375"
     inkscape:cx="320"
     inkscape:cy="256"
     inkscape:window-x="0"
     inkscape:window-y="27"
     inkscape:window-maximized="0"
     inkscape:current-layer="svg4" />
  <path
     d="m 80.00562,100.00468 c 16.56172,0 29.99859,-13.43687 29.99859,-29.998595 0,-16.561725 -13.43687,-29.998596 -29.99859,-29.998596 -16.56173,0 -29.9986,13.436871 -29.9986,29.998596 0,16.561725 13.43687,29.998595 29.9986,29.998595 z m 239.98876,0 c 16.56173,0 29.9986,-13.43687 29.9986,-29.998595 0,-16.561725 -13.43687,-29.998596 -29.9986,-29.998596 -16.56172,0 -29.99859,13.436871 -29.99859,29.998596 0,16.561725 13.43687,29.998595 29.99859,29.998595 z m 78.55883,232.55162 -27.49872,-68.74679 -25.68629,28.99865 -1.24995,11.37446 17.31169,43.24798 c 3.12486,7.81213 10.62451,12.56191 18.56164,12.56191 2.49988,0 4.99976,-0.43748 7.43715,-1.43743 10.24952,-4.12481 15.24928,-15.74926 11.12448,-25.99878 z m -21.374,-131.11887 -11.56196,-50.12265 c -2.87487,-12.49942 -11.62446,-22.99892 -23.4364,-28.06119 -11.56196,-4.99976 -24.37386,-4.1873 -35.06086,2.06241 -14.18684,8.3746 -24.81134,21.56149 -30.0611,37.12326 l -7.06217,21.18651 -9.99953,6.3747 v -59.99719 c 0,-5.49975 -4.49979,-9.99954 -9.99953,-9.99954 h -99.99532 c -5.49974,0 -9.99953,4.49979 -9.99953,9.99954 v 59.99719 l -10.06203,-6.3747 -7.06217,-21.18651 C 117.69135,146.81499 107.00435,133.6906 92.81752,125.316 c -10.7495,-6.24971 -23.4989,-7.06217 -35.06086,-2.06241 -11.81195,5.06227 -20.56154,15.56177 -23.43641,28.06119 l -11.49946,50.12265 c -2.87486,12.49942 0.43748,25.7488 8.99958,35.43584 l 41.99804,47.43528 6.3122,57.8723 c 1.12495,10.18702 9.74954,17.81166 19.87407,17.81166 0.74996,0 1.43743,-0.0625 2.1874,-0.12499 10.99948,-1.18745 18.87411,-11.06198 17.68667,-22.06147 l -6.3122,-57.99729 c -0.93746,-8.12462 -4.3123,-15.68676 -9.74955,-21.87397 l -27.06123,-30.62357 10.99948,-43.93544 4.2498,12.7494 c 2.56238,7.81214 7.43716,14.62432 15.31179,20.37405 l 31.936,20.31155 c 2.87487,1.81241 7.56215,2.87486 10.7495,3.12485 h 99.99532 c 3.18735,-0.24999 7.87463,-1.31244 10.7495,-3.12485 l 31.936,-20.31155 c 7.87463,-5.74973 12.74941,-12.49942 15.31179,-20.37405 l 4.2498,-12.7494 10.99948,43.93544 -27.06123,30.62357 c -5.43725,6.18721 -8.81209,13.74935 -9.74955,21.87397 l -6.3122,57.99729 c -1.18744,10.99949 6.74968,20.87402 17.68667,22.06147 0.74997,0.0625 1.43744,0.12499 2.1874,0.12499 10.06203,0 18.74912,-7.56214 19.87407,-17.81166 l 6.3122,-57.8723 41.99804,-47.43528 c 8.4996,-9.68704 11.87444,-22.93642 8.99958,-35.43584 z M 28.94551,263.80951 1.44679,332.5563 c -4.1248,10.24952 0.87496,21.87397 11.12448,25.99878 10.49951,4.12481 21.93648,-1.06245 25.99879,-11.12448 L 55.88175,304.18262 54.6318,292.80816 Z"
     id="path2"
     inkscape:connector-curvature="0"
     style="stroke-width:0.62497073" />
</svg>
