<?xml version="1.0" encoding="UTF-8" standalone="no"?>
<svg
   height="16"
   viewBox="0 0 16 16"
   width="16"
   version="1.1"
   id="svg1074"
   sodipodi:docname="sms.svg"
   inkscape:version="1.1.1 (3bf5ae0d25, 2021-09-20)"
   xmlns:inkscape="http://www.inkscape.org/namespaces/inkscape"
   xmlns:sodipodi="http://sodipodi.sourceforge.net/DTD/sodipodi-0.dtd"
   xmlns="http://www.w3.org/2000/svg"
   xmlns:svg="http://www.w3.org/2000/svg">
  <defs
     id="defs1078" />
  <sodipodi:namedview
     id="namedview1076"
     pagecolor="#ffffff"
     bordercolor="#666666"
     borderopacity="1.0"
     inkscape:pageshadow="2"
     inkscape:pageopacity="0.0"
     inkscape:pagecheckerboard="0"
     showgrid="false"
     inkscape:zoom="5.975"
     inkscape:cx="19.832636"
     inkscape:cy="-14.979079"
     inkscape:window-width="1920"
     inkscape:window-height="1019"
     inkscape:window-x="0"
     inkscape:window-y="0"
     inkscape:window-maximized="1"
     inkscape:current-layer="svg1074" />
  <path
     d="M 14.254392,0.70320971 H 1.745608 c -0.9579642,0 -1.73733085,0.77936659 -1.73733085,1.73733089 v 8.3391884 c 0,0.957966 0.77936665,1.737332 1.73733085,1.737332 h 1.4385104 c 0.1177904,1.005915 -0.1789452,1.688338 -0.9221754,2.134485 -0.1337745,0.08028 -0.1977084,0.240098 -0.1560125,0.390552 0.041347,0.15046 0.1782502,0.254692 0.3346099,0.254692 0.8895137,0 3.0257359,-0.276235 4.0597951,-2.779729 h 7.7540565 c 0.957964,0 1.737331,-0.779366 1.737331,-1.737332 V 2.4405406 c 0,-0.9579643 -0.779367,-1.73733089 -1.737331,-1.73733089 z M 5.5802454,6.9179902 c 0.1577491,0.1091039 0.1970132,0.3259233 0.08791,0.483673 -0.067409,0.097291 -0.175818,0.1497586 -0.2859649,0.1497586 -0.068103,0 -0.1372495,-0.020153 -0.1973608,-0.061849 L 4.872804,7.2734481 v 0.3790855 c 0,0.192149 -0.1556646,0.3474663 -0.3474663,0.3474663 -0.1918013,0 -0.3474663,-0.1553165 -0.3474663,-0.3474663 V 7.2734481 L 3.8661943,7.4892247 c -0.06046,0.041697 -0.1292573,0.061848 -0.1973607,0.061848 -0.1101462,0 -0.2185563,-0.05212 -0.2859648,-0.1497586 -0.109104,-0.1577487 -0.069841,-0.3742207 0.08791,-0.4836725 L 3.9148396,6.6101352 3.4704304,6.3022801 C 3.3126805,6.1931758 3.2734172,5.9763567 3.3825216,5.818607 3.4919735,5.6608574 3.7084447,5.6219412 3.8661943,5.7306981 l 0.3116771,0.216124 V 5.5677366 c 0,-0.1921489 0.1556647,-0.3474663 0.3474663,-0.3474663 0.1918012,0 0.3474663,0.1553166 0.3474663,0.3474663 V 5.9468221 L 5.1844812,5.7310456 c 0.1577493,-0.1094519 0.3742211,-0.069841 0.483673,0.08791 0.1091039,0.1577493 0.069841,0.3742213 -0.08791,0.483673 L 5.135835,6.610136 Z m 3.4746618,0 c 0.1577492,0.1091039 0.1970133,0.3259233 0.08791,0.483673 -0.067409,0.097291 -0.1758179,0.1497586 -0.2859646,0.1497586 -0.068104,0 -0.1372494,-0.020153 -0.1973609,-0.061849 L 8.3474661,7.2734481 v 0.3790855 c 0,0.192149 -0.1556646,0.3474663 -0.3474663,0.3474663 -0.1918014,0 -0.3474663,-0.1553165 -0.3474663,-0.3474663 V 7.2734481 L 7.3408564,7.4892247 c -0.06046,0.041697 -0.1292573,0.061848 -0.1973609,0.061848 -0.1101462,0 -0.2185563,-0.05212 -0.2859646,-0.1497586 C 6.748427,7.2435657 6.78769,7.0270937 6.9454408,6.9176419 L 7.3895016,6.6101352 6.9450923,6.3022801 C 6.7873433,6.1931758 6.7480791,5.9763567 6.857183,5.818607 6.9666343,5.6608574 7.1831062,5.6219412 7.3408559,5.7306981 L 7.652533,5.9468221 V 5.5677366 c 0,-0.1921489 0.1556646,-0.3474663 0.3474663,-0.3474663 0.1918014,0 0.3474663,0.1553166 0.3474663,0.3474663 V 5.9468221 L 8.6591425,5.7310456 c 0.1577493,-0.1094519 0.3742212,-0.069841 0.4836733,0.08791 0.1091039,0.1577493 0.069841,0.3742213 -0.08791,0.483673 L 8.6104967,6.610136 Z m 3.4746618,0 c 0.157757,0.1091039 0.197014,0.3259233 0.0879,0.483673 -0.06741,0.097291 -0.17582,0.1497586 -0.285966,0.1497586 -0.0681,0 -0.137248,-0.020153 -0.19736,-0.061849 L 11.82212,7.2734481 v 0.3790855 c 8e-6,0.192149 -0.155663,0.3474663 -0.347457,0.3474663 -0.191802,0 -0.347467,-0.1553165 -0.347467,-0.3474663 V 7.2734481 l -0.311678,0.2157766 c -0.06046,0.041697 -0.129257,0.061848 -0.19736,0.061848 -0.110147,0 -0.218556,-0.05212 -0.285965,-0.1497586 -0.109104,-0.1577492 -0.06984,-0.3742208 0.08791,-0.4836725 L 10.864164,6.6101352 10.419754,6.3022801 C 10.262005,6.1931758 10.222742,5.9763567 10.331841,5.818607 10.441293,5.6608574 10.657764,5.6219412 10.815514,5.7306983 l 0.311677,0.216124 V 5.5677366 c 0,-0.1921489 0.155665,-0.3474663 0.347466,-0.3474663 0.191802,0 0.347467,0.1553166 0.347467,0.3474663 v 0.3790855 l 0.311677,-0.2157765 c 0.157741,-0.1094519 0.374222,-0.069841 0.483674,0.08791 0.109105,0.1577493 0.06985,0.3742213 -0.0879,0.483673 l -0.444407,0.3075069 z"
     id="path2"
     style="opacity:0.6;stroke-width:0.347465" />
</svg>
