<svg height="10" viewBox="0 0 10 10" width="10" xmlns="http://www.w3.org/2000/svg"><path clip-rule="evenodd" d="m2.55 18.81 3.96-3.96 1.63 1.63-3.96 3.96zm8.95-12.1c1.32 0 2.51.54 3.38 1.4.86.87 1.4 2.07 1.4 3.39s-.54 2.51-1.4 3.38c-.87.86-2.06 1.4-3.38 1.4s-2.52-.54-3.39-1.4c-.86-.87-1.4-2.06-1.4-3.38s.54-2.52 1.4-3.39c.87-.86 2.07-1.4 3.39-1.4zm1.75 3.03c-.45-.45-1.07-.72-1.75-.72-.69 0-1.31.27-1.76.72s-.72 1.07-.72 1.76c0 .68.27 1.3.72 1.75s1.07.73 1.76.73c.68 0 1.3-.28 1.75-.73s.73-1.07.73-1.75c0-.69-.28-1.31-.73-1.76zm-.6 7.65v5.6h-2.31v-5.6zm0-17.39v5.6h-2.31v-5.6zm-7.05 12.65h-5.6v-2.31h5.6zm17.39 0h-5.6v-2.31h5.6zm-16.48-4.51-3.96-3.96 1.63-1.63 3.96 3.96zm12.3 12.3-3.96-3.96 1.63-1.63 3.96 3.96zm-3.96-13.93 3.96-3.96 1.63 1.63-3.96 3.96z" fill="#3096fc" image-rendering="optimizeQuality" shape-rendering="geometricPrecision" text-rendering="geometricPrecision" transform="scale(.43497173)"/></svg>